<svg aria-hidden="true" style="position: absolute; width: 0; height: 0; overflow: hidden;"
	version="1.1"
	xmlns="http://www.w3.org/2000/svg" xmlns:xlink="http://www.w3.org/1999/xlink">
	<defs>
		<symbol id="icon-javascript" viewBox="0 0 32 32">
			<path
				d="M0 0h32v32h-32zM29.379 24.368c-0.233-1.46-1.184-2.687-4.004-3.831-0.981-0.46-2.072-0.78-2.396-1.52-0.121-0.44-0.14-0.68-0.061-0.94 0.2-0.861 1.22-1.12 2.020-0.88 0.52 0.16 1 0.56 1.301 1.2 1.379-0.901 1.379-0.901 2.34-1.5-0.36-0.56-0.539-0.801-0.781-1.040-0.84-0.94-1.959-1.42-3.779-1.379l-0.94 0.119c-0.901 0.22-1.76 0.7-2.28 1.34-1.52 1.721-1.081 4.721 0.759 5.961 1.82 1.36 4.481 1.659 4.821 2.94 0.32 1.56-1.16 2.060-2.621 1.88-1.081-0.24-1.68-0.781-2.34-1.781l-2.44 1.401c0.28 0.64 0.6 0.919 1.080 1.479 2.32 2.341 8.12 2.221 9.161-1.339 0.039-0.12 0.32-0.94 0.099-2.2zM17.401 14.708h-2.997c0 2.584-0.012 5.152-0.012 7.74 0 1.643 0.084 3.151-0.184 3.615-0.44 0.919-1.573 0.801-2.088 0.64-0.528-0.261-0.796-0.621-1.107-1.14-0.084-0.14-0.147-0.261-0.169-0.261l-2.433 1.5c0.407 0.84 1 1.563 1.765 2.023 1.14 0.68 2.672 0.9 4.276 0.54 1.044-0.301 1.944-0.921 2.415-1.881 0.68-1.24 0.536-2.76 0.529-4.461 0.016-2.739 0-5.479 0-8.239z">
			</path>
		</symbol>
		<symbol id="icon-node-dot-js" viewBox="0 0 32 32">
			<path
				d="M15.997 32c-0.428 0-0.855-0.112-1.229-0.329l-3.915-2.316c-0.584-0.327-0.299-0.443-0.107-0.511 0.78-0.271 0.937-0.333 1.771-0.805 0.087-0.049 0.201-0.031 0.291 0.023l3.008 1.785c0.109 0.060 0.263 0.060 0.363 0l11.727-6.768c0.109-0.063 0.179-0.188 0.179-0.317v-13.533c0-0.132-0.071-0.256-0.183-0.323l-11.721-6.763c-0.108-0.063-0.252-0.063-0.361 0l-11.719 6.764c-0.113 0.065-0.185 0.193-0.185 0.321v13.533c0 0.129 0.072 0.252 0.185 0.313l3.212 1.856c1.743 0.872 2.811-0.155 2.811-1.187v-13.361c0-0.189 0.152-0.337 0.341-0.337h1.487c0.185 0 0.34 0.149 0.34 0.337v13.361c0 2.327-1.267 3.66-3.472 3.66-0.677 0-1.212 0-2.701-0.735l-3.077-1.769c-0.76-0.439-1.229-1.26-1.229-2.139v-13.533c0-0.879 0.471-1.7 1.229-2.137l11.727-6.776c0.743-0.42 1.728-0.42 2.464 0l11.725 6.776c0.76 0.439 1.232 1.259 1.232 2.137v13.533c0 0.879-0.472 1.697-1.232 2.139l-11.725 6.771c-0.373 0.217-0.799 0.329-1.233 0.329zM25.465 18.657c0-2.533-1.712-3.208-5.316-3.684-3.641-0.481-4.012-0.731-4.012-1.583 0-0.704 0.313-1.644 3.011-1.644 2.409 0 3.297 0.519 3.663 2.143 0.032 0.153 0.172 0.265 0.329 0.265h1.521c0.095 0 0.184-0.041 0.248-0.108 0.064-0.072 0.099-0.164 0.089-0.261-0.236-2.797-2.095-4.101-5.851-4.101-3.344 0-5.339 1.411-5.339 3.777 0 2.567 1.984 3.276 5.193 3.593 3.84 0.376 4.137 0.937 4.137 1.692 0 1.311-1.052 1.869-3.523 1.869-3.103 0-3.785-0.779-4.015-2.323-0.027-0.165-0.168-0.287-0.337-0.287h-1.516c-0.188 0-0.339 0.149-0.339 0.337 0 1.976 1.075 4.331 6.207 4.331 3.717 0.001 5.848-1.461 5.848-4.017z">
			</path>
		</symbol>
		<symbol id="icon-firebase" viewBox="0 0 32 32">
			<path
				d="M5.187 20.897l3.153-20.283c0.055-0.35 0.354-0.614 0.714-0.614 0.276 0 0.515 0.154 0.637 0.381l0.002 0.004 3.391 6.361zM27.58 25.819l-3.003-18.665c-0.060-0.345-0.357-0.604-0.714-0.604-0.199 0-0.379 0.080-0.51 0.21l0-0-18.933 19.059 10.476 5.904c0.304 0.174 0.669 0.277 1.058 0.277s0.754-0.103 1.069-0.282l-0.011 0.006zM19.067 9.531l-2.427-4.643c-0.123-0.232-0.364-0.387-0.64-0.387s-0.517 0.155-0.638 0.383l-0.002 0.004-10.653 19.091z">
			</path>
		</symbol>
		<symbol id="icon-redux" viewBox="0 0 32 32">
			<path
				d="M22.177 22.005c1.159-0.1 2.057-1.12 1.999-2.339-0.061-1.219-1.060-2.197-2.277-2.197h-0.081c-1.257 0.041-2.237 1.099-2.197 2.359 0.040 0.639 0.301 1.159 0.659 1.537-1.397 2.717-3.495 4.715-6.672 6.393-2.137 1.117-4.395 1.539-6.592 1.239-1.837-0.259-3.275-1.080-4.155-2.397-1.317-1.999-1.437-4.155-0.34-6.312 0.801-1.559 1.999-2.697 2.799-3.257-0.2-0.519-0.44-1.397-0.56-2.056-5.915 4.236-5.313 10.028-3.516 12.765 1.339 1.997 4.076 3.275 7.072 3.275 0.799 0 1.639-0.059 2.457-0.259 5.195-0.999 9.129-4.115 11.387-8.709zM29.308 17.011c-3.095-3.636-7.651-5.633-12.845-5.633h-0.68c-0.337-0.739-1.116-1.199-1.996-1.199h-0.060c-1.257 0-2.237 1.080-2.196 2.337 0.040 1.197 1.059 2.197 2.277 2.197h0.099c0.9-0.040 1.679-0.6 1.997-1.399h0.74c3.079 0 5.993 0.899 8.651 2.656 2.036 1.339 3.496 3.096 4.315 5.195 0.717 1.717 0.679 3.396-0.060 4.796-1.139 2.196-3.057 3.356-5.593 3.356-1.599 0-3.156-0.5-3.956-0.859-0.479 0.397-1.279 1.057-1.859 1.457 1.757 0.797 3.536 1.257 5.253 1.257 3.896 0 6.791-2.196 7.891-4.315 1.197-2.397 1.099-6.432-1.959-9.888zM8.653 22.723c0.039 1.199 1.057 2.197 2.277 2.197h0.080c1.279-0.040 2.257-1.097 2.197-2.357 0-1.199-1.039-2.196-2.257-2.196h-0.081c-0.080 0-0.199 0-0.3 0.039-1.657-2.797-2.357-5.795-2.096-9.028 0.159-2.437 0.959-4.556 2.396-6.313 1.199-1.499 3.456-2.239 4.995-2.277 4.315-0.081 6.113 5.295 6.252 7.432l1.997 0.599c-0.46-6.552-4.533-9.989-8.429-9.989-3.656 0-7.031 2.657-8.391 6.553-1.857 5.195-0.639 10.188 1.639 14.184-0.199 0.26-0.319 0.719-0.279 1.157z">
			</path>
		</symbol>
		<symbol id="icon-react" viewBox="0 0 32 32">
			<path
				d="M16 13.148c-1.575 0-2.852 1.277-2.852 2.852s1.277 2.852 2.852 2.852v0c1.575 0 2.852-1.277 2.852-2.852s-1.277-2.852-2.852-2.852v0zM8.011 21.673l-0.629-0.16c-4.691-1.185-7.381-3.197-7.381-5.519s2.691-4.333 7.381-5.519l0.629-0.159 0.177 0.624c0.545 1.86 1.163 3.443 1.899 4.957l-0.082-0.186 0.135 0.284-0.135 0.284c-0.656 1.329-1.275 2.912-1.761 4.551l-0.056 0.22zM7.089 11.933c-3.565 1.001-5.753 2.533-5.753 4.061 0 1.527 2.188 3.059 5.753 4.061 0.512-1.62 1.046-2.965 1.662-4.263l-0.086 0.202c-0.531-1.098-1.066-2.443-1.511-3.828l-0.065-0.234zM23.989 21.673l-0.177-0.625c-0.544-1.859-1.162-3.441-1.9-4.954l0.081 0.184-0.135-0.284 0.135-0.284c0.656-1.329 1.275-2.911 1.762-4.55l0.056-0.221 0.177-0.624 0.631 0.159c4.689 1.185 7.38 3.197 7.38 5.52s-2.691 4.333-7.38 5.519zM23.335 15.995c0.64 1.385 1.169 2.747 1.576 4.061 3.567-1.003 5.753-2.535 5.753-4.061 0-1.528-2.188-3.059-5.753-4.061-0.511 1.619-1.045 2.963-1.662 4.262l0.086-0.2zM7.080 11.927l-0.177-0.623c-1.319-4.648-0.919-7.979 1.097-9.141 1.977-1.141 5.152 0.207 8.479 3.621l0.453 0.465-0.453 0.465c-1.146 1.19-2.207 2.482-3.162 3.853l-0.068 0.103-0.18 0.257-0.313 0.027c-1.875 0.151-3.596 0.439-5.264 0.86l0.218-0.047zM9.608 3.087c-0.357 0-0.673 0.077-0.94 0.231-1.325 0.764-1.56 3.42-0.647 7.004 1.21-0.285 2.681-0.521 4.18-0.658l0.131-0.010c0.894-1.264 1.792-2.37 2.756-3.414l-0.020 0.022c-2.080-2.025-4.049-3.175-5.46-3.175zM22.393 30.236c-0.001 0-0.001 0 0 0-1.9 0-4.34-1.431-6.872-4.031l-0.453-0.465 0.453-0.465c1.146-1.19 2.206-2.482 3.16-3.854l0.068-0.103 0.18-0.257 0.312-0.027c1.875-0.15 3.597-0.438 5.267-0.858l-0.218 0.046 0.629-0.159 0.179 0.624c1.316 4.645 0.917 7.977-1.099 9.139-0.449 0.259-0.988 0.411-1.562 0.411-0.016 0-0.031-0-0.047-0l0.002 0zM16.932 25.728c2.080 2.025 4.049 3.175 5.46 3.175h0.001c0.356 0 0.673-0.077 0.939-0.231 1.325-0.764 1.561-3.421 0.647-7.005-1.212 0.286-2.682 0.522-4.182 0.658l-0.13 0.010c-0.893 1.265-1.791 2.371-2.755 3.416l0.020-0.022zM24.92 11.927l-0.629-0.159c-1.453-0.376-3.175-0.664-4.939-0.806l-0.111-0.007-0.312-0.027-0.18-0.257c-1.021-1.474-2.082-2.766-3.237-3.966l0.009 0.010-0.453-0.465 0.453-0.465c3.325-3.413 6.499-4.761 8.479-3.621 2.016 1.163 2.416 4.493 1.099 9.14zM19.667 9.653c1.523 0.139 2.969 0.364 4.312 0.668 0.915-3.584 0.679-6.24-0.647-7.004-1.317-0.761-3.793 0.405-6.4 2.944 0.943 1.022 1.841 2.128 2.666 3.289l0.069 0.103zM9.608 30.236c-0.014 0-0.030 0-0.046 0-0.574 0-1.113-0.152-1.577-0.419l0.015 0.008c-2.016-1.161-2.416-4.492-1.097-9.139l0.176-0.624 0.629 0.159c1.54 0.388 3.239 0.661 5.047 0.812l0.313 0.027 0.179 0.257c1.022 1.475 2.083 2.767 3.239 3.967l-0.010-0.010 0.453 0.465-0.453 0.465c-2.531 2.6-4.971 4.031-6.868 4.031zM8.021 21.667c-0.915 3.584-0.679 6.241 0.647 7.005 1.316 0.751 3.791-0.407 6.4-2.944-0.943-1.022-1.841-2.129-2.667-3.29l-0.069-0.103c-1.629-0.146-3.099-0.382-4.534-0.711l0.224 0.043zM16 22.504c-1.097 0-2.225-0.048-3.355-0.141l-0.313-0.027-0.18-0.257c-0.544-0.768-1.139-1.691-1.697-2.639l-0.103-0.19c-0.452-0.758-0.971-1.732-1.45-2.728l-0.105-0.243-0.133-0.284 0.133-0.284c0.584-1.239 1.102-2.212 1.658-3.161l-0.103 0.191c0.552-0.955 1.159-1.907 1.8-2.829l0.18-0.257 0.313-0.027c1.005-0.090 2.174-0.142 3.355-0.142s2.35 0.052 3.505 0.153l-0.15-0.011 0.312 0.027 0.179 0.257c1.177 1.666 2.294 3.567 3.252 5.56l0.104 0.24 0.135 0.284-0.135 0.284c-1.058 2.232-2.176 4.133-3.439 5.925l0.083-0.125-0.179 0.257-0.312 0.027c-1.129 0.093-2.259 0.141-3.356 0.141zM13.071 21.059c1.973 0.148 3.885 0.148 5.86 0 1.004-1.445 1.978-3.104 2.827-4.836l0.101-0.228c-0.947-1.958-1.922-3.617-3.012-5.19l0.083 0.126c-0.877-0.071-1.898-0.111-2.929-0.111s-2.052 0.040-3.063 0.119l0.134-0.008c-1.008 1.447-1.983 3.106-2.83 4.84l-0.099 0.224c0.951 1.96 1.926 3.619 3.014 5.193l-0.085-0.13z">
			</path>
		</symbol>
		<symbol id="icon-jquery" viewBox="0 0 32 32">
			<path
				d="M2.045 7.832c-2.831 4.067-2.48 9.356-0.316 13.675 0.049 0.105 0.104 0.205 0.157 0.305 0.031 0.069 0.065 0.133 0.103 0.199 0.017 0.037 0.041 0.076 0.063 0.111 0.035 0.069 0.072 0.136 0.108 0.203l0.209 0.353c0.039 0.065 0.076 0.129 0.12 0.195 0.073 0.125 0.16 0.249 0.236 0.375 0.035 0.052 0.067 0.104 0.105 0.156 0.148 0.232 0.284 0.425 0.428 0.612l-0.015-0.020c0.104 0.143 0.208 0.281 0.32 0.42 0.036 0.051 0.076 0.101 0.113 0.152l0.295 0.359c0.036 0.041 0.072 0.089 0.111 0.132 0.131 0.157 0.269 0.311 0.408 0.465 0 0.003 0.004 0.005 0.007 0.009 0.172 0.217 0.358 0.409 0.56 0.582l0.006 0.005c0.107 0.109 0.213 0.219 0.327 0.325l0.135 0.129c0.148 0.139 0.296 0.277 0.452 0.411 0.003 0 0.004 0.003 0.007 0.004l0.076 0.067c0.136 0.119 0.273 0.237 0.413 0.347l0.167 0.14c0.113 0.091 0.231 0.177 0.347 0.267l0.181 0.139c0.124 0.093 0.256 0.185 0.383 0.276 0.047 0.033 0.093 0.067 0.141 0.097l0.039 0.031 0.375 0.247 0.16 0.107c0.196 0.125 0.391 0.244 0.584 0.361 0.056 0.028 0.112 0.059 0.164 0.091 0.144 0.083 0.293 0.167 0.439 0.244 0.080 0.045 0.163 0.084 0.245 0.125 0.1 0.056 0.204 0.111 0.311 0.167 0.029 0.009 0.054 0.019 0.077 0.032l-0.002-0.001c0.044 0.020 0.085 0.041 0.128 0.063 0.16 0.080 0.327 0.156 0.5 0.232 0.032 0.013 0.067 0.027 0.101 0.045 0.192 0.084 0.384 0.164 0.583 0.243 0.045 0.013 0.093 0.036 0.14 0.053 0.18 0.068 0.365 0.137 0.548 0.203l0.067 0.024c0.204 0.069 0.405 0.136 0.612 0.2 0.048 0.013 0.097 0.031 0.148 0.044 0.212 0.064 0.417 0.14 0.631 0.181 13.68 2.493 17.656-8.225 17.656-8.225-3.34 4.349-9.267 5.496-14.88 4.22-0.208-0.048-0.416-0.115-0.625-0.176-0.382-0.11-0.633-0.192-0.882-0.28l0.126 0.039-0.083-0.032c-0.181-0.061-0.356-0.129-0.533-0.197-0.034-0.015-0.082-0.033-0.132-0.050l-0.015-0.004c-0.196-0.079-0.387-0.16-0.576-0.244-0.041-0.013-0.076-0.032-0.117-0.048-0.35-0.155-0.508-0.231-0.665-0.308l0.184 0.081c-0.049-0.021-0.093-0.044-0.141-0.069-0.125-0.059-0.251-0.125-0.373-0.189-0.114-0.054-0.196-0.097-0.276-0.142l0.027 0.014c-0.151-0.080-0.301-0.167-0.452-0.249-0.045-0.032-0.097-0.059-0.149-0.088-0.289-0.169-0.479-0.288-0.668-0.409l0.084 0.050c-0.064-0.040-0.115-0.075-0.165-0.111l0.008 0.006c-0.172-0.106-0.308-0.197-0.44-0.291l0.024 0.017c-0.047-0.031-0.089-0.064-0.137-0.097-0.17-0.118-0.298-0.211-0.424-0.306l0.032 0.023c-0.056-0.045-0.116-0.088-0.176-0.133-0.117-0.092-0.236-0.18-0.353-0.277l-0.157-0.125c-0.174-0.14-0.319-0.263-0.461-0.388l0.016 0.013c-0.015-0.014-0.031-0.028-0.048-0.039l-0.001-0.001-0.463-0.421-0.133-0.125c-0.109-0.111-0.221-0.217-0.333-0.327l-0.129-0.133c-0.138-0.137-0.273-0.278-0.404-0.421l-0.008-0.009-0.020-0.021c-0.141-0.155-0.279-0.312-0.417-0.472-0.036-0.041-0.069-0.085-0.107-0.129l-0.301-0.369c-0.105-0.131-0.254-0.326-0.4-0.522l-0.054-0.075c-3.113-4.251-4.24-10.117-1.748-14.929zM10.828 4.407c-2.052 2.945-1.936 6.884-0.339 9.999 0.296 0.584 0.596 1.078 0.928 1.547l-0.025-0.038c0.307 0.44 0.645 0.96 1.056 1.315 0.143 0.163 0.297 0.32 0.459 0.479l0.12 0.12c0.152 0.147 0.308 0.291 0.467 0.433l0.020 0.017c0.16 0.141 0.34 0.29 0.524 0.435l0.028 0.021c0.045 0.031 0.084 0.067 0.128 0.097 0.187 0.144 0.375 0.283 0.569 0.42l0.020 0.012c0.083 0.060 0.171 0.115 0.264 0.173 0.037 0.024 0.080 0.056 0.12 0.080 0.141 0.091 0.28 0.176 0.423 0.263 0.023 0.009 0.043 0.021 0.064 0.031 0.12 0.073 0.251 0.144 0.376 0.209 0.044 0.027 0.087 0.047 0.132 0.072 0.089 0.044 0.177 0.091 0.263 0.136l0.043 0.019c0.18 0.088 0.364 0.171 0.544 0.253 0.045 0.017 0.084 0.032 0.123 0.051 0.148 0.064 0.299 0.125 0.447 0.183 0.067 0.023 0.129 0.049 0.192 0.069 0.136 0.051 0.279 0.097 0.413 0.144l0.187 0.060c0.195 0.060 0.392 0.139 0.597 0.172 10.56 1.751 13.005-6.383 13.005-6.383-2.201 3.168-6.461 4.677-11.001 3.499-0.277-0.071-0.476-0.13-0.673-0.195l0.076 0.022c-0.064-0.017-0.12-0.037-0.181-0.056-0.139-0.048-0.281-0.095-0.416-0.145l-0.192-0.072c-0.149-0.060-0.301-0.116-0.447-0.18-0.045-0.020-0.087-0.033-0.121-0.053-0.187-0.084-0.375-0.167-0.556-0.256l-0.275-0.143-0.159-0.080c-0.123-0.064-0.236-0.131-0.353-0.2-0.033-0.016-0.060-0.031-0.086-0.047l0.003 0.002c-0.141-0.088-0.288-0.173-0.423-0.264-0.045-0.025-0.087-0.056-0.129-0.083l-0.277-0.181c-0.192-0.133-0.38-0.277-0.569-0.416-0.043-0.039-0.084-0.071-0.125-0.105-1.996-1.569-3.571-3.715-4.317-6.144-0.787-2.525-0.613-5.357 0.745-7.656zM18.213 1.845c-1.211 1.776-1.327 3.981-0.493 5.94 0.885 2.080 2.696 3.713 4.805 4.487 0.087 0.033 0.171 0.061 0.26 0.093l0.117 0.036c0.123 0.039 0.247 0.084 0.373 0.112 5.835 1.125 7.413-2.996 7.839-3.601-1.389 1.995-3.719 2.473-6.576 1.779-0.279-0.070-0.509-0.143-0.732-0.228l0.044 0.015c-0.337-0.119-0.609-0.233-0.873-0.361l0.050 0.022c-0.55-0.269-1.022-0.562-1.462-0.896l0.021 0.016c-2.56-1.939-4.145-5.64-2.476-8.655z">
			</path>
		</symbol>
		<symbol id="icon-sass" viewBox="0 0 32 32">
			<path
				d="M16 0c8.836 0 16 7.164 16 16s-7.164 16-16 16-16-7.164-16-16 7.164-16 16-16zM12.82 21.331c0.233 0.86 0.208 1.664-0.032 2.389l-0.087 0.24c-0.032 0.081-0.069 0.16-0.104 0.235-0.187 0.387-0.435 0.747-0.74 1.080-0.931 1.012-2.229 1.396-2.787 1.073-0.6-0.349-0.301-1.78 0.779-2.92 1.161-1.224 2.827-2.012 2.827-2.012v-0.004zM26.035 6.849c-0.723-2.844-5.436-3.779-9.896-2.193-2.652 0.943-5.525 2.424-7.591 4.356-2.457 2.295-2.848 4.295-2.687 5.131 0.569 2.948 4.609 4.876 6.271 6.307v0.008c-0.489 0.24-4.075 2.039-4.915 3.9-0.9 1.96 0.14 3.361 0.82 3.54 2.1 0.581 4.26-0.48 5.42-2.199 1.12-1.681 1.021-3.841 0.539-4.901 0.661-0.18 1.44-0.26 2.44-0.139 2.801 0.32 3.361 2.080 3.24 2.8-0.12 0.719-0.697 1.139-0.899 1.259-0.2 0.121-0.26 0.16-0.241 0.241 0.020 0.12 0.121 0.12 0.28 0.1 0.22-0.040 1.461-0.6 1.521-1.961 0.060-1.72-1.581-3.639-4.5-3.6-1.2 0.021-1.961 0.121-2.5 0.341-0.040-0.060-0.081-0.1-0.14-0.14-1.8-1.94-5.14-3.3-5-5.88 0.040-0.94 0.38-3.419 6.4-6.419 4.94-2.461 8.881-1.78 9.561-0.28 0.977 2.139-2.101 6.12-7.241 6.699-1.96 0.22-2.98-0.539-3.241-0.82-0.279-0.3-0.319-0.32-0.419-0.259-0.16 0.080-0.060 0.34 0 0.5 0.16 0.4 0.78 1.1 1.861 1.46 0.939 0.3 3.24 0.479 6-0.6 3.099-1.199 5.519-4.54 4.819-7.34z">
			</path>
		</symbol>
		<symbol id="icon-embed2" viewBox="0 0 40 32">
			<path d="M26 23l3 3 10-10-10-10-3 3 7 7z">
			</path>
			<path d="M14 9l-3-3-10 10 10 10 3-3-7-7z">
			</path>
			<path d="M21.916 4.704l2.171 0.592-6 22.001-2.171-0.592 6-22.001z">
			</path>
		</symbol>
		<symbol id="icon-css3" viewBox="0 0 32 32">
			<path
				d="M4.762 1.516l-1.074 5.373h21.867l-0.684 3.47h-21.881l-1.059 5.372h21.865l-1.219 6.127-8.813 2.919-7.638-2.919 0.523-2.658h-5.372l-1.278 6.448 12.632 4.834 14.563-4.834 4.805-24.133z">
			</path>
		</symbol>
		<symbol id="icon-next-dot-js" viewBox="0 0 32 32">
			<path
				d="M23.751 30.003c-0.119 0.063-0.112 0.088 0.007 0.028 0.036-0.016 0.067-0.037 0.093-0.063l-0 0c0-0.021-0.003-0.019-0.1 0.035zM23.988 29.877c-0.056 0.044-0.056 0.047 0.012 0.012 0.037-0.019 0.069-0.040 0.069-0.047 0-0.025-0.016-0.019-0.081 0.035zM24.144 29.783c-0.056 0.044-0.056 0.047 0.012 0.012 0.037-0.019 0.069-0.040 0.069-0.047 0-0.025-0.016-0.019-0.081 0.035zM24.3 29.689c-0.056 0.044-0.056 0.047 0.012 0.012 0.037-0.019 0.069-0.040 0.069-0.047 0-0.025-0.016-0.019-0.081 0.035zM24.516 29.549c-0.109 0.069-0.144 0.116-0.047 0.063 0.069-0.040 0.181-0.125 0.163-0.128-0.044 0.019-0.082 0.041-0.118 0.067l0.002-0.001zM14.952 0.008c-0.069 0.007-0.288 0.028-0.485 0.044-4.544 0.409-8.801 2.861-11.497 6.631-1.43 1.965-2.431 4.334-2.813 6.904l-0.011 0.087c-0.128 0.879-0.144 1.139-0.144 2.331s0.016 1.451 0.144 2.331c0.869 6.008 5.145 11.056 10.944 12.927 1.039 0.335 2.133 0.563 3.377 0.7 0.485 0.053 2.58 0.053 3.065 0 2.148-0.237 3.969-0.769 5.764-1.685 0.275-0.141 0.328-0.179 0.291-0.209-0.312-0.379-1.167-1.516-2.015-2.659l-0.591-0.834-2.559-3.456-3.205-4.744c-2.045-3.101-3.108-4.645-4.18-6.183l0.952 1.441c-0.012-0.003-0.025 2.105-0.031 4.679-0.009 4.507-0.012 4.688-0.069 4.795-0.056 0.125-0.152 0.224-0.271 0.283l-0.003 0.001c-0.1 0.051-0.188 0.060-0.66 0.060h-0.541l-0.144-0.091c-0.089-0.057-0.16-0.134-0.208-0.225l-0.002-0.003-0.065-0.141 0.007-6.271 0.009-6.273 0.097-0.121c0.065-0.076 0.142-0.14 0.228-0.188l0.004-0.002c0.128-0.063 0.179-0.069 0.72-0.069 0.639 0 0.744 0.025 0.911 0.207-0.11-0.286 1.162 1.609 2.423 3.511l1.437 2.303c2.077 3.149 4.916 7.449 6.312 9.561l2.533 3.837 0.128-0.084c1.249-0.838 2.329-1.789 3.27-2.865l0.016-0.019c1.947-2.219 3.292-5.011 3.755-8.091l0.011-0.088c0.128-0.879 0.144-1.139 0.144-2.331s-0.016-1.451-0.144-2.331c-0.869-6.008-5.145-11.056-10.944-12.927-0.962-0.319-2.092-0.565-3.257-0.691l-0.074-0.006c-0.3-0.031-2.368-0.065-2.629-0.044zM21.501 9.685c0.15 0.076 0.263 0.207 0.315 0.365l0.001 0.004c0.025 0.081 0.031 1.82 0.025 5.739l-0.009 5.624-0.992-1.52-0.995-1.52v-4.088c0-2.643 0.012-4.128 0.031-4.2 0.048-0.171 0.159-0.31 0.306-0.393l0.003-0.002c0.128-0.065 0.175-0.072 0.667-0.072 0.463 0 0.544 0.007 0.648 0.063z">
			</path>
		</symbol>
		<symbol id="icon-reactrouter" viewBox="0 0 32 32">
			<path
				d="M16.157 7.288c-0.008-0-0.018-0-0.027-0-0.286 0-0.562 0.039-0.825 0.112l0.022-0.005c-0.371 0.089-0.936 0.443-1.271 0.777-0.547 0.564-0.653 0.812-0.883 1.959-0.107 0.564 0.547 1.907 1.129 2.312 0.6 0.423 1.447 0.669 2.753 0.811 1.905 0.213 2.453 0.848 2.453 2.929 0 1.836-0.513 2.329-2.613 2.541-2.276 0.229-3.44 1.112-3.687 2.823-0.141 1.041 0.547 2.347 1.5 2.788 2.169 1.024 4.2-0.264 4.623-2.928 0.281-1.712 0.829-2.189 2.664-2.329 2.117-0.177 3.212-0.9 3.617-2.383 0.371-1.36-0.405-2.876-1.729-3.405-0.352-0.141-1.164-0.317-1.8-0.388-1.993-0.213-2.505-0.565-2.717-1.853-0.3-1.783-0.423-2.083-1.059-2.787-0.53-0.594-1.296-0.968-2.15-0.973h-0.001zM9.777 13.101c-0.017-0-0.038-0.001-0.058-0.001-0.214 0-0.423 0.024-0.623 0.068l0.019-0.004c-1.959 0.424-2.893 2.735-1.8 4.393 1.571 2.365 5.259 1.271 5.293-1.569 0.016-1.591-1.307-2.857-2.831-2.888zM2.785 18.92c-0.204 0.005-0.4 0.030-0.589 0.073l0.020-0.004c-2.877 0.635-2.983 4.835-0.141 5.576 0.707 0.193 0.776 0.193 1.481 0.017 1.588-0.424 2.488-1.941 2.065-3.476-0.371-1.36-1.525-2.219-2.836-2.187zM29.217 18.931c-0.311 0.003-0.636 0.077-1.045 0.216-1.853 0.636-2.488 2.789-1.307 4.448 0.743 1.059 2.613 1.411 3.76 0.688 1.888-1.165 1.817-4.076-0.124-4.995-0.507-0.248-0.884-0.361-1.284-0.357z">
			</path>
		</symbol>
		<symbol id="icon-vue-dot-js" viewBox="0 0 32 32">
			<path
				d="M32 2.147h-13.253l-2.747 4.733-2.747-4.733h-13.253l16 27.707zM16 18.773l-9.12-15.8h5.907l3.213 5.573 3.213-5.573h5.907z">
			</path>
		</symbol>
		<symbol id="icon-mongodb" viewBox="0 0 32 32">
			<path
				d="M22.907 12.691c-1.684-7.413-5.656-9.849-6.083-10.781-0.469-0.657-0.977-1.909-0.977-1.909-0.003 0.025-0.005 0.041-0.007 0.065v0.017h-0.001c-0.003 0.020-0.004 0.033-0.005 0.052v0.020h-0.003c0 0.013-0.003 0.024-0.003 0.035v0.035h-0.004c-0.001 0.011-0.001 0.024-0.004 0.033v0.028h-0.003c0 0.009 0 0.020-0.003 0.028v0.027h-0.003c0 0.013-0.001 0.029-0.003 0.043v0.003c-0.004 0.023-0.008 0.045-0.012 0.067v0.011h-0.003c-0.001 0.005-0.004 0.011-0.004 0.016v0.023h-0.004v0.029h-0.007v0.024h-0.007v0.028h-0.005v0.025h-0.005v0.023h-0.008v0.019h-0.005v0.024h-0.005v0.019h-0.007v0.017h-0.004v0.020h-0.005c-0.001 0.001-0.001 0.004-0.001 0.005v0.013h-0.004c-0.001 0.003-0.001 0.005-0.001 0.008v0.008h-0.003c-0.001 0.004-0.003 0.011-0.003 0.013-0.004 0.009-0.009 0.019-0.013 0.028v0.003c-0.003 0.003-0.005 0.007-0.007 0.009v0.011h-0.005v0.011h-0.007v0.011h-0.004v0.013h-0.008v0.019h-0.005v0.005h-0.005v0.011h-0.005v0.015h-0.005v0.011h-0.008v0.015h-0.005v0.011h-0.007v0.011h-0.004v0.013h-0.007v0.011h-0.005v0.008h-0.005v0.011h-0.008v0.012h-0.005v0.008h-0.007v0.011h-0.005v0.015h-0.007v0.005h-0.004v0.011h-0.008v0.005h-0.005v0.013h-0.005v0.005h-0.005v0.011h-0.007v0.008h-0.004l-0.003 0.005v0.005h-0.003c-0.001 0.003-0.003 0.003-0.003 0.005v0.001h-0.001c-0.001 0.004-0.003 0.007-0.005 0.009v0.004h-0.001c-0.007 0.008-0.011 0.016-0.016 0.024v0.001c-0.003 0.003-0.009 0.008-0.012 0.013v0.003h-0.001c-0.001 0.001-0.004 0.003-0.004 0.004v0.004h-0.003l-0.004 0.004v0.001h-0.001c0 0.001-0.003 0.003-0.004 0.005v0.005h-0.004l-0.003 0.003v0.003h-0.003c0 0.003-0.003 0.003-0.003 0.004v0.004h-0.005c0 0.001-0.001 0.003-0.003 0.004v0.008h-0.004v0.005h-0.005v0.008h-0.005v0.011h-0.007v-0.011h-0.007v0.005h-0.005v0.008h-0.007v0.011h-0.007v0.005h-0.005v0.008h-0.005v0.005h-0.005v0.011h-0.008v0.005h-0.005v0.008h-0.007v0.005h-0.005v0.007h-0.007v0.013h-0.003v0.005h-0.008v0.007h-0.005v0.003h-0.005v0.005h-0.007v0.013h-0.005v0.005h-0.007v0.005h-0.005v0.008h-0.007v0.005h-0.007v0.005h-0.005v0.005h-0.005v0.013h-0.005v0.007h-0.008v0.005h-0.005v0.005h-0.007v0.008h-0.005v0.005h-0.007v0.009h-0.005v0.005h-0.008v0.008h-0.003v0.005h-0.005v0.005h-0.007v0.005h-0.005v0.008h-0.007v0.005h-0.004c-0.001 0.001-0.001 0.003-0.001 0.003v0.003h-0.003l-0.005 0.005c0 0-0.003 0.003-0.005 0.004v0.008h-0.005v0.007h-0.005v0.005h-0.005v0.005h-0.004l-0.004 0.004v0.004h-0.003l-0.003 0.003v0.004h-0.003c-0.007 0.008-0.009 0.013-0.019 0.021-0.003 0.003-0.011 0.009-0.016 0.013-0.016 0.011-0.036 0.028-0.052 0.043-0.011 0.007-0.021 0.016-0.029 0.023v0.001h-0.001c-0.021 0.017-0.041 0.033-0.065 0.052v0.001c-0.032 0.027-0.063 0.052-0.099 0.083v-0.001h-0.003c-0.076 0.063-0.156 0.133-0.248 0.212v0.001h-0.001c-0.225 0.197-0.493 0.451-0.793 0.757l-0.025 0.025c-1.813 1.876-4.671 5.785-4.972 12.103-0.027 0.523-0.021 1.031 0.008 1.525v0.012c0.145 2.489 0.927 4.615 1.904 6.341v0.001c0.389 0.688 0.809 1.313 1.235 1.873v0.001c1.469 1.94 2.969 3.089 3.352 3.368 0.588 1.364 0.533 3.705 0.533 3.705l0.859 0.287c0 0-0.175-2.268 0.071-3.363 0.076-0.343 0.256-0.635 0.465-0.883 0.141-0.1 0.56-0.401 1.063-0.86 0.024-0.025 0.037-0.048 0.059-0.072 2.028-1.891 5.816-6.547 4.517-14.132z">
			</path>
		</symbol>
		<symbol id="icon-python" viewBox="0 0 32 32">
			<path
				d="M19.080 0.24l1.2 0.267 0.973 0.347 0.787 0.4 0.6 0.427 0.453 0.453 0.333 0.453 0.213 0.44 0.133 0.4 0.053 0.347 0.027 0.267-0.013 0.173v7.12l-0.067 0.84-0.173 0.733-0.28 0.613-0.347 0.507-0.4 0.413-0.44 0.333-0.467 0.253-0.467 0.187-0.44 0.133-0.4 0.093-0.347 0.053-0.28 0.027h-7.96l-0.92 0.067-0.787 0.187-0.667 0.293-0.547 0.36-0.44 0.427-0.36 0.467-0.267 0.48-0.2 0.493-0.133 0.467-0.093 0.427-0.053 0.36-0.027 0.28v4.080h-2.973l-0.28-0.040-0.373-0.093-0.427-0.16-0.467-0.24-0.48-0.347-0.48-0.48-0.467-0.613-0.427-0.787-0.373-0.973-0.28-1.173-0.187-1.4-0.067-1.64 0.080-1.627 0.213-1.387 0.32-1.16 0.427-0.947 0.48-0.76 0.533-0.587 0.56-0.44 0.56-0.32 0.533-0.213 0.48-0.133 0.427-0.067 0.32-0.013h0.213l0.080 0.013h10.88v-1.107h-7.787l-0.013-3.667-0.027-0.493 0.067-0.453 0.147-0.413 0.227-0.373 0.333-0.347 0.413-0.307 0.507-0.267 0.587-0.24 0.68-0.2 0.773-0.16 0.853-0.133 0.947-0.080 1.027-0.053 1.12-0.027 1.693 0.067zM10.68 2.88l-0.307 0.44-0.107 0.547 0.107 0.547 0.307 0.453 0.44 0.293 0.547 0.12 0.547-0.12 0.44-0.293 0.307-0.453 0.107-0.547-0.107-0.547-0.307-0.44-0.44-0.293-0.547-0.12-0.547 0.12zM28.133 8.147l0.373 0.080 0.427 0.16 0.467 0.24 0.48 0.36 0.48 0.467 0.467 0.627 0.427 0.787 0.373 0.973 0.28 1.173 0.187 1.387 0.067 1.64-0.080 1.64-0.213 1.387-0.32 1.147-0.427 0.947-0.48 0.76-0.533 0.6-0.56 0.44-0.56 0.32-0.533 0.213-0.48 0.12-0.427 0.067-0.32 0.027-0.213-0.013h-10.96v1.093h7.787l0.013 3.68 0.027 0.48-0.067 0.453-0.147 0.413-0.227 0.387-0.333 0.333-0.413 0.32-0.507 0.267-0.587 0.227-0.68 0.2-0.773 0.173-0.853 0.12-0.947 0.093-1.027 0.053-1.12 0.013-1.693-0.053-1.427-0.187-1.2-0.267-0.973-0.333-0.787-0.4-0.6-0.44-0.453-0.453-0.333-0.453-0.213-0.44-0.133-0.4-0.053-0.333-0.027-0.267 0.013-0.173v-7.12l0.067-0.853 0.173-0.72 0.28-0.613 0.347-0.507 0.4-0.427 0.44-0.32 0.467-0.267 0.467-0.187 0.44-0.133 0.4-0.080 0.347-0.053 0.28-0.027 0.173-0.013h7.787l0.92-0.067 0.787-0.187 0.667-0.28 0.547-0.373 0.44-0.427 0.36-0.467 0.267-0.48 0.2-0.48 0.133-0.467 0.093-0.427 0.053-0.373 0.027-0.28v-4.080h2.787l0.187 0.013zM19.507 27.147l-0.307 0.44-0.107 0.547 0.107 0.547 0.307 0.44 0.44 0.307 0.547 0.107 0.547-0.107 0.44-0.307 0.307-0.44 0.107-0.547-0.107-0.547-0.307-0.44-0.44-0.307-0.547-0.107-0.547 0.107z">
			</path>
		</symbol>
		<symbol id="icon-nuxt-dot-js" viewBox="0 0 32 32">
			<path
				d="M26.299 27.029l0.031-0.060c0.025-0.044 0.049-0.096 0.069-0.149l0.002-0.007 0.003-0.007c0.061-0.16 0.096-0.344 0.096-0.537 0-0.096-0.009-0.191-0.026-0.282l0.001 0.009 0.001 0.009c-0.056-0.313-0.166-0.592-0.319-0.841l0.006 0.010 0.007 0.011-7.089-12.471-1.083-1.893-8.161 14.364c-0.129 0.233-0.225 0.504-0.27 0.791l-0.002 0.014-0.001 0.015c-0.017 0.089-0.026 0.192-0.026 0.296 0 0.236 0.049 0.461 0.137 0.665l-0.004-0.011-0.004-0.011c0.022 0.053 0.044 0.098 0.069 0.141l-0.003-0.005-0.003-0.005c0.213 0.367 0.667 0.803 1.667 0.803h13.197c0.209 0 1.233-0.043 1.705-0.851zM17.996 14.608l6.479 11.397h-12.955zM31.661 25.187l-9.355-16.48c-0.096-0.173-0.636-1.049-1.576-1.049-0.423 0-1.029 0.18-1.523 1.047l-1.209 2.12 1.076 1.893 1.667-2.949 9.255 16.24h-3.52c0.014 0.078 0.022 0.168 0.022 0.26 0 0.198-0.036 0.387-0.102 0.561l0.004-0.011 0.004-0.011c-0.023 0.065-0.049 0.12-0.079 0.173l0.003-0.005 0.003-0.005-0.031 0.060c-0.473 0.807-1.496 0.849-1.696 0.849h5.505c0.203 0 1.223-0.043 1.696-0.849 0.209-0.367 0.36-0.983-0.143-1.844zM9.739 27.076c-0.019-0.032-0.039-0.073-0.057-0.114l-0.003-0.009-0.003-0.008c-0.087-0.194-0.138-0.42-0.138-0.658 0-0.103 0.009-0.204 0.028-0.301l-0.002 0.010-0.001 0.009h-7.561l11.239-19.776 3.689 6.485 1.069-1.893-3.216-5.665c-0.089-0.163-0.633-1.036-1.569-1.036-0.423 0-1.029 0.183-1.523 1.049l-11.384 20.016c-0.096 0.173-0.567 1.083-0.1 1.889 0.213 0.367 0.667 0.803 1.667 0.803h9.535c-0.993 0-1.453-0.429-1.669-0.801z">
			</path>
		</symbol>
		<symbol id="icon-flask" viewBox="0 0 32 32">
			<path
				d="M9.563 27.54c-1.219-0.96-2.52-1.88-3.408-3.173-1.869-2.283-3.309-4.925-4.293-7.703-0.595-1.807-0.8-3.744-1.565-5.48-0.803-1.259 0.137-2.637 1.517-3.039 0.613-0.117 1.696-0.697 0.391-0.283-1.171 0.859-1.284-0.78-0.084-0.883 0.82-0.109 1.12-0.78 0.84-1.383-0.879-0.573 2.133-1.204 0.617-2.059-1.576-1.704 2.209-2.032 1.276-0.099-0.223 1.487 2.645-0.272 1.98 1.444 0.676 0.825 2.533 0.188 2.487 1.345 0.987 0.067 1.324 0.896 2.249 0.96 0.96 0.433 2.697 0.773 3.023 1.855-0.951 0.753-3.153-1.555-3.259 0.529 0.287 3.080 0.213 6.252 1.34 9.184 0.533 1.776 1.825 3.173 2.992 4.557 1.116 1.355 2.628 2.307 4.169 3.111 1.352 0.637 2.809 1.060 4.284 1.325 0.597-0.457 1.653-2.156 2.584-1.44 0.044 0.805-1.851 1.684-0.089 1.595 1.035-0.312 1.752 0.8 2.604-0.203 0.784 0.929 3.261-0.595 2.703 1.307-0.755 0.485-1.856 0.192-2.612 0.861-1.247-0.623-2.24 0.557-3.62 0.408-1.533 0.275-3.092 0.387-4.645 0.388-2.549-0.201-5.153-0.287-7.579-1.173-1.367-0.397-2.699-1.176-3.901-1.953zM11.716 28.473c1.333 0.576 2.639 1.184 4.1 1.368 2.32 0.321 4.716 0.819 7.044 0.365-1.053-0.476-2.144 0.187-3.193-0.34-1.259 0.271-2.609-0.069-3.889-0.236-1.456-0.648-3.027-1.093-4.389-1.936-1.703-0.621 0.88 0.797 1.341 0.913 1.064 0.604-1.171-0.311-1.487-0.561-0.891-0.5-1.005-0.396-0.088 0.112 0.185 0.108 0.368 0.221 0.561 0.315zM9.177 26.679c1.293 0.479-0.005-0.909-0.599-0.829-0.263-0.455-1.003-0.743-0.48-0.987-0.94 0.325-0.984-1.24-1.427-1.017-0.993-0.313-0.387-1.425-1.569-2.107-0.108-0.72-1.176-1.344-1.517-2.429-0.151-0.555-1.207-2.151-0.557-0.667 0.552 1.429 1.524 2.653 2.333 3.876 0.627 1.164 1.369 2.381 2.513 3.107 0.387 0.371 0.757 0.937 1.303 1.053zM5.453 22.589c0.044-0.195 0.236 0.423 0 0zM10.725 27.252c0.287-0.128-0.412-0.16 0 0zM11.427 27.508c-0.072-0.353-0.32 0.197 0 0zM12.307 27.875c0.417-0.399-0.645-0.251 0 0zM13.811 28.715c0.255-0.376-0.813-0.143 0 0zM10.92 26.697c0.649-0.42-0.84-0.005 0 0zM11.579 27.025c-0.019-0.221-0.235 0.1 0 0zM14.872 29.081c0.531 0.333 3.093 0.733 1.488 0.137-0.268 0.056-2.975-0.765-1.488-0.137zM9.644 25.009c-0.052-0.223-0.821-0.247 0 0zM11.177 25.903c0.4-0.279-0.828-0.213 0 0zM12.467 26.693c0.573-0.216-0.929-0.217 0 0zM9.020 24.329c0.621 0.477 2.507 0.061 0.952-0.284-0.707-0.377-2.303-0.635-1.216 0.227zM13.34 26.967c0.259-0.44-1.085-0.252 0 0zM12.028 25.923c1.52 0.431-1.277-0.96-0.375-0.157l0.2 0.091zM14.66 27.444c1.439 0.013-1.3-0.197 0 0zM8.467 23.497c-0.056-0.268-0.355 0.023 0 0zM17.093 28.809c0.039-0.484-0.469 0.36 0 0zM10.921 25.001c-0.087-0.255-0.449-0.011 0 0zM8.603 23.329c0.827-0.049-1.131-0.364 0 0zM5.856 21.553c-0.103-0.396-0.899-0.712 0 0zM13.067 26.133c-0.152-0.173-0.072 0.037 0 0zM17.555 28.887c-0.013-0.263-0.244 0.1 0 0zM12.669 25.723c0.080-0.34-0.705-0.103 0 0zM9.327 23.6c0.613-0.065-0.985-0.415 0 0zM14.983 27.116c0.957-0.38-0.933-0.187 0 0zM12.040 25.12c1.104 0.141-1.313-0.751-0.241-0.080zM15.876 27.477c1.031-0.616 0.691 1.443 1.748 0.173 1.043-0.76-0.9 0.943 0.385 0.137 0.929-0.623 2.303 0.293 3.169 0.593 0.624-0.031 1.231 0.54 1.871 0.193 1.231-0.333-2.408-0.493-1.453-1.080-1.127 0.327-1.96-0.392-2.513-1.113-1.264-0.292-2.725-0.937-3.356-2.056-0.256-0.42 0.372 0.059-0.221-0.627-0.761-0.677-1.141-1.447-1.653-2.269-0.609-0.325-0.68-1.284-0.743-0.032 0.005-0.791-0.737-1.323-0.919-1.101-0.003-0.761 0.795-0.38 0.236-0.943-0.12-0.789-0.516-1.612-0.635-2.503-0.184-0.429-0.027-1.348-0.631-0.376-0.22 1.027-0.073-1.263 0.269-0.507 0.449-0.772-0.16-0.68-0.187-0.573 0.293-0.651 0.187-1.573-0.076-1.221 0.156-0.689 0.247-2.536-0.233-2.208 0.291-0.72 0.552-3.297-0.712-2.315-0.512 0.007-1.397 0.187-1.817 0.395 1.315 0.724-0.132 0.261-0.667 0.147-0.069 0.669-0.6 0.38-1.261 0.387 1.057 0.131-0.515 1.080-1.121 0.712-0.787 0.376 0.68 1.316 0.016 1.607 0.081 0.437-1.207-0.159-1.107 0.853-0.764-0.321-0.104 1.2 0.279 0.685 1.3 0.352 0.915 1.155 0.948 1.916-0.212 0.444-1.047-1.044-0.187-0.975-0.677-1.103-0.749-0.399-1.313 0.113-0.132 0.037 1.439 0.729 0.453 1.071 0.867 0.133 0.891 0.893 1.067 1.373 0.521 0.543 0.415-0.6 1.039 0.053-0.395-0.581-2.089-1.637-0.725-1.299-0.007-0.585-0.247-1.057 0.172-1.045 0.413-0.749-0.433 1.849 0.5 0.896 0.257-0.113 0.321-0.751 0.787 0.060 0.673 0.664 0.243 1.144-0.708 0.537 0.169 0.577 1.272 0.783 1.065 1.687 0.22 0.793 0.527 0.501 0.795 0.456 0.211 0.771 0.329 0.204 0.34-0.164 0.961 0.207 0.736 0.775 1.037 1.173 0.663 0.299-0.949-2.029 0.189-0.701 1.197 1.081 0.449 1.533-0.627 1.36 0.68-0.055 0.9 0.92 1.751 0.885 0.776 0.369 1.301 1.787-0.036 1.196-0.464-0.417-2.105-0.933-0.764-0.139 1.239 0.573 2.221 0.917 3.416 1.636 0.853 0.611 1.224 1.309 1.547 1.448-0.717 0.343-2.164-0.275-1.089-0.464-0.671-0.121-1.424-0.46-0.783 0.373 0.547 0.457 1.933 0.408 2.183 0.46-0.212 0.464-0.573 0.501 0.008 0.537-0.648 0.347 0.208 0.4 0.268 0.596zM14.551 23.733c-0.395-0.413-0.497-1.187-0.071-0.513 0.219 0.088 0.7 1.263 0.071 0.513zM18.868 26.476c0.247-0.015 0.008 0.187 0 0zM13.927 22.721c-0.015-0.624 0.143 0.481 0 0zM13.497 22.144c-0.496-0.959 0.627 0.272 0 0zM8.297 18.555c0.291-0.079 0.143 0.499 0 0zM12.436 20.797c0.179-0.672 0.211 0.565 0 0zM9.512 18.764c-0.207-0.371 0.431 0.348 0 0zM12.021 19.569c-0.469-1.053 0.333-0.576 0.104 0.173zM7.693 16.683c-0.211-0.347-0.557-1.36-0.445-1.669 0.101 0.504 1.072 2.169 0.476 0.691-0.659-1.24 0.787 0.403 0.936 0.712 0.068 0.307-0.407-0.084-0.085 0.637-0.587-0.823-0.347 0.453-0.881-0.371zM6.356 15.761c0.055-0.804 0.307 0.551 0 0zM6.957 15.968c0.287-0.607 0.487 0.845 0 0zM5.511 14.848c-0.499-0.493-0.859-0.951 0.023-0.307 0.34 0.013-0.755-1.037 0.081-0.333 0.88 0.16 0.435 1.443-0.104 0.64zM6.271 14.828c0.289-0.287 0.153 0.283 0 0zM6.737 14.979c-0.437-0.823 0.533 0.344 0 0zM5.808 14.089c-1.448-1.288 1.82 0.675 0.236 0.24zM9.956 16.5c-0.627-0.376-0.165-2.645 0.048-1.093 0.609-0.197-0.033 0.801 0.42 0.792-0.071 0.631-0.275 0.857-0.468 0.301zM11.489 17.407c0.063-0.684 0.131 0.467 0 0zM11.223 17.143c0.071-0.292 0.008 0.344 0 0zM6.093 13.667c-0.929-1.284 2.703 1.297 0.596 0.325-0.22-0.057-0.485-0.079-0.596-0.325zM9.048 15.233c-0.088-1.080 0.196 0.179 0 0zM11.291 16.672c0.173-0.616 0.013 0.407 0 0zM6.235 13.176c0.553-0.117 2.291 0.972 0.695 0.312-0.177-0.197-0.556-0.107-0.695-0.312zM10.981 15.543c0.059-1.105 0.331-0.66 0.003 0.157zM6.647 12.792c0.225-0.331-0.599-1.493 0.119-0.417 0.309 0.247 0.896 0.413 0.377 0.516 0.815 0.719-0.199 0.195-0.496-0.099zM10.747 15.197c0.156-1.259 0.137 0.737 0 0zM6.176 11.629c0.172-0.073 0.091 0.229 0 0zM7.245 12.267c0.275-0.579 0.507 0.644 0 0zM10.263 13.945c-0.003-0.223 0.057 0.323 0 0zM10.088 13.559c-0.419-1.035 0.389 0.547 0 0zM9.831 12.88c-0.071-0.427 0.24 0.537 0 0zM10.249 12.2c-0.288-0.507 0.363-2.232 0.435-1.161-0.303 0.833-0.087 1.3 0.124 0.181 0.391-0.88-0.084 1.737-0.559 0.98zM10.679 9.635c0.125-0.153 0.028 0.185 0 0zM9.961 23.785c-0.171-0.148 0.021 0.095 0 0zM11.441 24.533c0.821 0.212 0.817-0.128 0.073-0.228-0.4-0.373-1.661-0.767-0.532-0.047 0.075 0.189 0.312 0.185 0.459 0.275zM8.519 22.593c0.453 0.337 1.707 0.959 0.645 0.128 0.359-0.416-0.685-0.637-0.339-0.915-0.88-0.539-0.693-0.491-0.077-0.475-1.059-0.472 0.152-0.437 0.095-0.68-0.408-0.080-2.027-0.719-1.073 0.053-0.968-0.493-0.231 0.184-0.523 0.112-0.991-0.269 0.88 0.753-0.157 0.5 0.567 0.449 1.528 1.152 0.24 0.476-0.171 0.244 0.921 0.613 1.189 0.8zM10.065 23.483c1.881 0.605-0.921-0.741 0 0zM17.985 28.28c0.027-0.373-0.256 0.32 0 0zM18.801 28.623c0.433-0.42 0.017 0.671 0.719-0.103 0.008-0.553-0.021-0.88-0.807-0.208-0.216 0.12-0.312 0.631 0.088 0.311zM5.877 20.507c-0.133-0.524-0.933-0.52 0 0zM6.747 21.077c-0.323-0.536-1.152-0.485 0 0zM11.693 24.060c0.483 0.428 2.217 0.315 0.587 0.053-0.243-0.359-1.535-0.272-0.587-0.053zM18.491 28.259c0.744-0.624-0.72 0.277 0 0zM20.037 29.32c0.004-0.2-0.32 0.088 0 0zM20.039 29.040c0.823-0.872-0.797 0.052 0 0zM3.74 18.717c-0.701-1-0.436-1.451-1.113-2.267-0.128-0.627-1.16-2.044-0.533-0.541 0.573 0.879 0.744 2.239 1.647 2.808zM19.78 28.763c1.515-0.979-0.62-0.427 0 0zM20.936 29.216c0.76-0.651-0.48-0.136 0 0zM5.62 19.4c0.217-0.323-0.56-0.041 0 0zM20.695 28.905c0.735-0.473-0.168-0.4-0.133 0.043zM10.733 22.627c-0.027-0.32-0.388 0.027 0 0zM11.348 22.981c-0.195-0.396-0.3 0.063 0 0zM21.873 29.227c0.94-0.68-0.571-0.131-0.197 0.128zM21.513 29.053c0.765-0.643-0.809 0.284 0 0zM23.353 30.277c0.515-0.344-0.625-0.111 0 0zM6.092 19.168c0.689 0.155 2.755 1.699 1.536 0.107-0.624-0.184-0.249-1.711-0.887-1.44 0.427 0.713 0.352 1.017-0.545 0.568-1.128-0.551-0.633 0.272-0.413 0.499-0.3 0.069 0.397 0.261 0.309 0.267zM2.951 16.688c0.123-0.511-1.137-2.809-0.595-1.152 0.195 0.347 0.175 1.005 0.595 1.152zM8.716 20.243c-0.355-0.297-0.017-0.043 0 0zM9.591 20.445c0-0.54-0.967-0.219 0 0zM17.167 25.223c-0.144-0.371-0.571-0.008 0 0zM17.531 25.488c-0.053-0.207-0.209 0.040 0 0zM20.535 27.38c0.288-0.213-0.36-0.027 0 0zM4.52 17.088c0.827-0.32-0.885-0.228 0 0zM16.5 24.636c-0.009-0.535-0.527 0.133 0 0zM4.193 16.328c0.531-0.18-0.491-0.119 0 0zM5.733 17.075c-0.009-0.177-0.163 0.067 0 0zM24.52 28.595c0.684-0.139 2.239 0.347 2.489-0.181-0.828-0.020-2.867-0.584-2.963 0.135l0.181 0.029zM6.224 17.197c0.012-0.543-0.423-0.020 0 0zM2.173 14.387c-0.184-1.033-0.7-0.157 0 0zM3.139 14.629c0.012-0.332-0.884-0.299 0 0zM3.691 14.9c-0.16-0.129-0.125 0.163 0 0zM7.164 17.127c0.163-0.149-0.387-0.111 0 0zM3.324 14.289c-0.093-0.78-1.12-0.117 0 0zM1.343 13.004c-0.027-0.36-0.192 0.136 0 0zM1.637 12.781c-0.048-0.427-0.253 0.053 0 0zM3.264 13.753c0.689-0.271-1.253-0.56-0.14-0.052zM25.043 27.205c0.44-0.404-0.56-0.125 0 0zM27.675 28.569c0.176-0.523-0.445 0.068 0 0zM3.431 12.901c0.073-0.505-0.545 0.1 0 0zM1.116 11.351c-0.124-0.713-0.107-1.965 1.083-1.541-1.588 0.315 1.099 1.973 0.76 0.664 0.667 0.032 1.307-0.395 0.955 0.253 1.316-0.145 2.228-1.285 3.499-1.127 0.989-0.131 2.072-0.229 3.139-0.628 0.877-0.064 1.721-1.008 1.24-1.567-1.195-0.101-2.447 0.048-3.769 0.311-1.464 0.304-2.795 0.883-4.273 1.132-1.44 0.193 0.289 0.533-0.123 0.608-0.752 0.261 0.896 0.437-0.097 0.712-0.613-0.117-1.253-0.328-0.991-0.973-1.38 0.177-2.593 0.751-1.503 2.155zM4.441 9.657c0.324-1.192 1.733 0.98 0.531 0.157-0.144-0.107-0.38-0.195-0.531-0.157zM4.504 9.079c0.467-0.347 0.248 0.195 0 0zM5.097 9.089c0.043-0.548 1.357 0.291 0.217 0.197zM5.908 8.763c0.296-0.347 0.085 0.308 0 0zM6.116 8.624c0.493-0.592 2.793-0.377 1.109-0.057-0.451-0.34-0.797 0.2-1.109 0.057zM9.117 8.161c-0.075-1.619 1.491 0.576 0 0zM9.969 8.156c0.311-0.816 1.208-0.327 0.144-0.164 0.023 0.087-0.032 0.421-0.144 0.164zM3.096 12.483c0.929-0.569-0.988-0.493 0 0zM3.783 12.675c0.327-0.347-0.708-0.141 0 0zM1.756 11.235c0.532-0.407-0.628-0.155 0 0zM29.227 28.421c0.016-0.473-0.405 0.213 0 0zM26.436 26.516c0.080-0.545-0.36 0.048 0 0zM29.996 28.605c0.743 0 2.251-0.231 0.633-0.231-0.253 0.040-1.479 0.032-0.633 0.231zM4.387 12.339c0.601-0.040 0.941-0.663-0.116-0.627-1.64-0.169 1.445 0.56-0.211 0.352-0.223 0.147 0.315 0.316 0.327 0.275zM4.917 12.608c-0.064-0.387-0.187 0.205 0 0zM5.544 10.932c0.263-0.324-0.36-0.087 0 0zM3.544 7.588c1.075-0.365 2.543-0.775 3.049 0.18-0.516-0.621-0.208-1.232 0.28-0.324 0.688 0.919 1.033-0.417 0.584-0.727 0.511 0.635 1.092 0.935 0.343 0.040 0.813-0.979-1.631 0.129-2.187 0.117-0.267 0.12-2.761 0.636-2.069 0.713zM4.173 6.384c0.613-0.463 2.117 0.275 1.152-0.46-0.093-0.083-2.115 0.557-1.152 0.46zM6.405 6.476c0.717 0.017-0.308-0.963 0.545-0.519-0.14-0.459-0.995-0.544-1.412-0.727-0.236 0.419 0.48 1.251 0.867 1.245zM4.565 4.449c0.248-0.336-0.435 0.171 0 0zM5.477 4.668c1.155-0.153-0.293-0.497-0.232-0.013zM3.775 3.335c-0.813-1.061 1.528 0.179 0.703-0.933-0.696-0.553-1.364 0.624-0.703 0.933zM14.208 8.955c0.373-0.661-1.54-0.891-0.251-0.233 0.119 0.040 0.092 0.28 0.251 0.233z">
			</path>
		</symbol>
		<symbol id="icon-php" viewBox="0 0 32 32">
			<path
				d="M9.347 13.609h-1.259l-0.687 3.531h1.117c0.741 0 1.293-0.14 1.656-0.419 0.363-0.28 0.607-0.745 0.733-1.399 0.123-0.627 0.067-1.069-0.165-1.327-0.233-0.257-0.697-0.387-1.396-0.387zM16 7.584c-8.836 0-16 3.768-16 8.416s7.164 8.417 16 8.417 16-3.769 16-8.417-7.164-8.416-16-8.416zM11.653 17.519c-0.348 0.333-0.767 0.584-1.223 0.735-0.448 0.144-1.020 0.219-1.713 0.219h-1.575l-0.436 2.241h-1.837l1.64-8.435h3.533c1.063 0 1.837 0.279 2.325 0.837 0.488 0.557 0.635 1.336 0.44 2.336-0.082 0.425-0.223 0.803-0.416 1.148l0.010-0.019c-0.191 0.34-0.44 0.653-0.748 0.937zM17.019 18.472l0.724-3.732c0.084-0.424 0.052-0.715-0.091-0.868-0.143-0.155-0.448-0.232-0.916-0.232h-1.456l-0.939 4.833h-1.824l1.64-8.436h1.823l-0.436 2.243h1.624c1.023 0 1.727 0.179 2.115 0.535s0.504 0.933 0.351 1.732l-0.763 3.925zM27.148 15.452c-0.080 0.425-0.221 0.803-0.416 1.148l0.010-0.018c-0.191 0.34-0.44 0.653-0.748 0.937-0.338 0.323-0.746 0.574-1.2 0.728l-0.023 0.007c-0.448 0.144-1.020 0.219-1.715 0.219h-1.573l-0.436 2.243h-1.837l1.64-8.435h3.532c1.063 0 1.837 0.279 2.325 0.837 0.488 0.556 0.636 1.335 0.441 2.335zM23.688 13.609h-1.257l-0.688 3.531h1.117c0.743 0 1.295-0.14 1.656-0.419 0.363-0.28 0.607-0.745 0.735-1.399 0.123-0.627 0.065-1.069-0.167-1.327s-0.699-0.387-1.396-0.387z">
			</path>
		</symbol>
		<symbol id="icon-mysql" viewBox="0 0 32 32">
			<path
				d="M21.873 7.568c-0.153 0-0.257 0.019-0.365 0.044v0.017h0.019c0.072 0.139 0.195 0.24 0.285 0.364 0.072 0.143 0.133 0.285 0.205 0.427l0.019-0.020c0.125-0.088 0.187-0.229 0.187-0.444-0.053-0.063-0.061-0.125-0.107-0.187-0.053-0.089-0.168-0.133-0.243-0.201zM7.693 25.16h-1.236c-0.040-2.083-0.164-4.040-0.36-5.88h-0.011l-1.88 5.88h-0.94l-1.867-5.88h-0.013c-0.137 1.764-0.224 3.724-0.26 5.88h-1.127c0.073-2.621 0.256-5.080 0.547-7.373h1.533l1.78 5.419h0.011l1.796-5.419h1.46c0.323 2.687 0.512 5.147 0.567 7.373zM13.049 19.72c-0.504 2.727-1.168 4.711-1.989 5.947-0.643 0.955-1.347 1.431-2.111 1.431-0.204 0-0.453-0.061-0.755-0.184v-0.659c0.147 0.023 0.32 0.035 0.515 0.035 0.357 0 0.644-0.1 0.863-0.296 0.263-0.24 0.393-0.509 0.393-0.807 0-0.207-0.103-0.627-0.307-1.259l-1.352-4.208h1.213l0.969 3.147c0.219 0.715 0.311 1.213 0.273 1.497 0.533-1.419 0.904-2.969 1.113-4.644zM29.483 25.16h-3.507v-7.373h1.18v6.467h2.327zM25.056 25.34l-1.355-0.667c0.12-0.101 0.236-0.211 0.34-0.333 0.577-0.675 0.864-1.677 0.864-3.004 0-2.44-0.957-3.661-2.873-3.661-0.939 0-1.672 0.309-2.2 0.929-0.573 0.677-0.861 1.675-0.861 2.993 0 1.296 0.253 2.248 0.765 2.853 0.467 0.547 1.169 0.82 2.111 0.82 0.352 0 0.675-0.044 0.967-0.131l1.767 1.029zM20.667 23.684c-0.3-0.48-0.449-1.253-0.449-2.315 0-1.857 0.565-2.787 1.693-2.787 0.591 0 1.027 0.223 1.303 0.667 0.299 0.483 0.448 1.248 0.448 2.297 0 1.872-0.565 2.811-1.693 2.811-0.593 0-1.027-0.223-1.301-0.673zM18.456 23.117c0 0.627-0.229 1.141-0.688 1.541s-1.071 0.6-1.845 0.6c-0.724 0-1.419-0.229-2.097-0.687l0.316-0.635c0.584 0.293 1.111 0.437 1.587 0.437 0.443 0 0.791-0.097 1.044-0.293 0.251-0.196 0.4-0.472 0.4-0.82 0-0.44-0.307-0.813-0.864-1.127-0.517-0.284-1.551-0.876-1.551-0.876-0.563-0.409-0.843-0.848-0.843-1.569 0-0.6 0.209-1.080 0.627-1.447 0.42-0.371 0.96-0.553 1.627-0.553 0.683 0 1.307 0.181 1.867 0.547l-0.284 0.635c-0.48-0.203-0.953-0.307-1.419-0.307-0.377 0-0.669 0.091-0.872 0.275-0.204 0.181-0.331 0.413-0.331 0.699 0 0.437 0.312 0.813 0.888 1.133 0.524 0.287 1.583 0.893 1.583 0.893 0.577 0.407 0.864 0.84 0.856 1.553zM30.965 15.315c-0.713-0.019-1.267 0.053-1.729 0.251-0.133 0.053-0.347 0.053-0.365 0.223 0.073 0.071 0.084 0.187 0.147 0.285 0.107 0.179 0.291 0.417 0.461 0.543 0.187 0.147 0.373 0.288 0.569 0.413 0.347 0.213 0.74 0.34 1.080 0.555 0.193 0.125 0.391 0.284 0.587 0.417 0.097 0.067 0.16 0.187 0.285 0.229v-0.027c-0.061-0.080-0.080-0.196-0.14-0.285-0.089-0.089-0.179-0.169-0.267-0.257-0.259-0.347-0.58-0.649-0.927-0.9-0.285-0.195-0.909-0.467-1.027-0.793l-0.017-0.019c0.195-0.017 0.427-0.088 0.613-0.141 0.303-0.080 0.58-0.063 0.893-0.141 0.141-0.036 0.284-0.080 0.427-0.125v-0.080c-0.16-0.16-0.28-0.377-0.445-0.527-0.453-0.393-0.956-0.776-1.472-1.097-0.28-0.179-0.635-0.293-0.929-0.445-0.107-0.053-0.285-0.080-0.347-0.169-0.16-0.195-0.253-0.453-0.367-0.685-0.256-0.491-0.507-1.033-0.729-1.551-0.16-0.349-0.257-0.697-0.453-1.017-0.92-1.516-1.916-2.435-3.448-3.333-0.329-0.187-0.724-0.267-1.141-0.365-0.223-0.011-0.445-0.027-0.667-0.036-0.147-0.063-0.288-0.232-0.413-0.313-0.507-0.32-1.819-1.013-2.192-0.096-0.24 0.579 0.356 1.149 0.563 1.443 0.153 0.204 0.347 0.437 0.453 0.667 0.063 0.155 0.080 0.313 0.143 0.475 0.141 0.392 0.276 0.829 0.463 1.196 0.097 0.187 0.204 0.383 0.329 0.551 0.072 0.097 0.195 0.143 0.223 0.303-0.125 0.181-0.133 0.445-0.205 0.667-0.32 1.009-0.195 2.257 0.259 3 0.143 0.221 0.483 0.712 0.937 0.524 0.4-0.16 0.312-0.667 0.427-1.113 0.027-0.107 0.009-0.177 0.064-0.249v0.020c0.125 0.251 0.251 0.489 0.365 0.74 0.275 0.437 0.755 0.891 1.156 1.193 0.213 0.16 0.383 0.437 0.649 0.536v-0.027h-0.020c-0.057-0.077-0.133-0.115-0.205-0.177-0.16-0.16-0.34-0.356-0.467-0.533-0.373-0.503-0.703-1.053-0.996-1.624-0.147-0.28-0.269-0.581-0.387-0.857-0.053-0.107-0.053-0.267-0.143-0.32-0.133 0.195-0.329 0.364-0.427 0.604-0.169 0.384-0.187 0.856-0.251 1.347-0.036 0.009-0.019 0-0.036 0.019-0.285-0.069-0.383-0.365-0.489-0.613-0.267-0.633-0.311-1.651-0.080-2.38 0.063-0.187 0.329-0.776 0.223-0.955-0.056-0.169-0.232-0.267-0.329-0.404-0.116-0.165-0.24-0.38-0.32-0.569-0.213-0.499-0.32-1.051-0.552-1.549-0.107-0.231-0.293-0.472-0.445-0.684-0.169-0.24-0.356-0.409-0.491-0.693-0.044-0.097-0.107-0.259-0.036-0.365 0.019-0.072 0.056-0.1 0.125-0.12 0.117-0.096 0.447 0.029 0.563 0.083 0.329 0.133 0.607 0.259 0.883 0.445 0.125 0.088 0.26 0.257 0.42 0.301h0.187c0.285 0.063 0.607 0.019 0.873 0.097 0.473 0.152 0.9 0.373 1.283 0.613 1.168 0.741 2.128 1.793 2.78 3.048 0.107 0.205 0.153 0.393 0.251 0.607 0.187 0.44 0.417 0.884 0.607 1.309 0.187 0.42 0.367 0.848 0.635 1.196 0.133 0.187 0.669 0.284 0.909 0.381 0.177 0.080 0.453 0.153 0.613 0.251 0.307 0.187 0.605 0.4 0.893 0.605 0.147 0.101 0.591 0.324 0.617 0.504z">
			</path>
		</symbol>
		<symbol id="icon-postgresql" viewBox="0 0 32 32">
			<path
				d="M22.837 0c-1.312 0.010-2.575 0.206-3.769 0.562l0.096-0.024-0.084 0.027c-0.677-0.126-1.464-0.205-2.267-0.22l-0.013-0c-1.571-0.027-2.92 0.355-4.008 0.989-1.072-0.372-3.296-1.013-5.64-0.885-1.632 0.089-3.413 0.585-4.733 1.979-1.316 1.393-2.012 3.549-1.865 6.483 0.040 0.809 0.271 2.129 0.653 3.839s0.92 3.711 1.591 5.536c0.671 1.827 1.405 3.467 2.553 4.581 0.573 0.559 1.363 1.028 2.293 0.989 0.653-0.027 1.244-0.313 1.753-0.736 0.248 0.327 0.513 0.469 0.755 0.601 0.304 0.167 0.6 0.28 0.907 0.355 0.551 0.137 1.493 0.321 2.597 0.133 0.376-0.063 0.772-0.185 1.167-0.36 0.015 0.44 0.032 0.871 0.049 1.307 0.055 1.381 0.089 2.657 0.504 3.776 0.067 0.183 0.249 1.124 0.969 1.955 0.72 0.832 2.131 1.351 3.737 1.007 1.133-0.243 2.575-0.68 3.532-2.043 0.947-1.347 1.373-3.279 1.457-6.412 0.021-0.169 0.047-0.313 0.073-0.448l0.225 0.020h0.027c1.209 0.055 2.521-0.117 3.617-0.627 0.971-0.449 1.705-0.904 2.24-1.711 0.133-0.2 0.28-0.441 0.32-0.857s-0.199-1.067-0.595-1.367c-0.793-0.603-1.292-0.373-1.827-0.263-0.476 0.11-1.027 0.18-1.592 0.194l-0.010 0c1.541-2.596 2.647-5.353 3.277-7.793 0.373-1.44 0.583-2.768 0.6-3.929s-0.077-2.189-0.773-3.079c-2.175-2.779-5.232-3.547-7.597-3.573-0.073-0.001-0.147-0.003-0.22-0.005zM22.775 0.853c2.237-0.021 5.096 0.607 7.148 3.229 0.461 0.589 0.599 1.451 0.583 2.512-0.017 1.060-0.213 2.329-0.572 3.72-0.696 2.693-2.011 5.833-3.863 8.651 0.061 0.044 0.13 0.082 0.204 0.112l0.007 0.002c0.387 0.16 1.268 0.297 3.027-0.064 0.443-0.093 0.767-0.156 1.103 0.1 0.15 0.128 0.245 0.317 0.245 0.529 0 0.013-0 0.026-0.001 0.040l0-0.002c-0.019 0.17-0.081 0.323-0.175 0.451l0.002-0.003c-0.34 0.511-1.011 0.995-1.871 1.393-0.761 0.355-1.853 0.54-2.821 0.551-0.485 0.005-0.933-0.032-1.313-0.151l-0.024-0.009c-0.147 1.413-0.484 4.204-0.704 5.477-0.176 1.027-0.484 1.843-1.072 2.453-0.587 0.611-1.417 0.979-2.535 1.219-1.384 0.297-2.393-0.023-3.044-0.571-0.649-0.547-0.947-1.272-1.125-1.716-0.123-0.307-0.187-0.704-0.248-1.235s-0.107-1.18-0.137-1.912c-0.029-0.745-0.045-1.619-0.045-2.497 0-0.305 0.002-0.609 0.006-0.913l-0 0.046c-0.558 0.512-1.263 0.872-2.045 1.010l-0.024 0.004c-0.919 0.156-1.739 0.003-2.228-0.12-0.264-0.067-0.494-0.159-0.709-0.276l0.016 0.008c-0.227-0.121-0.443-0.259-0.587-0.529-0.057-0.103-0.091-0.227-0.091-0.358 0-0.053 0.006-0.105 0.016-0.155l-0.001 0.005c0.047-0.18 0.15-0.332 0.289-0.44l0.002-0.001c0.264-0.215 0.613-0.335 1.14-0.444 0.959-0.197 1.293-0.332 1.497-0.493 0.173-0.139 0.369-0.419 0.716-0.829-0.001-0.013-0.003-0.032-0.004-0.051l-0-0.004c-0.653-0.019-1.261-0.193-1.794-0.488l0.020 0.010c-0.2 0.211-1.221 1.291-2.467 2.789-0.524 0.627-1.103 0.987-1.713 1.012-0.611 0.027-1.163-0.281-1.632-0.736-0.937-0.911-1.685-2.477-2.337-4.248-0.651-1.771-1.18-3.743-1.556-5.423-0.377-1.68-0.6-3.035-0.632-3.688-0.14-2.776 0.509-4.647 1.623-5.827 1.115-1.18 2.643-1.627 4.132-1.712 2.673-0.153 5.212 0.779 5.725 0.979 0.989-0.672 2.264-1.091 3.856-1.064 0.801 0.012 1.572 0.117 2.31 0.305l-0.068-0.015 0.027-0.012c0.257-0.095 0.587-0.194 0.923-0.273l0.062-0.012c0.825-0.202 1.776-0.324 2.754-0.337l0.009-0zM22.977 1.747h-0.195c-0.811 0.012-1.594 0.104-2.349 0.27l0.077-0.014c1.661 0.736 2.916 1.869 3.8 3 0.585 0.739 1.091 1.583 1.481 2.487l0.028 0.073c0.147 0.352 0.245 0.649 0.301 0.88 0.028 0.116 0.047 0.213 0.053 0.315 0.003 0.051 0.005 0.103-0.016 0.192 0 0.004-0.007 0.013-0.008 0.017 0.040 1.168-0.249 1.96-0.284 3.075-0.027 0.808 0.18 1.757 0.231 2.793 0.048 0.973-0.069 2.043-0.701 3.092 0.053 0.064 0.101 0.128 0.152 0.192 1.672-2.633 2.877-5.547 3.52-8.031 0.344-1.337 0.527-2.549 0.543-3.509 0.013-0.96-0.165-1.656-0.393-1.947-1.789-2.288-4.211-2.871-6.24-2.885zM16.591 2.088c-1.576 0.004-2.707 0.48-3.564 1.193-0.884 0.737-1.477 1.747-1.867 2.78-0.463 1.227-0.621 2.413-0.684 3.219l0.017-0.011c0.476-0.267 1.101-0.533 1.771-0.688 0.669-0.153 1.391-0.201 2.044 0.052s1.193 0.849 1.389 1.753c0.939 4.343-0.292 5.957-0.745 7.176-0.144 0.351-0.295 0.801-0.42 1.261l-0.021 0.090c0.057-0.013 0.115-0.029 0.172-0.035 0.32-0.027 0.571 0.080 0.72 0.144 0.456 0.189 0.769 0.587 0.939 1.040 0.044 0.119 0.076 0.247 0.095 0.379 0.017 0.046 0.027 0.098 0.027 0.153 0 0.006-0 0.011-0 0.017l0-0.001c-0.022 0.666-0.034 1.45-0.034 2.236 0 0.966 0.019 1.928 0.056 2.885l-0.004-0.138c0.031 0.717 0.076 1.349 0.133 1.848 0.057 0.497 0.139 0.876 0.191 1.004 0.171 0.427 0.42 0.985 0.871 1.365 0.451 0.379 1.097 0.632 2.279 0.379 1.024-0.22 1.656-0.525 2.079-0.964 0.421-0.439 0.673-1.049 0.835-1.984 0.241-1.4 0.727-5.46 0.785-6.224-0.027-0.576 0.059-1.019 0.243-1.356 0.189-0.347 0.483-0.559 0.736-0.673 0.127-0.057 0.245-0.096 0.343-0.124-0.119-0.17-0.225-0.311-0.336-0.448l0.012 0.015c-0.35-0.422-0.648-0.905-0.873-1.427l-0.015-0.039c-0.136-0.279-0.25-0.49-0.371-0.697l0.028 0.052c-0.177-0.32-0.401-0.72-0.636-1.169-0.469-0.9-0.98-1.991-1.245-3.053-0.264-1.061-0.303-2.16 0.375-2.935 0.6-0.688 1.653-0.973 3.235-0.813-0.047-0.14-0.075-0.256-0.153-0.443-0.386-0.898-0.851-1.672-1.405-2.374l0.017 0.022c-1.34-1.713-3.509-3.412-6.861-3.467zM7.735 2.157c-0.169 0-0.339 0.005-0.507 0.015-1.347 0.077-2.62 0.468-3.531 1.433-0.912 0.965-1.512 2.548-1.381 5.168 0.025 0.496 0.241 1.885 0.612 3.536 0.369 1.651 0.893 3.593 1.523 5.309 0.631 1.716 1.395 3.209 2.12 3.916 0.365 0.353 0.683 0.496 0.971 0.484 0.289-0.013 0.637-0.18 1.063-0.691 0.836-1.006 1.625-1.895 2.44-2.759l-0.026 0.028c-0.986-0.86-1.606-2.118-1.606-3.521 0-0.24 0.018-0.475 0.053-0.705l-0.003 0.026c0.137-0.985 0.156-1.907 0.14-2.635-0.016-0.709-0.067-1.181-0.067-1.476-0-0.004-0-0.008-0-0.013s0-0.009 0-0.013v0.001-0.007l-0.001-0.008v-0.001c0-0.002 0-0.004 0-0.007 0-1.613 0.289-3.158 0.819-4.586l-0.030 0.091c0.373-0.992 0.929-2 1.763-2.816-0.819-0.269-2.272-0.68-3.845-0.757-0.15-0.008-0.327-0.013-0.505-0.013h-0.001zM24.265 9.2c-0.905 0.012-1.413 0.245-1.68 0.551-0.377 0.433-0.413 1.193-0.179 2.129 0.233 0.937 0.716 1.985 1.169 2.856 0.227 0.436 0.447 0.828 0.624 1.147 0.179 0.32 0.309 0.547 0.389 0.74 0.073 0.179 0.155 0.336 0.237 0.483 0.351-0.74 0.413-1.467 0.377-2.224-0.047-0.937-0.264-1.896-0.232-2.867 0.036-1.135 0.26-1.873 0.28-2.751-0.296-0.040-0.639-0.064-0.986-0.064h-0zM13.287 9.353c-0.293 0.003-0.576 0.039-0.847 0.104l0.026-0.005c-0.583 0.144-1.095 0.349-1.569 0.615l0.031-0.016c-0.177 0.096-0.33 0.197-0.472 0.309l0.007-0.005-0.029 0.027c0.008 0.195 0.047 0.667 0.063 1.361 0.016 0.76-0.003 1.729-0.149 2.779-0.319 2.28 1.336 4.168 3.28 4.171 0.113-0.468 0.3-0.943 0.487-1.443 0.541-1.459 1.607-2.523 0.709-6.675-0.147-0.68-0.437-0.955-0.837-1.109-0.195-0.071-0.42-0.112-0.655-0.112-0.015 0-0.030 0-0.046 0.001l0.002-0zM23.843 9.625h0.067c0.088 0.003 0.169 0.012 0.24 0.029 0.072 0.016 0.133 0.040 0.184 0.073s0.088 0.084 0.1 0.145l0 0.001-0.001 0.011c0 0.004 0 0.009 0 0.013 0 0.062-0.017 0.119-0.048 0.168l0.001-0.001c-0.041 0.076-0.090 0.142-0.147 0.2l0-0c-0.132 0.145-0.309 0.246-0.509 0.282l-0.005 0.001c-0.028 0.004-0.061 0.006-0.094 0.006-0.169 0-0.326-0.054-0.455-0.145l0.002 0.002c-0.066-0.045-0.123-0.097-0.172-0.156l-0.001-0.001c-0.042-0.046-0.071-0.103-0.084-0.167l-0-0.002c-0.001-0.006-0.001-0.013-0.001-0.020 0-0.058 0.022-0.11 0.057-0.15l-0 0c0.043-0.049 0.095-0.089 0.153-0.119l0.003-0.001c0.128-0.072 0.301-0.125 0.497-0.155 0.073-0.011 0.145-0.016 0.213-0.013zM13.416 9.849c0.071 0 0.145 0.007 0.221 0.017 0.204 0.028 0.385 0.083 0.524 0.163 0.069 0.037 0.128 0.084 0.177 0.141l0.001 0.001c0.046 0.052 0.074 0.121 0.074 0.196 0 0.011-0.001 0.022-0.002 0.032l0-0.001c-0.014 0.080-0.049 0.15-0.1 0.206l0-0c-0.055 0.067-0.117 0.124-0.188 0.171l-0.003 0.002c-0.137 0.098-0.308 0.157-0.493 0.157-0.037 0-0.073-0.002-0.108-0.007l0.004 0c-0.223-0.038-0.417-0.147-0.559-0.303l-0.001-0.001c-0.061-0.063-0.113-0.135-0.155-0.214l-0.002-0.005c-0.036-0.056-0.057-0.124-0.057-0.198 0-0.014 0.001-0.027 0.002-0.040l-0 0.002c0.020-0.144 0.139-0.219 0.255-0.26 0.109-0.038 0.235-0.060 0.366-0.060 0.016 0 0.031 0 0.047 0.001l-0.002-0zM25.496 19.64l-0.004 0.001c-0.196 0.071-0.357 0.1-0.493 0.16-0.139 0.055-0.25 0.155-0.317 0.282l-0.002 0.003c-0.084 0.153-0.156 0.425-0.135 0.888 0.057 0.039 0.122 0.071 0.193 0.092l0.005 0.001c0.228 0.069 0.611 0.115 1.037 0.108 0.851-0.009 1.897-0.208 2.453-0.467 0.481-0.226 0.895-0.5 1.263-0.825l-0.006 0.005h-0.001c-1.857 0.384-2.907 0.281-3.551 0.016-0.169-0.071-0.315-0.16-0.446-0.268l0.003 0.002zM14.788 19.765h-0.028c-0.071 0.007-0.173 0.031-0.372 0.251-0.464 0.52-0.627 0.847-1.009 1.152-0.383 0.304-0.88 0.467-1.873 0.671-0.315 0.064-0.495 0.135-0.615 0.192 0.039 0.032 0.035 0.040 0.093 0.071 0.145 0.080 0.332 0.151 0.483 0.189 0.427 0.107 1.128 0.231 1.86 0.107 0.732-0.125 1.493-0.476 2.143-1.387 0.112-0.157 0.124-0.389 0.032-0.639-0.093-0.249-0.297-0.464-0.441-0.524-0.079-0.040-0.171-0.069-0.268-0.082l-0.005-0z">
			</path>
		</symbol>
		<symbol id="icon-amazonaws" viewBox="0 0 32 32">
			<path
				d="M9.017 13.381c0 0.395 0.043 0.713 0.117 0.947 0.085 0.235 0.192 0.491 0.341 0.768 0.053 0.084 0.075 0.169 0.075 0.244 0 0.107-0.064 0.213-0.203 0.32l-0.671 0.447c-0.077 0.056-0.173 0.091-0.276 0.096l-0.001 0c-0.107 0-0.213-0.053-0.319-0.149-0.138-0.148-0.264-0.312-0.375-0.486l-0.008-0.014c-0.098-0.162-0.208-0.368-0.309-0.579l-0.021-0.049c-0.829 0.979-1.873 1.468-3.129 1.468-0.893 0-1.607-0.255-2.128-0.765-0.521-0.512-0.787-1.192-0.787-2.044 0-0.904 0.319-1.64 0.968-2.192 0.649-0.553 1.511-0.831 2.607-0.831 0.363 0 0.735 0.032 1.128 0.085 0.395 0.053 0.8 0.139 1.224 0.235v-0.777c0-0.809-0.169-1.373-0.5-1.703-0.34-0.331-0.915-0.489-1.733-0.489-0.373 0-0.757 0.041-1.151 0.137s-0.777 0.213-1.149 0.363c-0.101 0.047-0.224 0.094-0.352 0.133l-0.022 0.006c-0.050 0.017-0.108 0.028-0.168 0.031l-0.002 0c-0.149 0-0.224-0.107-0.224-0.329v-0.521c0-0.171 0.021-0.299 0.075-0.373 0.080-0.095 0.18-0.171 0.294-0.221l0.005-0.002c0.372-0.192 0.819-0.352 1.34-0.48 0.48-0.128 1.032-0.202 1.601-0.202 0.021 0 0.043 0 0.064 0l-0.003-0c1.267 0 2.192 0.288 2.788 0.863 0.585 0.573 0.883 1.447 0.883 2.617zM4.697 15c0.351 0 0.712-0.064 1.096-0.192 0.383-0.128 0.724-0.361 1.011-0.68 0.171-0.203 0.299-0.427 0.363-0.683 0.063-0.255 0.107-0.564 0.107-0.925v-0.447c-0.264-0.069-0.597-0.132-0.935-0.177l-0.045-0.005c-0.3-0.040-0.647-0.063-0.999-0.064h-0.001c-0.713 0-1.235 0.139-1.587 0.427-0.351 0.287-0.52 0.691-0.52 1.223 0 0.5 0.127 0.873 0.393 1.128 0.255 0.267 0.627 0.395 1.117 0.395zM13.244 16.149c-0.192 0-0.32-0.032-0.405-0.107-0.085-0.064-0.16-0.213-0.224-0.415l-2.5-8.228c-0.045-0.124-0.079-0.269-0.095-0.418l-0.001-0.008c0-0.171 0.085-0.267 0.255-0.267h1.044c0.201 0 0.34 0.033 0.413 0.107 0.087 0.064 0.151 0.213 0.213 0.416l1.789 7.045 1.66-7.045c0.053-0.213 0.117-0.352 0.201-0.416 0.109-0.068 0.241-0.108 0.383-0.108 0.015 0 0.031 0 0.046 0.001l-0.002-0h0.851c0.203 0 0.341 0.033 0.427 0.107 0.084 0.064 0.16 0.213 0.201 0.416l1.681 7.131 1.841-7.131c0.064-0.213 0.139-0.352 0.213-0.416 0.105-0.068 0.234-0.108 0.372-0.108 0.015 0 0.030 0 0.045 0.001l-0.002-0h0.991c0.169 0 0.267 0.087 0.267 0.267 0 0.053-0.012 0.107-0.023 0.171-0.019 0.102-0.045 0.191-0.078 0.277l0.004-0.010-2.564 8.227c-0.064 0.213-0.139 0.351-0.224 0.415-0.104 0.067-0.231 0.108-0.367 0.108-0.013 0-0.026-0-0.039-0.001l0.002 0h-0.916c-0.201 0-0.34-0.032-0.427-0.107-0.084-0.075-0.159-0.213-0.2-0.427l-1.651-6.864-1.64 6.853c-0.053 0.213-0.116 0.352-0.2 0.427-0.087 0.075-0.236 0.107-0.427 0.107zM26.919 16.436c-0.553 0-1.107-0.064-1.639-0.191-0.532-0.128-0.947-0.267-1.224-0.427-0.171-0.095-0.287-0.201-0.329-0.297-0.040-0.088-0.063-0.19-0.064-0.298v-0.543c0-0.223 0.085-0.329 0.244-0.329 0.064 0 0.128 0.011 0.192 0.032s0.16 0.064 0.267 0.107c0.361 0.16 0.755 0.287 1.171 0.372 0.425 0.085 0.84 0.128 1.267 0.128 0.669 0 1.192-0.117 1.553-0.352 0.334-0.204 0.554-0.567 0.554-0.981 0-0.010-0-0.021-0-0.031l0 0.002c0-0.009 0-0.019 0-0.030 0-0.278-0.109-0.53-0.287-0.716l0 0c-0.192-0.201-0.555-0.383-1.076-0.553l-1.543-0.48c-0.777-0.244-1.352-0.605-1.703-1.084-0.33-0.422-0.53-0.959-0.533-1.543v-0.001c0-0.447 0.097-0.84 0.288-1.181 0.192-0.34 0.447-0.639 0.767-0.872 0.32-0.245 0.68-0.427 1.107-0.553 0.427-0.128 0.873-0.181 1.341-0.181 0.233 0 0.479 0.011 0.713 0.043 0.244 0.032 0.467 0.075 0.691 0.117 0.213 0.053 0.416 0.107 0.607 0.169 0.192 0.064 0.341 0.128 0.448 0.192 0.128 0.065 0.235 0.155 0.318 0.264l0.002 0.002c0.060 0.089 0.096 0.199 0.096 0.317 0 0.012-0 0.024-0.001 0.035l0-0.002v0.5c0 0.224-0.085 0.341-0.245 0.341-0.151-0.018-0.287-0.063-0.41-0.131l0.006 0.003c-0.579-0.262-1.255-0.415-1.968-0.415-0.026 0-0.053 0-0.079 0.001l0.004-0c-0.607 0-1.087 0.095-1.416 0.297-0.331 0.203-0.5 0.511-0.5 0.947 0 0.299 0.107 0.555 0.32 0.756 0.212 0.203 0.605 0.405 1.169 0.587l1.512 0.477c0.765 0.245 1.32 0.587 1.649 1.023s0.489 0.936 0.489 1.489c0 0.457-0.096 0.873-0.276 1.235-0.192 0.363-0.448 0.681-0.777 0.937-0.331 0.267-0.724 0.457-1.181 0.596-0.48 0.148-0.979 0.223-1.523 0.223zM28.931 21.609c-3.501 2.587-8.589 3.959-12.963 3.959-6.131 0-11.653-2.267-15.827-6.035-0.329-0.297-0.032-0.703 0.363-0.468 4.512 2.617 10.079 4.204 15.836 4.204 3.885 0 8.152-0.809 12.080-2.469 0.585-0.267 1.085 0.383 0.511 0.809zM30.389 19.948c-0.448-0.573-2.96-0.276-4.099-0.137-0.34 0.043-0.393-0.256-0.084-0.48 2-1.404 5.289-1 5.672-0.532 0.383 0.48-0.107 3.768-1.98 5.343-0.287 0.245-0.564 0.117-0.436-0.201 0.427-1.053 1.373-3.427 0.927-3.992z">
			</path>
		</symbol>
		<symbol id="icon-docker" viewBox="0 0 32 32">
			<path
				d="M6.427 23.033c-0.912 0-1.739-0.747-1.739-1.653s0.747-1.657 1.74-1.657c0.997 0 1.747 0.747 1.747 1.656s-0.829 1.653-1.748 1.655zM27.776 14.016c-0.18-1.323-1-2.4-2.080-3.227l-0.42-0.333-0.339 0.413c-0.659 0.747-0.92 2.071-0.84 3.060 0.080 0.749 0.32 1.493 0.739 2.072-0.339 0.173-0.757 0.333-1.080 0.503-0.76 0.249-1.499 0.333-2.24 0.333h-21.387l-0.080 0.493c-0.16 1.576 0.080 3.227 0.749 4.72l0.325 0.58v0.080c2 3.311 5.56 4.8 9.437 4.8 7.459 0 13.576-3.227 16.476-10.177 1.9 0.083 3.819-0.413 4.72-2.235l0.24-0.413-0.4-0.249c-1.080-0.659-2.56-0.747-3.8-0.413zM17.099 12.693h-3.237v3.227h3.24v-3.229zM17.099 8.636h-3.237v3.227h3.24v-3.223zM17.099 4.497h-3.237v3.227h3.24v-3.227zM21.059 12.693h-3.219v3.227h3.227v-3.229zM9.061 12.693h-3.217v3.227h3.229v-3.229zM13.101 12.693h-3.2v3.227h3.219v-3.229zM5.061 12.693h-3.195v3.227h3.237v-3.229zM13.101 8.636h-3.2v3.227h3.219v-3.223zM9.041 8.636h-3.192v3.227h3.217v-3.223z">
			</path>
		</symbol>
		<symbol id="icon-typescript" viewBox="0 0 32 32">
			<path
				d="M0 16v16h32v-32h-32zM25.788 14.725c0.813 0.203 1.432 0.564 2.001 1.153 0.295 0.315 0.732 0.888 0.767 1.027 0.011 0.040-1.381 0.973-2.224 1.497-0.031 0.020-0.153-0.112-0.289-0.315-0.413-0.6-0.844-0.859-1.504-0.904-0.971-0.067-1.595 0.441-1.589 1.289-0.001 0.015-0.001 0.032-0.001 0.050 0 0.201 0.051 0.391 0.14 0.557l-0.003-0.006c0.213 0.441 0.611 0.707 1.853 1.244 2.292 0.987 3.272 1.636 3.881 2.56 0.68 1.031 0.833 2.677 0.371 3.901-0.507 1.331-1.767 2.235-3.54 2.533-0.548 0.097-1.848 0.083-2.437-0.024-1.285-0.229-2.504-0.864-3.256-1.697-0.295-0.324-0.869-1.173-0.833-1.233 0.015-0.021 0.147-0.103 0.293-0.188 0.144-0.081 0.681-0.392 1.189-0.687l0.92-0.533 0.193 0.285c0.269 0.411 0.857 0.975 1.213 1.163 1.021 0.539 2.423 0.463 3.113-0.157 0.257-0.217 0.419-0.54 0.419-0.9 0-0.021-0.001-0.042-0.002-0.062l0 0.003c0-0.371-0.047-0.533-0.24-0.813-0.248-0.355-0.756-0.653-2.199-1.28-1.651-0.711-2.361-1.152-3.012-1.853-0.392-0.445-0.694-0.981-0.871-1.57l-0.008-0.030c-0.121-0.452-0.152-1.585-0.056-2.041 0.34-1.596 1.544-2.707 3.281-3.037 0.564-0.107 1.875-0.067 2.428 0.071zM18.276 16.061l0.011 1.311h-4.167v11.835h-2.947v-11.835h-4.163v-1.285c0-0.712 0.015-1.307 0.035-1.32 0.016-0.021 2.551-0.032 5.623-0.027l5.593 0.016z"></path>
		</symbol>
		<symbol id="icon-postgresql" viewBox="0 0 32 32">
			<path
				d="M22.837 0c-1.312 0.010-2.575 0.206-3.769 0.562l0.096-0.024-0.084 0.027c-0.677-0.126-1.464-0.205-2.267-0.22l-0.013-0c-1.571-0.027-2.92 0.355-4.008 0.989-1.072-0.372-3.296-1.013-5.64-0.885-1.632 0.089-3.413 0.585-4.733 1.979-1.316 1.393-2.012 3.549-1.865 6.483 0.040 0.809 0.271 2.129 0.653 3.839s0.92 3.711 1.591 5.536c0.671 1.827 1.405 3.467 2.553 4.581 0.573 0.559 1.363 1.028 2.293 0.989 0.653-0.027 1.244-0.313 1.753-0.736 0.248 0.327 0.513 0.469 0.755 0.601 0.304 0.167 0.6 0.28 0.907 0.355 0.551 0.137 1.493 0.321 2.597 0.133 0.376-0.063 0.772-0.185 1.167-0.36 0.015 0.44 0.032 0.871 0.049 1.307 0.055 1.381 0.089 2.657 0.504 3.776 0.067 0.183 0.249 1.124 0.969 1.955 0.72 0.832 2.131 1.351 3.737 1.007 1.133-0.243 2.575-0.68 3.532-2.043 0.947-1.347 1.373-3.279 1.457-6.412 0.021-0.169 0.047-0.313 0.073-0.448l0.225 0.020h0.027c1.209 0.055 2.521-0.117 3.617-0.627 0.971-0.449 1.705-0.904 2.24-1.711 0.133-0.2 0.28-0.441 0.32-0.857s-0.199-1.067-0.595-1.367c-0.793-0.603-1.292-0.373-1.827-0.263-0.476 0.11-1.027 0.18-1.592 0.194l-0.010 0c1.541-2.596 2.647-5.353 3.277-7.793 0.373-1.44 0.583-2.768 0.6-3.929s-0.077-2.189-0.773-3.079c-2.175-2.779-5.232-3.547-7.597-3.573-0.073-0.001-0.147-0.003-0.22-0.005zM22.775 0.853c2.237-0.021 5.096 0.607 7.148 3.229 0.461 0.589 0.599 1.451 0.583 2.512-0.017 1.060-0.213 2.329-0.572 3.72-0.696 2.693-2.011 5.833-3.863 8.651 0.061 0.044 0.13 0.082 0.204 0.112l0.007 0.002c0.387 0.16 1.268 0.297 3.027-0.064 0.443-0.093 0.767-0.156 1.103 0.1 0.15 0.128 0.245 0.317 0.245 0.529 0 0.013-0 0.026-0.001 0.040l0-0.002c-0.019 0.17-0.081 0.323-0.175 0.451l0.002-0.003c-0.34 0.511-1.011 0.995-1.871 1.393-0.761 0.355-1.853 0.54-2.821 0.551-0.485 0.005-0.933-0.032-1.313-0.151l-0.024-0.009c-0.147 1.413-0.484 4.204-0.704 5.477-0.176 1.027-0.484 1.843-1.072 2.453-0.587 0.611-1.417 0.979-2.535 1.219-1.384 0.297-2.393-0.023-3.044-0.571-0.649-0.547-0.947-1.272-1.125-1.716-0.123-0.307-0.187-0.704-0.248-1.235s-0.107-1.18-0.137-1.912c-0.029-0.745-0.045-1.619-0.045-2.497 0-0.305 0.002-0.609 0.006-0.913l-0 0.046c-0.558 0.512-1.263 0.872-2.045 1.010l-0.024 0.004c-0.919 0.156-1.739 0.003-2.228-0.12-0.264-0.067-0.494-0.159-0.709-0.276l0.016 0.008c-0.227-0.121-0.443-0.259-0.587-0.529-0.057-0.103-0.091-0.227-0.091-0.358 0-0.053 0.006-0.105 0.016-0.155l-0.001 0.005c0.047-0.18 0.15-0.332 0.289-0.44l0.002-0.001c0.264-0.215 0.613-0.335 1.14-0.444 0.959-0.197 1.293-0.332 1.497-0.493 0.173-0.139 0.369-0.419 0.716-0.829-0.001-0.013-0.003-0.032-0.004-0.051l-0-0.004c-0.653-0.019-1.261-0.193-1.794-0.488l0.020 0.010c-0.2 0.211-1.221 1.291-2.467 2.789-0.524 0.627-1.103 0.987-1.713 1.012-0.611 0.027-1.163-0.281-1.632-0.736-0.937-0.911-1.685-2.477-2.337-4.248-0.651-1.771-1.18-3.743-1.556-5.423-0.377-1.68-0.6-3.035-0.632-3.688-0.14-2.776 0.509-4.647 1.623-5.827 1.115-1.18 2.643-1.627 4.132-1.712 2.673-0.153 5.212 0.779 5.725 0.979 0.989-0.672 2.264-1.091 3.856-1.064 0.801 0.012 1.572 0.117 2.31 0.305l-0.068-0.015 0.027-0.012c0.257-0.095 0.587-0.194 0.923-0.273l0.062-0.012c0.825-0.202 1.776-0.324 2.754-0.337l0.009-0zM22.977 1.747h-0.195c-0.811 0.012-1.594 0.104-2.349 0.27l0.077-0.014c1.661 0.736 2.916 1.869 3.8 3 0.585 0.739 1.091 1.583 1.481 2.487l0.028 0.073c0.147 0.352 0.245 0.649 0.301 0.88 0.028 0.116 0.047 0.213 0.053 0.315 0.003 0.051 0.005 0.103-0.016 0.192 0 0.004-0.007 0.013-0.008 0.017 0.040 1.168-0.249 1.96-0.284 3.075-0.027 0.808 0.18 1.757 0.231 2.793 0.048 0.973-0.069 2.043-0.701 3.092 0.053 0.064 0.101 0.128 0.152 0.192 1.672-2.633 2.877-5.547 3.52-8.031 0.344-1.337 0.527-2.549 0.543-3.509 0.013-0.96-0.165-1.656-0.393-1.947-1.789-2.288-4.211-2.871-6.24-2.885zM16.591 2.088c-1.576 0.004-2.707 0.48-3.564 1.193-0.884 0.737-1.477 1.747-1.867 2.78-0.463 1.227-0.621 2.413-0.684 3.219l0.017-0.011c0.476-0.267 1.101-0.533 1.771-0.688 0.669-0.153 1.391-0.201 2.044 0.052s1.193 0.849 1.389 1.753c0.939 4.343-0.292 5.957-0.745 7.176-0.144 0.351-0.295 0.801-0.42 1.261l-0.021 0.090c0.057-0.013 0.115-0.029 0.172-0.035 0.32-0.027 0.571 0.080 0.72 0.144 0.456 0.189 0.769 0.587 0.939 1.040 0.044 0.119 0.076 0.247 0.095 0.379 0.017 0.046 0.027 0.098 0.027 0.153 0 0.006-0 0.011-0 0.017l0-0.001c-0.022 0.666-0.034 1.45-0.034 2.236 0 0.966 0.019 1.928 0.056 2.885l-0.004-0.138c0.031 0.717 0.076 1.349 0.133 1.848 0.057 0.497 0.139 0.876 0.191 1.004 0.171 0.427 0.42 0.985 0.871 1.365 0.451 0.379 1.097 0.632 2.279 0.379 1.024-0.22 1.656-0.525 2.079-0.964 0.421-0.439 0.673-1.049 0.835-1.984 0.241-1.4 0.727-5.46 0.785-6.224-0.027-0.576 0.059-1.019 0.243-1.356 0.189-0.347 0.483-0.559 0.736-0.673 0.127-0.057 0.245-0.096 0.343-0.124-0.119-0.17-0.225-0.311-0.336-0.448l0.012 0.015c-0.35-0.422-0.648-0.905-0.873-1.427l-0.015-0.039c-0.136-0.279-0.25-0.49-0.371-0.697l0.028 0.052c-0.177-0.32-0.401-0.72-0.636-1.169-0.469-0.9-0.98-1.991-1.245-3.053-0.264-1.061-0.303-2.16 0.375-2.935 0.6-0.688 1.653-0.973 3.235-0.813-0.047-0.14-0.075-0.256-0.153-0.443-0.386-0.898-0.851-1.672-1.405-2.374l0.017 0.022c-1.34-1.713-3.509-3.412-6.861-3.467zM7.735 2.157c-0.169 0-0.339 0.005-0.507 0.015-1.347 0.077-2.62 0.468-3.531 1.433-0.912 0.965-1.512 2.548-1.381 5.168 0.025 0.496 0.241 1.885 0.612 3.536 0.369 1.651 0.893 3.593 1.523 5.309 0.631 1.716 1.395 3.209 2.12 3.916 0.365 0.353 0.683 0.496 0.971 0.484 0.289-0.013 0.637-0.18 1.063-0.691 0.836-1.006 1.625-1.895 2.44-2.759l-0.026 0.028c-0.986-0.86-1.606-2.118-1.606-3.521 0-0.24 0.018-0.475 0.053-0.705l-0.003 0.026c0.137-0.985 0.156-1.907 0.14-2.635-0.016-0.709-0.067-1.181-0.067-1.476-0-0.004-0-0.008-0-0.013s0-0.009 0-0.013v0.001-0.007l-0.001-0.008v-0.001c0-0.002 0-0.004 0-0.007 0-1.613 0.289-3.158 0.819-4.586l-0.030 0.091c0.373-0.992 0.929-2 1.763-2.816-0.819-0.269-2.272-0.68-3.845-0.757-0.15-0.008-0.327-0.013-0.505-0.013h-0.001zM24.265 9.2c-0.905 0.012-1.413 0.245-1.68 0.551-0.377 0.433-0.413 1.193-0.179 2.129 0.233 0.937 0.716 1.985 1.169 2.856 0.227 0.436 0.447 0.828 0.624 1.147 0.179 0.32 0.309 0.547 0.389 0.74 0.073 0.179 0.155 0.336 0.237 0.483 0.351-0.74 0.413-1.467 0.377-2.224-0.047-0.937-0.264-1.896-0.232-2.867 0.036-1.135 0.26-1.873 0.28-2.751-0.296-0.040-0.639-0.064-0.986-0.064h-0zM13.287 9.353c-0.293 0.003-0.576 0.039-0.847 0.104l0.026-0.005c-0.583 0.144-1.095 0.349-1.569 0.615l0.031-0.016c-0.177 0.096-0.33 0.197-0.472 0.309l0.007-0.005-0.029 0.027c0.008 0.195 0.047 0.667 0.063 1.361 0.016 0.76-0.003 1.729-0.149 2.779-0.319 2.28 1.336 4.168 3.28 4.171 0.113-0.468 0.3-0.943 0.487-1.443 0.541-1.459 1.607-2.523 0.709-6.675-0.147-0.68-0.437-0.955-0.837-1.109-0.195-0.071-0.42-0.112-0.655-0.112-0.015 0-0.030 0-0.046 0.001l0.002-0zM23.843 9.625h0.067c0.088 0.003 0.169 0.012 0.24 0.029 0.072 0.016 0.133 0.040 0.184 0.073s0.088 0.084 0.1 0.145l0 0.001-0.001 0.011c0 0.004 0 0.009 0 0.013 0 0.062-0.017 0.119-0.048 0.168l0.001-0.001c-0.041 0.076-0.090 0.142-0.147 0.2l0-0c-0.132 0.145-0.309 0.246-0.509 0.282l-0.005 0.001c-0.028 0.004-0.061 0.006-0.094 0.006-0.169 0-0.326-0.054-0.455-0.145l0.002 0.002c-0.066-0.045-0.123-0.097-0.172-0.156l-0.001-0.001c-0.042-0.046-0.071-0.103-0.084-0.167l-0-0.002c-0.001-0.006-0.001-0.013-0.001-0.020 0-0.058 0.022-0.11 0.057-0.15l-0 0c0.043-0.049 0.095-0.089 0.153-0.119l0.003-0.001c0.128-0.072 0.301-0.125 0.497-0.155 0.073-0.011 0.145-0.016 0.213-0.013zM13.416 9.849c0.071 0 0.145 0.007 0.221 0.017 0.204 0.028 0.385 0.083 0.524 0.163 0.069 0.037 0.128 0.084 0.177 0.141l0.001 0.001c0.046 0.052 0.074 0.121 0.074 0.196 0 0.011-0.001 0.022-0.002 0.032l0-0.001c-0.014 0.080-0.049 0.15-0.1 0.206l0-0c-0.055 0.067-0.117 0.124-0.188 0.171l-0.003 0.002c-0.137 0.098-0.308 0.157-0.493 0.157-0.037 0-0.073-0.002-0.108-0.007l0.004 0c-0.223-0.038-0.417-0.147-0.559-0.303l-0.001-0.001c-0.061-0.063-0.113-0.135-0.155-0.214l-0.002-0.005c-0.036-0.056-0.057-0.124-0.057-0.198 0-0.014 0.001-0.027 0.002-0.040l-0 0.002c0.020-0.144 0.139-0.219 0.255-0.26 0.109-0.038 0.235-0.060 0.366-0.060 0.016 0 0.031 0 0.047 0.001l-0.002-0zM25.496 19.64l-0.004 0.001c-0.196 0.071-0.357 0.1-0.493 0.16-0.139 0.055-0.25 0.155-0.317 0.282l-0.002 0.003c-0.084 0.153-0.156 0.425-0.135 0.888 0.057 0.039 0.122 0.071 0.193 0.092l0.005 0.001c0.228 0.069 0.611 0.115 1.037 0.108 0.851-0.009 1.897-0.208 2.453-0.467 0.481-0.226 0.895-0.5 1.263-0.825l-0.006 0.005h-0.001c-1.857 0.384-2.907 0.281-3.551 0.016-0.169-0.071-0.315-0.16-0.446-0.268l0.003 0.002zM14.788 19.765h-0.028c-0.071 0.007-0.173 0.031-0.372 0.251-0.464 0.52-0.627 0.847-1.009 1.152-0.383 0.304-0.88 0.467-1.873 0.671-0.315 0.064-0.495 0.135-0.615 0.192 0.039 0.032 0.035 0.040 0.093 0.071 0.145 0.080 0.332 0.151 0.483 0.189 0.427 0.107 1.128 0.231 1.86 0.107 0.732-0.125 1.493-0.476 2.143-1.387 0.112-0.157 0.124-0.389 0.032-0.639-0.093-0.249-0.297-0.464-0.441-0.524-0.079-0.040-0.171-0.069-0.268-0.082l-0.005-0z"></path>
		</symbol>
		<symbol id="icon-git" viewBox="0 0 32 32">
			<path
				d="M31.395 14.573l-13.972-13.971c-0.805-0.804-2.109-0.804-2.917 0l-2.895 2.9 3.68 3.68c0.86-0.287 1.839-0.093 2.519 0.588 0.688 0.687 0.877 1.677 0.584 2.533l3.544 3.547c0.86-0.297 1.849-0.104 2.533 0.58 0.961 0.96 0.961 2.512 0 3.472-0.959 0.959-2.508 0.959-3.467 0-0.719-0.721-0.899-1.783-0.539-2.661l-3.319-3.301v8.7c0.235 0.115 0.456 0.271 0.651 0.464 0.951 0.961 0.951 2.511 0 3.467-0.959 0.961-2.519 0.961-3.479 0-0.959-0.959-0.959-2.505 0-3.464 0.243-0.24 0.516-0.421 0.807-0.541v-8.785c-0.289-0.121-0.565-0.296-0.8-0.535-0.727-0.727-0.901-1.789-0.528-2.679l-3.616-3.633-9.581 9.575c-0.8 0.807-0.8 2.112 0 2.919l13.973 13.969c0.805 0.805 2.109 0.805 2.915 0l13.907-13.907c0.807-0.804 0.807-2.109 0-2.916z"></path>
		</symbol>
		<symbol id="icon-docker" viewBox="0 0 32 32">
			<path
				d="M6.427 23.033c-0.912 0-1.739-0.747-1.739-1.653s0.747-1.657 1.74-1.657c0.997 0 1.747 0.747 1.747 1.656s-0.829 1.653-1.748 1.655zM27.776 14.016c-0.18-1.323-1-2.4-2.080-3.227l-0.42-0.333-0.339 0.413c-0.659 0.747-0.92 2.071-0.84 3.060 0.080 0.749 0.32 1.493 0.739 2.072-0.339 0.173-0.757 0.333-1.080 0.503-0.76 0.249-1.499 0.333-2.24 0.333h-21.387l-0.080 0.493c-0.16 1.576 0.080 3.227 0.749 4.72l0.325 0.58v0.080c2 3.311 5.56 4.8 9.437 4.8 7.459 0 13.576-3.227 16.476-10.177 1.9 0.083 3.819-0.413 4.72-2.235l0.24-0.413-0.4-0.249c-1.080-0.659-2.56-0.747-3.8-0.413zM17.099 12.693h-3.237v3.227h3.24v-3.229zM17.099 8.636h-3.237v3.227h3.24v-3.223zM17.099 4.497h-3.237v3.227h3.24v-3.227zM21.059 12.693h-3.219v3.227h3.227v-3.229zM9.061 12.693h-3.217v3.227h3.229v-3.229zM13.101 12.693h-3.2v3.227h3.219v-3.229zM5.061 12.693h-3.195v3.227h3.237v-3.229zM13.101 8.636h-3.2v3.227h3.219v-3.223zM9.041 8.636h-3.192v3.227h3.217v-3.223z"></path>
		</symbol>
		<symbol id="icon-amazonaws" viewBox="0 0 32 32">
			<path
				d="M9.017 13.381c0 0.395 0.043 0.713 0.117 0.947 0.085 0.235 0.192 0.491 0.341 0.768 0.053 0.084 0.075 0.169 0.075 0.244 0 0.107-0.064 0.213-0.203 0.32l-0.671 0.447c-0.077 0.056-0.173 0.091-0.276 0.096l-0.001 0c-0.107 0-0.213-0.053-0.319-0.149-0.138-0.148-0.264-0.312-0.375-0.486l-0.008-0.014c-0.098-0.162-0.208-0.368-0.309-0.579l-0.021-0.049c-0.829 0.979-1.873 1.468-3.129 1.468-0.893 0-1.607-0.255-2.128-0.765-0.521-0.512-0.787-1.192-0.787-2.044 0-0.904 0.319-1.64 0.968-2.192 0.649-0.553 1.511-0.831 2.607-0.831 0.363 0 0.735 0.032 1.128 0.085 0.395 0.053 0.8 0.139 1.224 0.235v-0.777c0-0.809-0.169-1.373-0.5-1.703-0.34-0.331-0.915-0.489-1.733-0.489-0.373 0-0.757 0.041-1.151 0.137s-0.777 0.213-1.149 0.363c-0.101 0.047-0.224 0.094-0.352 0.133l-0.022 0.006c-0.050 0.017-0.108 0.028-0.168 0.031l-0.002 0c-0.149 0-0.224-0.107-0.224-0.329v-0.521c0-0.171 0.021-0.299 0.075-0.373 0.080-0.095 0.18-0.171 0.294-0.221l0.005-0.002c0.372-0.192 0.819-0.352 1.34-0.48 0.48-0.128 1.032-0.202 1.601-0.202 0.021 0 0.043 0 0.064 0l-0.003-0c1.267 0 2.192 0.288 2.788 0.863 0.585 0.573 0.883 1.447 0.883 2.617zM4.697 15c0.351 0 0.712-0.064 1.096-0.192 0.383-0.128 0.724-0.361 1.011-0.68 0.171-0.203 0.299-0.427 0.363-0.683 0.063-0.255 0.107-0.564 0.107-0.925v-0.447c-0.264-0.069-0.597-0.132-0.935-0.177l-0.045-0.005c-0.3-0.040-0.647-0.063-0.999-0.064h-0.001c-0.713 0-1.235 0.139-1.587 0.427-0.351 0.287-0.52 0.691-0.52 1.223 0 0.5 0.127 0.873 0.393 1.128 0.255 0.267 0.627 0.395 1.117 0.395zM13.244 16.149c-0.192 0-0.32-0.032-0.405-0.107-0.085-0.064-0.16-0.213-0.224-0.415l-2.5-8.228c-0.045-0.124-0.079-0.269-0.095-0.418l-0.001-0.008c0-0.171 0.085-0.267 0.255-0.267h1.044c0.201 0 0.34 0.033 0.413 0.107 0.087 0.064 0.151 0.213 0.213 0.416l1.789 7.045 1.66-7.045c0.053-0.213 0.117-0.352 0.201-0.416 0.109-0.068 0.241-0.108 0.383-0.108 0.015 0 0.031 0 0.046 0.001l-0.002-0h0.851c0.203 0 0.341 0.033 0.427 0.107 0.084 0.064 0.16 0.213 0.201 0.416l1.681 7.131 1.841-7.131c0.064-0.213 0.139-0.352 0.213-0.416 0.105-0.068 0.234-0.108 0.372-0.108 0.015 0 0.030 0 0.045 0.001l-0.002-0h0.991c0.169 0 0.267 0.087 0.267 0.267 0 0.053-0.012 0.107-0.023 0.171-0.019 0.102-0.045 0.191-0.078 0.277l0.004-0.010-2.564 8.227c-0.064 0.213-0.139 0.351-0.224 0.415-0.104 0.067-0.231 0.108-0.367 0.108-0.013 0-0.026-0-0.039-0.001l0.002 0h-0.916c-0.201 0-0.34-0.032-0.427-0.107-0.084-0.075-0.159-0.213-0.2-0.427l-1.651-6.864-1.64 6.853c-0.053 0.213-0.116 0.352-0.2 0.427-0.087 0.075-0.236 0.107-0.427 0.107zM26.919 16.436c-0.553 0-1.107-0.064-1.639-0.191-0.532-0.128-0.947-0.267-1.224-0.427-0.171-0.095-0.287-0.201-0.329-0.297-0.040-0.088-0.063-0.19-0.064-0.298v-0.543c0-0.223 0.085-0.329 0.244-0.329 0.064 0 0.128 0.011 0.192 0.032s0.16 0.064 0.267 0.107c0.361 0.16 0.755 0.287 1.171 0.372 0.425 0.085 0.84 0.128 1.267 0.128 0.669 0 1.192-0.117 1.553-0.352 0.334-0.204 0.554-0.567 0.554-0.981 0-0.010-0-0.021-0-0.031l0 0.002c0-0.009 0-0.019 0-0.030 0-0.278-0.109-0.53-0.287-0.716l0 0c-0.192-0.201-0.555-0.383-1.076-0.553l-1.543-0.48c-0.777-0.244-1.352-0.605-1.703-1.084-0.33-0.422-0.53-0.959-0.533-1.543v-0.001c0-0.447 0.097-0.84 0.288-1.181 0.192-0.34 0.447-0.639 0.767-0.872 0.32-0.245 0.68-0.427 1.107-0.553 0.427-0.128 0.873-0.181 1.341-0.181 0.233 0 0.479 0.011 0.713 0.043 0.244 0.032 0.467 0.075 0.691 0.117 0.213 0.053 0.416 0.107 0.607 0.169 0.192 0.064 0.341 0.128 0.448 0.192 0.128 0.065 0.235 0.155 0.318 0.264l0.002 0.002c0.060 0.089 0.096 0.199 0.096 0.317 0 0.012-0 0.024-0.001 0.035l0-0.002v0.5c0 0.224-0.085 0.341-0.245 0.341-0.151-0.018-0.287-0.063-0.41-0.131l0.006 0.003c-0.579-0.262-1.255-0.415-1.968-0.415-0.026 0-0.053 0-0.079 0.001l0.004-0c-0.607 0-1.087 0.095-1.416 0.297-0.331 0.203-0.5 0.511-0.5 0.947 0 0.299 0.107 0.555 0.32 0.756 0.212 0.203 0.605 0.405 1.169 0.587l1.512 0.477c0.765 0.245 1.32 0.587 1.649 1.023s0.489 0.936 0.489 1.489c0 0.457-0.096 0.873-0.276 1.235-0.192 0.363-0.448 0.681-0.777 0.937-0.331 0.267-0.724 0.457-1.181 0.596-0.48 0.148-0.979 0.223-1.523 0.223zM28.931 21.609c-3.501 2.587-8.589 3.959-12.963 3.959-6.131 0-11.653-2.267-15.827-6.035-0.329-0.297-0.032-0.703 0.363-0.468 4.512 2.617 10.079 4.204 15.836 4.204 3.885 0 8.152-0.809 12.080-2.469 0.585-0.267 1.085 0.383 0.511 0.809zM30.389 19.948c-0.448-0.573-2.96-0.276-4.099-0.137-0.34 0.043-0.393-0.256-0.084-0.48 2-1.404 5.289-1 5.672-0.532 0.383 0.48-0.107 3.768-1.98 5.343-0.287 0.245-0.564 0.117-0.436-0.201 0.427-1.053 1.373-3.427 0.927-3.992z"></path>
		</symbol>
		<symbol id="icon-wordpress" viewBox="0 0 32 32">
			<path
				d="M4 16c0 4.626 2.76 8.624 6.763 10.518l-5.724-15.274c-0.666 1.453-1.039 3.062-1.039 4.756zM24.101 15.41c0-1.445-0.533-2.445-0.989-3.223-0.608-0.963-1.179-1.778-1.179-2.741 0-1.074 0.836-2.074 2.015-2.074 0.053 0 0.104 0.006 0.155 0.009-2.135-1.905-4.979-3.069-8.103-3.069-4.192 0-7.881 2.095-10.026 5.268 0.282 0.009 0.547 0.014 0.772 0.014 1.255 0 3.198-0.149 3.198-0.149 0.647-0.037 0.723 0.889 0.077 0.963 0 0-0.65 0.074-1.373 0.111l4.37 12.66 2.626-7.671-1.869-4.989c-0.646-0.037-1.259-0.111-1.259-0.111-0.647-0.037-0.571-1 0.076-0.963 0 0 1.981 0.149 3.16 0.149 1.255 0 3.198-0.149 3.198-0.149 0.647-0.037 0.723 0.889 0.076 0.963 0 0-0.651 0.074-1.373 0.111l4.337 12.563 1.197-3.895c0.518-1.617 0.913-2.778 0.913-3.778zM16.211 17.022l-3.601 10.189c1.075 0.308 2.212 0.476 3.39 0.476 1.397 0 2.738-0.235 3.985-0.663-0.032-0.050-0.062-0.103-0.086-0.161l-3.688-9.842zM26.53 10.393c0.052 0.372 0.081 0.771 0.081 1.202 0 1.185-0.228 2.519-0.913 4.186l-3.665 10.321c3.568-2.026 5.967-5.79 5.967-10.102 0-2.032-0.533-3.943-1.47-5.607zM16 0c-8.837 0-16 7.163-16 16s7.163 16 16 16 16-7.163 16-16-7.163-16-16-16zM16 30c-7.732 0-14-6.268-14-14s6.268-14 14-14 14 6.268 14 14-6.268 14-14 14z"></path>
		</symbol>
		<symbol id="icon-jest" viewBox="0 0 32 32">
			<path
				d="M29.668 15.76c-0.003-1.918-1.306-3.531-3.075-4.007l-0.029-0.007 3.984-11.747h-19.743l3.995 11.784c-1.742 0.519-2.99 2.106-2.992 3.984v0c0 1.391 0.693 2.623 1.751 3.381-0.442 0.619-0.917 1.161-1.44 1.653l-0.006 0.005c-0.956 0.912-2.083 1.653-3.328 2.17l-0.072 0.026c-1.112-0.751-1.593-2.075-1.159-3.261 1.704-0.541 2.917-2.109 2.917-3.96 0-2.284-1.847-4.137-4.129-4.147h-0.001c-2.291 0.003-4.148 1.86-4.151 4.15v0c0 1.131 0.463 2.168 1.204 2.909-0.064 0.129-0.129 0.26-0.195 0.399-0.62 1.279-1.324 2.724-1.593 4.345-0.537 3.243 0.343 5.845 2.465 7.319 1.089 0.776 2.447 1.241 3.914 1.241 0.005 0 0.009 0 0.014 0h-0.001c2.436 0 4.909-1.223 7.3-2.409 1.705-0.843 3.465-1.723 5.197-2.149 0.64-0.157 1.307-0.249 2.011-0.352 1.427-0.204 2.9-0.416 4.224-1.187 1.505-0.874 2.58-2.347 2.904-4.084l0.006-0.037c0.232-1.325 0-2.659-0.592-3.827 0.397-0.64 0.62-1.389 0.62-2.195zM27.861 15.76c0 1.287-1.047 2.333-2.333 2.333-1.288-0.004-2.331-1.049-2.331-2.337 0-0.739 0.343-1.399 0.879-1.827l0.005-0.004 0.009-0.009c0.075-0.056 0.157-0.112 0.24-0.167 0 0 0.011 0 0.011-0.009 0.037-0.019 0.073-0.047 0.111-0.067 0.009 0 0.019-0.008 0.028-0.008 0.037-0.019 0.084-0.037 0.129-0.056 0.047-0.019 0.093-0.036 0.131-0.055 0.009 0 0.017-0.009 0.027-0.009 0.037-0.009 0.075-0.028 0.112-0.037 0.009 0 0.027-0.009 0.037-0.009 0.045-0.009 0.083-0.019 0.129-0.027h0.009l0.139-0.029c0.009 0 0.027 0 0.037-0.009 0.037 0 0.073-0.009 0.111-0.009h0.047c0.047 0 0.093-0.009 0.148-0.009h0.12c0.037 0 0.067 0 0.103 0.009h0.019c0.073 0.009 0.148 0.019 0.223 0.037 1.070 0.235 1.86 1.175 1.861 2.298v0zM13.391 1.853h14.573l-3.345 9.867c-0.139 0.027-0.277 0.073-0.416 0.12l-3.52-7.18-3.531 7.133c-0.139-0.045-0.288-0.073-0.436-0.101zM20.015 14.953c-0.181-0.887-0.626-1.649-1.248-2.221l-0.003-0.003 1.917-3.872 1.936 3.956c-0.573 0.573-0.991 1.307-1.157 2.14zM15.373 13.489c0.045-0.009 0.083-0.019 0.129-0.027h0.027c0.039-0.011 0.075-0.011 0.112-0.020h0.037c0.037 0 0.065-0.009 0.101-0.009h0.361c0.037 0 0.065 0.009 0.093 0.009 0.019 0 0.027 0 0.047 0.009 0.036 0.009 0.064 0.009 0.101 0.019 0.009 0 0.019 0 0.037 0.009l0.129 0.027h0.009c0.037 0.011 0.075 0.020 0.111 0.039 0.009 0 0.019 0.009 0.037 0.009 0.028 0.009 0.065 0.019 0.093 0.036 0.009 0 0.019 0.009 0.027 0.009 0.037 0.019 0.075 0.028 0.112 0.047h0.009c0.046 0.018 0.085 0.040 0.121 0.066l-0.001-0.001h0.009c0.037 0.019 0.075 0.045 0.112 0.064 0.009 0 0.009 0.009 0.017 0.009 0.037 0.019 0.067 0.047 0.103 0.065l0.009 0.009c0.111 0.083 0.213 0.176 0.315 0.268l0.009 0.009c0.396 0.417 0.64 0.982 0.64 1.604 0 0.003 0 0.006-0 0.009v-0c-0.044 1.256-1.072 2.257-2.335 2.257s-2.291-1.001-2.335-2.253l-0-0.004c0-0.002 0-0.004 0-0.007 0-1.083 0.741-1.993 1.744-2.25l0.016-0.004zM6.256 13.424c1.288 0 2.335 1.048 2.335 2.335s-1.047 2.335-2.333 2.335-2.336-1.047-2.336-2.333 1.048-2.336 2.335-2.336zM27.807 21.457c-0.224 1.227-0.968 2.245-1.991 2.833l-0.020 0.011c-1.011 0.584-2.252 0.769-3.559 0.955-0.871 0.112-1.613 0.248-2.343 0.419l0.156-0.031c-1.927 0.473-3.779 1.4-5.576 2.289-2.299 1.139-4.467 2.213-6.476 2.213-0.009 0-0.020 0-0.030 0-1.067 0-2.054-0.344-2.856-0.927l0.014 0.010c-2.039-1.408-1.937-4.048-1.696-5.493 0.223-1.353 0.843-2.621 1.436-3.836 0.037-0.073 0.065-0.139 0.103-0.213 0.203 0.075 0.416 0.131 0.639 0.168-0.352 1.964 0.648 3.992 2.595 4.993l0.352 0.185 0.379-0.139c1.621-0.575 3.123-1.511 4.448-2.761 0.721-0.674 1.357-1.424 1.898-2.242l0.029-0.046c0.213 0.036 0.427 0.045 0.64 0.045 1.917-0.005 3.529-1.306 4.004-3.074l0.007-0.029h1.556c0.479 1.799 2.093 3.103 4.012 3.103 0 0 0.001 0 0.001 0h-0c0.768 0 1.48-0.213 2.093-0.573 0.24 0.693 0.315 1.417 0.185 2.14z"></path>
		</symbol>
		<symbol id="icon-angular" viewBox="0 0 32 32">
			<path
				d="M13.24 16.86h5.512l-2.757-6.54zM15.995 0.012l-15.080 5.305 2.3 19.68 12.78 6.991 12.784-6.984 2.299-19.684zM25.405 24.408h-3.515l-1.893-4.668h-8.004l-1.893 4.668h-3.517l9.413-20.864z"></path>
		</symbol>
		<symbol id="icon-angularuniversal" viewBox="0 0 32 32">
			<path
				d="M20.8 15.040v1.92c0 0.353-0.287 0.64-0.64 0.64v0h-8.32c-0.353 0-0.64-0.287-0.64-0.64v0-1.92c0-0.353 0.287-0.64 0.64-0.64v0h8.32c0.353 0 0.64 0.287 0.64 0.64v0zM16 20.8c-0.884 0-1.6 0.716-1.6 1.6s0.716 1.6 1.6 1.6v0c0.884 0 1.6-0.716 1.6-1.6s-0.716-1.6-1.6-1.6v0zM20.16 9.6h-8.32c-0.353 0-0.64 0.287-0.64 0.64v0 1.92c0 0.353 0.287 0.64 0.64 0.64h8.32c0.353 0 0.64-0.287 0.64-0.64v0-1.92c0-0.353-0.287-0.64-0.64-0.64v0zM30.88 5.328l-2.288 19.648-12.624 7.024-12.608-7.024-2.24-19.648 14.848-5.328zM22.4 8.32c0-1.060-0.86-1.92-1.92-1.92v0h-8.96c-1.060 0-1.92 0.86-1.92 1.92v0 15.36c0 1.060 0.86 1.92 1.92 1.92h8.96c1.060 0 1.92-0.86 1.92-1.92v0z"></path>
		</symbol>
		<symbol id="icon-nestjs" viewBox="0 0 16.933 16.933">
			<path
				d="M9.97.033c-.122 0-.236.026-.34.06.223.15.345.345.407.568.004.03.013.052.017.083s.01.052.01.08c.018.385-.1.433-.184.66-.127.293-.092.608.06.86a.52.52 0 0 0 .052.096c-.166-1.106.757-1.273.927-1.618.013-.302-.236-.503-.433-.643-.188-.114-.36-.15-.516-.15zm1.39.25c-.018.1-.004.074-.01.127l-.01.114-.03.105c-.01.035-.022.07-.035.105l-.048.1c-.013.018-.022.035-.035.052l-.026.04-.066.087c-.026.026-.048.057-.08.08s-.052.052-.083.074c-.092.07-.197.122-.293.188-.03.022-.06.04-.087.066a.64.64 0 0 0-.083.07c-.03.026-.052.052-.08.083s-.048.057-.066.087l-.06.092-.048.1-.035.1-.03.11c-.004.018-.004.04-.01.057s-.004.035-.01.052l-.004.11c0 .026 0 .052.004.08 0 .035.004.07.013.11s.013.07.022.105l.035.105c.01.022.022.044.03.06l-1.006-.39-.507-.13-.276-.066a8.12 8.12 0 0 0-.796-.118c-.01 0-.013-.004-.022-.004l-.783-.04-.573.022c-.267.018-.534.052-.8.096l-.197.035-.394.087-.197.052-.188.083-.144.066c-.01.004-.018.004-.022.01l-.122.06c-.013.004-.022.01-.03.013l-.136.07c-.03.013-.06.03-.087.044-.013.01-.03.017-.04.022l-.114.066a1.1 1.1 0 0 0-.105.066l-.087.06-.096.07-.074.06c-.01.004-.018.013-.026.018l-.066.057c-.004.01-.013.013-.018.018l-.08.074-.087.083-.074.08c-.01.01-.022.018-.03.026a1.23 1.23 0 0 1-.074.079c-.004.01-.013.013-.018.022l-.1.105-.236.227c-.08.07-.162.136-.245.192l-.262.166c-.087.048-.18.092-.276.13a3.15 3.15 0 0 1-.284.105c-.184.04-.372.114-.534.127-.035 0-.074.01-.11.013l-.11.026-.105.04a1.12 1.12 0 0 0-.105.048c-.03.022-.066.04-.096.06s-.06.048-.087.074-.06.052-.087.08l-.074.087c-.022.035-.048.066-.066.1a.77.77 0 0 0-.061.101l-.048.114-.04.114-.022.105c-.013.052-.013.105-.018.13S0 5.635 0 5.666a.25.25 0 0 0 .004.057c.004.03.01.057.018.083l.03.08c.013.03.03.057.048.083l.057.08.074.07a.64.64 0 0 0 .083.07c.105.092.13.122.267.192.022.013.044.022.07.035.013.013.013.017.018.026.004.035.013.07.022.105a.59.59 0 0 0 .035.105l.035.08c.004.01.01.018.013.022l.052.096.066.092.074.083c.026.026.052.048.083.074l.087.066c.03.022.06.04.096.057a.71.71 0 0 0 .101.048c.026.013.057.022.087.03s.057.018.074.022c-.013.236-.018.46.018.538.04.087.232-.18.424-.485-.026.302-.044.656 0 .76s.31-.232.538-.608c3.1-.717 5.93 1.426 6.227 4.452-.057-.472-.638-.735-.905-.67-.13.324-.354.74-.713.997.03-.29.017-.586-.044-.875a2.83 2.83 0 0 1-.542 1.102c-.415.03-.83-.17-1.05-.472-.018-.013-.022-.04-.035-.057l-.035-.092c-.013-.03-.022-.06-.026-.092s-.004-.06-.004-.096v-.066c.004-.03.013-.06.022-.092l.03-.092c.018-.03.03-.06.052-.092.074-.2.074-.38-.06-.48-.026-.018-.052-.03-.083-.044-.018-.004-.04-.013-.057-.018l-.035-.013-.092-.022a.33.33 0 0 0-.092-.013.71.71 0 0 0-.096-.009c-.022 0-.044.004-.066.004a.34.34 0 0 0-.096.013l-.092.017-.092.03-.087.04-.083.044c-1.02.665-.41 2.22.284 2.672-.262.048-.53.105-.603.162.18.122.376.22.582.302l.708.2c.363.08.73.105 1.102.083a4.16 4.16 0 0 0 3.813-3.551l.026.114.04.245.018.118.01.13.01.144v.07c0 .022.004.048.004.07s-.004.052-.004.08v.06c0 .03-.004.057-.004.087 0 .017 0 .035-.004.057l-.004.096c-.004.013-.004.026-.004.04l-.013.1c0 .013 0 .026-.004.04l-.017.127v.01l-.026.122-.026.13-.035.136-.035.136-.044.14-.096.254-.052.127-.06.122c-.004.013-.01.022-.013.03-.293.586-.713 1.09-1.238 1.482-.035.022-.07.048-.105.074-.01.01-.022.013-.03.022l-.096.066.013.026h.004l.184-.026h.004l.34-.06c.03-.004.066-.013.096-.022l.06-.013.092-.017.08-.022c.437-.105.86-.25 1.268-.42-.695.95-1.627 1.714-2.716 2.217.503-.035 1.006-.118 1.49-.258 1.762-.52 3.245-1.705 4.133-3.302a6.98 6.98 0 0 1-1.176 2.812c.424-.28.813-.603 1.168-.97a6.93 6.93 0 0 0 1.841-3.717c.15.69.192 1.404.127 2.108 3.157-4.404.262-8.97-.95-10.172-.004-.01-.01-.013-.01-.022-.01.052-.013.105-.017.157-.013.1-.026.197-.044.293s-.048.192-.074.29-.066.188-.105.28-.083.18-.13.267a2.98 2.98 0 0 1-.157.249c-.057.083-.118.162-.18.236a3.27 3.27 0 0 1-.206.219c-.044.04-.083.074-.127.11l-.1.087a2.44 2.44 0 0 1-.245.171 3.03 3.03 0 0 1-.258.149c-.092.044-.184.083-.276.122a3.08 3.08 0 0 1-.284.092c-.096.026-.197.048-.293.066s-.2.026-.297.035c-.07.004-.14.01-.2.01-.1 0-.2-.01-.297-.018s-.2-.022-.298-.044a2.21 2.21 0 0 1-.293-.074h-.004c.096-.01.192-.018.29-.035s.197-.04.293-.066.192-.057.284-.092.188-.08.276-.122a3.06 3.06 0 0 0 .262-.144c.083-.057.166-.114.245-.175a2.39 2.39 0 0 0 .223-.197c.074-.066.14-.14.206-.214s.127-.157.184-.236c.01-.013.018-.03.026-.044l.127-.2c.048-.087.092-.175.13-.267s.074-.184.105-.28.052-.188.074-.284.035-.197.044-.293.017-.2.017-.297c0-.07-.004-.14-.01-.2-.01-.1-.022-.197-.035-.293a3.2 3.2 0 0 0-.066-.293c-.03-.092-.06-.188-.096-.28s-.08-.184-.122-.27-.096-.175-.15-.258-.114-.162-.175-.24l-.2-.223a2.73 2.73 0 0 0-.114-.109 8.05 8.05 0 0 0-.608-.429c-.03-.017-.057-.03-.087-.044-.144-.092-.28-.14-.415-.184z"
				fill-rule="evenodd" />
		</symbol>
		<symbol id="icon-vitest" viewBox="0 0 256 234">
			<path
				d="m192.115 70.808l-61.2 88.488a5.27 5.27 0 0 1-2.673 2.002a5.285 5.285 0 0 1-3.343-.005a5.25 5.25 0 0 1-2.66-2.01a5.214 5.214 0 0 1-.903-3.203l2.45-48.854l-39.543-8.386a5.256 5.256 0 0 1-2.292-1.118a5.222 5.222 0 0 1-1.83-4.581a5.226 5.226 0 0 1 .895-2.383L142.218 2.27a5.279 5.279 0 0 1 6.016-1.996a5.243 5.243 0 0 1 2.66 2.01c.643.942.96 2.066.903 3.203l-2.45 48.855l39.542 8.386a5.262 5.262 0 0 1 2.293 1.117a5.21 5.21 0 0 1 1.829 4.582a5.212 5.212 0 0 1-.896 2.382Z" />
			<path
				d="M128.025 233.537a12.356 12.356 0 0 1-8.763-3.63l-57.828-57.823a12.389 12.389 0 0 1 .023-17.5a12.394 12.394 0 0 1 17.5-.024l49.068 49.061L234.917 96.733a12.39 12.39 0 0 1 17.523 17.524l-115.655 115.65a12.343 12.343 0 0 1-8.76 3.63Z" />
			<path fill-opacity=".5"
				d="M127.975 233.537a12.356 12.356 0 0 0 8.763-3.63l57.828-57.823a12.385 12.385 0 0 0 3.605-8.754a12.395 12.395 0 0 0-12.375-12.376a12.4 12.4 0 0 0-8.755 3.606l-49.066 49.061L21.082 96.733a12.392 12.392 0 0 0-17.524 17.524l115.656 115.65a12.347 12.347 0 0 0 8.76 3.63Z" />
		</symbol>
		<symbol id="icon-express" viewBox="0 0 1333.33 773.55" shape-rendering="geometricPrecision"
			text-rendering="geometricPrecision" image-rendering="optimizeQuality"
			fill-rule="evenodd"
			clip-rule="evenodd">
			<path
				d="M1333.33 753.49c-48.5 12.33-78.5.54-105.41-39.87L1036.5 448.79l-27.67-36.67L785.29 714.5c-25.54 36.38-52.33 52.2-100 39.33l286.25-384.25-266.5-347.09c45.83-8.91 77.5-4.38 105.62 36.67l198.54 268.13 200-266.67c25.62-36.38 53.17-50.2 99.17-36.8l-103.33 137-140 182.29c-16.67 20.83-14.38 35.09.96 55.2l267.33 355.18zM.34 363.16l23.41-115.17c63.75-227.92 325-322.63 505.17-181.8 105.29 82.83 131.46 200 126.25 331.25H61.67C52.76 633.69 222.8 776.27 439.58 703.53c76.04-25.54 120.83-85.09 143.25-159.58 11.38-37.33 30.2-43.17 65.29-32.5-17.91 93.17-58.33 171-143.75 219.71-127.62 72.91-309.8 49.33-405.62-52C41.66 620.36 18.08 545.87 7.5 466.2c-1.67-13.17-5-25.71-7.5-38.33.22-21.56.34-43.11.34-64.67v-.04zm62.41-15.83h536.33c-3.5-170.83-109.87-292.17-255.25-293.2-159.58-1.25-274.17 117.2-281.09 293.2h.01z"
				fill-rule="nonzero" />
		</symbol>
		<symbol id="icon-socket-dot-io" viewBox="0 0 32 32">
			<path
				d="M15.915 0.021c-1.411 0.004-2.777 0.188-4.080 0.529l0.113-0.025c-6.24 1.551-11.192 7.204-11.827 13.613-0.787 6.065 2.277 12.381 7.525 15.513 5.148 3.224 12.124 3.093 17.165-0.297 4.529-2.941 7.349-8.304 7.181-13.713-0.077-5.355-3.080-10.556-7.679-13.307-2.509-1.548-5.457-2.325-8.4-2.313zM15.831 2.283c6.593-0.009 13.052 5.085 13.709 11.9 1.26 7.547-5.004 15.217-12.651 15.44-7.272 0.725-14.3-5.44-14.507-12.743-0.543-5.912 3.355-11.78 8.931-13.733 1.333-0.547 2.879-0.864 4.5-0.864 0.006 0 0.012 0 0.018 0h-0.001zM22.619 6.583c-3.583 2.78-7.013 5.744-10.519 8.609 1.604 0.023 3.216 0.021 4.828 0.013 1.88-2.887 3.812-5.735 5.691-8.623zM15.065 16.788c-1.88 2.888-3.813 5.745-5.693 8.632 3.591-2.773 7.007-5.76 10.536-8.608-1.222-0.016-2.664-0.025-4.109-0.025-0.258 0-0.516 0-0.773 0.001l0.040-0z"></path>
		</symbol>
		<symbol id="icon-react-native"
			viewBox="670.088 32.46226489559854 2224.1720000000005 2666.4877351044024">
			<g>
				<path
					d="M2870 1250.22c0-145.34-182.01-283.079-461.07-368.495 64.4-284.424 35.78-510.711-90.34-583.159-29.07-16.994-63.05-25.044-100.17-25.044v99.728c20.57 0 37.12 4.025 50.98 11.627 60.82 34.882 87.21 167.703 66.63 338.536-4.91 42.038-12.96 86.311-22.8 131.479-87.66-21.466-183.36-38.012-283.98-48.745-60.37-82.734-122.98-157.865-186.04-223.604 145.79-135.504 282.64-209.741 375.66-209.741v-99.727c-122.99 0-283.98 87.653-446.76 239.703-162.79-151.156-323.78-237.914-446.76-237.914v99.727c92.57 0 229.86 73.79 375.65 208.399-62.61 65.74-125.22 140.423-184.7 223.157-101.07 10.733-196.77 27.279-284.42 49.192-10.29-44.72-17.89-88.1-23.26-129.69-21.01-170.833 4.92-303.654 65.3-338.983 13.41-8.05 30.85-11.627 51.43-11.627v-99.728c-37.57 0-71.56 8.05-101.07 25.044-125.67 72.447-153.84 298.287-89 581.817C857.119 968.036 676 1105.33 676 1250.22c0 145.35 182.013 283.09 461.07 368.5-64.4 284.43-35.78 510.71 90.34 583.16 29.07 16.99 63.05 25.04 100.62 25.04 122.98 0 283.98-87.65 446.76-239.7 162.78 151.16 323.78 237.92 446.76 237.92 37.56 0 71.55-8.05 101.07-25.05 125.66-72.45 153.84-298.29 88.99-581.81 277.27-85.42 458.39-223.16 458.39-368.06zm-582.26-298.284c-16.55 57.694-37.12 117.164-60.38 176.644-18.33-35.77-37.56-71.55-58.58-107.33-20.57-35.773-42.49-70.655-64.4-104.643 63.5 9.391 124.77 21.019 183.36 35.329zm-204.83 476.274c-34.88 60.38-70.65 117.62-107.77 170.84-66.64 5.81-134.16 8.94-202.14 8.94-67.53 0-135.06-3.13-201.24-8.5-37.12-53.22-73.35-110.01-108.23-169.94-33.99-58.58-64.84-118.06-93.02-177.98 27.73-59.93 59.03-119.86 92.58-178.44 34.88-60.37 70.65-117.616 107.77-170.834 66.64-5.814 134.16-8.944 202.14-8.944 67.53 0 135.06 3.13 201.24 8.497 37.12 53.218 73.35 110.011 108.23 169.941 33.99 58.58 64.84 118.06 93.02 177.99-28.18 59.92-59.03 119.85-92.58 178.43zm144.45-58.13a1918.154 1918.154 0 0 1 61.72 177.98c-58.59 14.31-120.3 26.39-184.25 35.78 21.91-34.43 43.82-69.76 64.4-105.99 20.57-35.77 39.8-72 58.13-107.77zm-453.47 477.17c-41.59-42.94-83.18-90.79-124.32-143.11 40.25 1.79 81.39 3.13 122.98 3.13 42.04 0 83.63-.89 124.33-3.13a1746.499 1746.499 0 0 1-122.99 143.11zm-332.72-263.41c-63.5-9.39-124.77-21.02-183.35-35.33 16.54-57.69 37.12-117.17 60.37-176.65 18.34 35.78 37.57 71.56 58.58 107.33 21.02 35.78 42.49 70.66 64.4 104.65zm330.49-930.638c41.59 42.931 83.18 90.783 124.32 143.106-40.25-1.789-81.39-3.13-122.98-3.13-42.04 0-83.63.894-124.32 3.13a1746.3 1746.3 0 0 1 122.98-143.106zm-330.94 263.405c-21.91 34.435-43.82 69.764-64.39 105.983-20.57 35.78-39.8 71.56-58.14 107.33a1914.757 1914.757 0 0 1-61.71-177.984c58.58-13.863 120.29-25.938 184.24-35.329zM1036 1476.51c-158.309-67.53-260.72-156.07-260.72-226.29 0-70.21 102.411-159.2 260.72-226.28 38.46-16.55 80.5-31.308 123.88-45.171 25.49 87.651 59.03 178.881 100.62 272.351-41.14 93.02-74.24 183.8-99.28 271.01-44.27-13.87-86.31-29.07-125.22-45.62zm240.6 639.06c-60.82-34.88-87.21-167.7-66.63-338.54 4.92-42.03 12.96-86.31 22.8-131.48 87.66 21.47 183.36 38.02 283.98 48.75 60.37 82.73 122.98 157.86 186.04 223.6-145.79 135.51-282.64 209.74-375.66 209.74-20.12-.44-37.11-4.47-50.53-12.07zm1060.78-340.77c21.01 170.83-4.92 303.65-65.3 338.98-13.41 8.05-30.85 11.63-51.43 11.63-92.57 0-229.86-73.79-375.65-208.4 62.61-65.74 125.22-140.42 184.7-223.16 101.07-10.73 196.77-27.28 284.42-49.19 10.29 45.17 18.34 88.55 23.26 130.14zm172.17-298.29c-38.46 16.55-80.5 31.31-123.88 45.17-25.49-87.65-59.03-178.88-100.62-272.35 41.15-93.02 74.24-183.8 99.28-271.009 44.28 13.864 86.31 29.069 125.67 45.619 158.31 67.52 260.72 156.07 260.72 226.28-.45 70.22-102.86 159.21-261.17 226.29z" />
				<path
					d="M1772.55 1454.6c112.88 0 204.38-91.5 204.38-204.38 0-112.87-91.5-204.37-204.38-204.37-112.87 0-204.37 91.5-204.37 204.37 0 112.88 91.5 204.38 204.37 204.38zM775.625 2578.81H708.16V2695h-38.072v-287.22h95.082c32.351 0 57.207 7.37 74.566 22.1 17.491 14.72 26.237 36.16 26.237 64.3 0 17.89-4.866 33.47-14.598 46.76-9.6 13.28-23.014 23.21-40.242 29.78l67.465 121.91v2.37h-40.637zm-67.465-30.97h58.194c18.806 0 33.732-4.87 44.779-14.6 11.178-9.73 16.767-22.75 16.767-39.06 0-17.75-5.326-31.36-15.978-40.83-10.521-9.47-25.776-14.27-45.766-14.4H708.16zm293.93 151.11c-28.936 0-52.477-9.47-70.625-28.41-18.149-19.07-27.223-44.52-27.223-76.34v-6.71c0-21.17 4.011-40.04 12.033-56.61 8.154-16.71 19.464-29.73 33.93-39.06 14.598-9.47 30.379-14.21 47.344-14.21 27.751 0 49.321 9.14 64.701 27.42 15.39 18.28 23.08 44.45 23.08 78.51v15.19H940.736c.526 21.05 6.642 38.08 18.346 51.1 11.836 12.88 26.828 19.33 44.978 19.33 12.89 0 23.8-2.63 32.74-7.89 8.95-5.26 16.77-12.23 23.48-20.91l22.29 17.36c-17.89 27.48-44.71 41.23-80.48 41.23zm-4.541-191.35c-14.729 0-27.091 5.39-37.086 16.17-9.995 10.66-16.176 25.65-18.543 44.98h106.92v-2.76c-1.05-18.54-6.05-32.88-14.99-43.01-8.95-10.25-21.05-15.38-36.301-15.38zM1259.52 2695c-2.11-4.21-3.82-11.7-5.13-22.49-16.97 17.62-37.22 26.44-60.76 26.44-21.04 0-38.33-5.92-51.88-17.76-13.41-11.97-20.12-27.09-20.12-45.37 0-22.22 8.42-39.45 25.25-51.68 16.96-12.37 40.77-18.55 71.41-18.55h35.51v-16.76c0-12.76-3.82-22.89-11.44-30.38-7.63-7.63-18.88-11.44-33.74-11.44-13.02 0-23.93 3.28-32.74 9.86-8.81 6.57-13.22 14.53-13.22 23.87h-36.69c0-10.65 3.75-20.91 11.24-30.78 7.63-9.99 17.89-17.88 30.78-23.67 13.02-5.78 27.28-8.68 42.8-8.68 24.6 0 43.86 6.18 57.8 18.55 13.94 12.23 21.17 29.13 21.7 50.69v98.24c0 19.6 2.5 35.18 7.5 46.75v3.16zm-60.56-27.81c11.44 0 22.29-2.96 32.55-8.88 10.25-5.92 17.68-13.61 22.29-23.08v-43.79h-28.61c-44.71 0-67.07 13.08-67.07 39.25 0 11.44 3.82 20.39 11.44 26.83 7.63 6.44 17.43 9.67 29.4 9.67zm234.15 1.97c13.02 0 24.4-3.95 34.13-11.84s15.12-17.75 16.17-29.59h34.53c-.66 12.23-4.87 23.87-12.63 34.92s-18.15 19.86-31.17 26.43c-12.89 6.58-26.56 9.87-41.03 9.87-29.06 0-52.21-9.67-69.44-29-17.09-19.47-25.64-46.03-25.64-79.7v-6.11c0-20.78 3.81-39.26 11.44-55.43 7.63-16.18 18.54-28.74 32.75-37.68 14.33-8.95 31.23-13.42 50.69-13.42 23.94 0 43.8 7.17 59.58 21.51 15.91 14.33 24.39 32.94 25.45 55.82h-34.53c-1.05-13.81-6.31-25.12-15.78-33.93-9.33-8.94-20.91-13.41-34.72-13.41-18.54 0-32.94 6.7-43.2 20.12-10.12 13.28-15.19 32.55-15.19 57.8v6.9c0 24.59 5.07 43.53 15.19 56.81 10.13 13.29 24.6 19.93 43.4 19.93zm175.37-239.28v51.68h39.85v28.21h-39.85v132.36c0 8.55 1.78 14.99 5.33 19.33 3.55 4.21 9.6 6.32 18.15 6.32 4.2 0 9.99-.79 17.35-2.37V2695c-9.6 2.63-18.93 3.95-28.01 3.95-16.3 0-28.6-4.94-36.89-14.8-8.28-9.86-12.42-23.87-12.42-42.02v-132.36h-38.87v-28.21h38.87v-51.68zM2017.81 2695h-38.08l-144.59-221.33V2695h-38.07v-287.22h38.07l144.99 222.32v-222.32h37.68zm193.32 0c-2.11-4.21-3.82-11.7-5.13-22.49-16.97 17.62-37.22 26.44-60.76 26.44-21.04 0-38.34-5.92-51.88-17.76-13.41-11.97-20.12-27.09-20.12-45.37 0-22.22 8.41-39.45 25.25-51.68 16.96-12.37 40.77-18.55 71.41-18.55h35.51v-16.76c0-12.76-3.82-22.89-11.45-30.38-7.62-7.63-18.87-11.44-33.73-11.44-13.02 0-23.93 3.28-32.74 9.86-8.81 6.57-13.22 14.53-13.22 23.87h-36.69c0-10.65 3.75-20.91 11.24-30.78 7.63-9.99 17.89-17.88 30.78-23.67 13.02-5.78 27.28-8.68 42.8-8.68 24.59 0 43.86 6.18 57.8 18.55 13.94 12.23 21.17 29.13 21.7 50.69v98.24c0 19.6 2.5 35.18 7.5 46.75v3.16zm-60.56-27.81c11.44 0 22.29-2.96 32.55-8.88 10.25-5.92 17.68-13.61 22.29-23.08v-43.79h-28.61c-44.71 0-67.07 13.08-67.07 39.25 0 11.44 3.82 20.39 11.44 26.83 7.63 6.44 17.43 9.67 29.4 9.67zm198.05-237.31v51.68h39.85v28.21h-39.85v132.36c0 8.55 1.78 14.99 5.33 19.33 3.55 4.21 9.6 6.32 18.15 6.32 4.2 0 9.99-.79 17.36-2.37V2695c-9.61 2.63-18.94 3.95-28.02 3.95-16.3 0-28.6-4.94-36.89-14.8-8.28-9.86-12.42-23.87-12.42-42.02v-132.36h-38.86v-28.21h38.86v-51.68zM2470.93 2695h-36.5v-213.44h36.5zm-39.46-270.06c0-5.91 1.78-10.91 5.33-14.99 3.68-4.08 9.07-6.11 16.17-6.11 7.11 0 12.5 2.03 16.18 6.11s5.52 9.08 5.52 14.99c0 5.92-1.84 10.85-5.52 14.8-3.68 3.94-9.07 5.92-16.18 5.92-7.1 0-12.49-1.98-16.17-5.92-3.55-3.95-5.33-8.88-5.33-14.8zm168.47 220.55l52.86-163.93h37.29L2613.55 2695h-27.82l-77.32-213.44h37.28zm211.07 53.46c-28.93 0-52.47-9.47-70.62-28.41-18.15-19.07-27.22-44.52-27.22-76.34v-6.71c0-21.17 4.01-40.04 12.03-56.61 8.15-16.71 19.46-29.73 33.93-39.06 14.6-9.47 30.38-14.21 47.34-14.21 27.75 0 49.32 9.14 64.71 27.42 15.38 18.28 23.08 44.45 23.08 78.51v15.19h-144.6c.53 21.05 6.64 38.08 18.35 51.1 11.83 12.88 26.83 19.33 44.97 19.33 12.89 0 23.81-2.63 32.75-7.89s16.77-12.23 23.48-20.91l22.29 17.36c-17.89 27.48-44.72 41.23-80.49 41.23zm-4.54-191.35c-14.72 0-27.09 5.39-37.08 16.17-10 10.66-16.18 25.65-18.54 44.98h106.91v-2.76c-1.05-18.54-6.05-32.88-14.99-43.01-8.94-10.25-21.04-15.38-36.3-15.38z" />
			</g>
		</symbol>
	</defs>
</svg>