<svg id="Layer_1" data-name="Layer 1" xmlns="http://www.w3.org/2000/svg" xmlns:xlink="http://www.w3.org/1999/xlink" viewBox="0 0 557.07 424.12"><defs><linearGradient id="linear-gradient" x1="89.27" y1="226.42" x2="787.53" y2="139.03" gradientUnits="userSpaceOnUse"><stop offset="0" stop-color="#fff" stop-opacity="0"/><stop offset="0.13" stop-color="#fff" stop-opacity="0.23"/><stop offset="0.23" stop-color="#fff" stop-opacity="0.41"/><stop offset="0.35" stop-color="#fff" stop-opacity="0.59"/><stop offset="0.48" stop-color="#fff" stop-opacity="0.74"/><stop offset="0.6" stop-color="#fff" stop-opacity="0.85"/><stop offset="0.72" stop-color="#fff" stop-opacity="0.93"/><stop offset="0.84" stop-color="#fff" stop-opacity="0.98"/><stop offset="0.95" stop-color="#fff"/></linearGradient><linearGradient id="linear-gradient-2" x1="141.58" y1="32.41" x2="137.94" y2="560.43" gradientUnits="userSpaceOnUse"><stop offset="0" stop-color="#010101" stop-opacity="0"/><stop offset="0.95" stop-color="#010101"/></linearGradient><linearGradient id="linear-gradient-3" x1="118.79" y1="32.25" x2="115.15" y2="560.27" xlink:href="#linear-gradient-2"/><linearGradient id="linear-gradient-4" x1="243.03" y1="194.79" x2="903.35" y2="321.02" xlink:href="#linear-gradient"/><linearGradient id="linear-gradient-5" x1="408.58" y1="195.43" x2="1070.42" y2="80.72" xlink:href="#linear-gradient-2"/><linearGradient id="linear-gradient-6" x1="446.35" y1="272.79" x2="952.07" y2="185.14" xlink:href="#linear-gradient-2"/><linearGradient id="linear-gradient-7" x1="376.71" y1="291.52" x2="375.2" y2="387.11" xlink:href="#linear-gradient-2"/><linearGradient id="linear-gradient-8" x1="376.4" y1="48.95" x2="376.4" y2="424.02" xlink:href="#linear-gradient-2"/><linearGradient id="linear-gradient-9" x1="353.43" y1="48.95" x2="353.43" y2="424.02" xlink:href="#linear-gradient-2"/><linearGradient id="linear-gradient-10" x1="378.47" y1="201.1" x2="379.16" y2="230.72" xlink:href="#linear-gradient"/><linearGradient id="linear-gradient-11" x1="377.87" y1="201.12" x2="378.56" y2="230.73" xlink:href="#linear-gradient"/><linearGradient id="linear-gradient-12" x1="432.21" y1="185.1" x2="423.5" y2="191.74" xlink:href="#linear-gradient-2"/><linearGradient id="linear-gradient-13" x1="430.78" y1="186.82" x2="425.13" y2="191.12" xlink:href="#linear-gradient-2"/><linearGradient id="linear-gradient-14" x1="430.46" y1="237.09" x2="432.11" y2="236.93" xlink:href="#linear-gradient-2"/><linearGradient id="linear-gradient-15" x1="467.78" y1="209.2" x2="478.64" y2="178.99" xlink:href="#linear-gradient"/><linearGradient id="linear-gradient-16" x1="449.08" y1="260.31" x2="463.55" y2="223.81" xlink:href="#linear-gradient"/><linearGradient id="linear-gradient-17" x1="465.99" y1="208.95" x2="338.23" y2="565.17" xlink:href="#linear-gradient-2"/><linearGradient id="linear-gradient-18" x1="506.89" y1="203.87" x2="523.41" y2="312.44" xlink:href="#linear-gradient-2"/><linearGradient id="linear-gradient-19" x1="437.11" y1="186.9" x2="428.4" y2="193.53" xlink:href="#linear-gradient-2"/><linearGradient id="linear-gradient-20" x1="435.68" y1="188.61" x2="430.03" y2="192.91" xlink:href="#linear-gradient-2"/><linearGradient id="linear-gradient-21" x1="120.49" y1="319" x2="117.53" y2="382.5" gradientUnits="userSpaceOnUse"><stop offset="0.12" stop-color="#010101" stop-opacity="0"/><stop offset="0.95" stop-color="#010101"/></linearGradient><linearGradient id="linear-gradient-22" x1="136.27" y1="319" x2="133.31" y2="382.5" xlink:href="#linear-gradient-21"/><linearGradient id="linear-gradient-23" x1="152.05" y1="319" x2="149.09" y2="382.5" xlink:href="#linear-gradient-21"/><linearGradient id="linear-gradient-24" x1="363.71" y1="319" x2="360.75" y2="382.5" xlink:href="#linear-gradient-21"/><linearGradient id="linear-gradient-25" x1="379.49" y1="319" x2="376.53" y2="382.5" xlink:href="#linear-gradient-21"/><linearGradient id="linear-gradient-26" x1="395.27" y1="319" x2="392.31" y2="382.5" xlink:href="#linear-gradient-21"/><linearGradient id="linear-gradient-27" x1="71.48" y1="189.71" x2="537.59" y2="610.31" xlink:href="#linear-gradient"/></defs><title>Reminders Note</title><path d="M558.94,365.57c-3.75,23.58-16.94,45.11-35.3,60.34-1.27,1-2.56,2-3.85,3,0,0-.07,0-.1.06a96.72,96.72,0,0,1-43.49,18.56c-29,4.33-58.29-4.4-87.59-5.92-52.51-2.74-103.11,17.53-154.84,26.81s-112.65,4-145.4-37.06a8.3,8.3,0,0,1-.55-.71c-10.38-13.29-16.95-29.1-25.13-43.9-1.42-2.59-2.87-5.11-4.39-7.6-14.55-23.57-35.93-42.88-47-68.23A97.66,97.66,0,0,1,12.35,231c10.48-22.18,28.91-39.45,46.88-56.13,1.17-1.07,2.3-2.14,3.46-3.21q23.15-21.48,46.34-43c8.5-7.85,17-15.77,25.83-23.28C146.57,95.4,158.72,86,172,78.23c32.3-19.08,63-16.91,98.1-22.86,40.54-6.89,82.06-12.9,121.51,2.72,23,9.08,42.77,24.63,62.17,39.93,3.14,2.49,6.28,4.94,9.41,7.43,17.75,14,35.44,28,52.93,42.33,3.82,3.13,7.67,6.34,11.25,9.76,5.57,5.31,10.51,11.16,13.68,18.11,3.82,8.31,4.79,17.59,5.72,26.67q1.95,19.17,3.88,38.25c.78,7.57,1.52,15.14,2.3,22.67q2.63,25.75,5.24,51.44C559.88,331.62,561.6,348.76,558.94,365.57Z" transform="translate(-3.24 -48.24)" fill="#2368eb" opacity="0.24" style="isolation:isolate"/><rect x="42.39" y="48.95" width="207.56" height="349.58" rx="22.81" fill="#2368eb" opacity="0.33" style="isolation:isolate"/><rect x="36.02" y="45.31" width="207.56" height="349.58" rx="28.08" fill="#2368eb"/><rect x="36.02" y="45.31" width="207.56" height="349.58" rx="22.81" fill="url(#linear-gradient)"/><rect x="75.83" y="138.86" width="129.88" height="21.85" rx="10.92" fill="#2368eb"/><rect x="80.08" y="169.96" width="75.44" height="11.09" rx="5.54" fill="#2368eb"/><rect x="75.83" y="138.86" width="129.88" height="21.85" rx="10.92" fill="url(#linear-gradient-2)"/><rect x="80.08" y="169.96" width="75.44" height="11.09" rx="5.54" fill="url(#linear-gradient-3)"/><rect x="278.02" y="48.95" width="207.56" height="349.58" rx="22.81" fill="#2368eb" opacity="0.33" style="isolation:isolate"/><rect x="271.65" y="45.31" width="207.56" height="349.58" rx="28.08" fill="#2368eb"/><rect x="271.65" y="45.31" width="207.56" height="349.58" rx="28.08" fill="url(#linear-gradient-4)"/><polygon points="359.95 195.85 545.66 156.7 545.66 179.46 392.72 213.15 359.95 195.85" fill="url(#linear-gradient-5)"/><path d="M552.93,263.24,441.48,287.78l-32.76-17.3,141.91-29.91C551.41,248.14,552.15,255.71,552.93,263.24Z" transform="translate(-3.24 -48.24)" fill="url(#linear-gradient-6)"/><rect x="311.46" y="138.86" width="129.88" height="21.85" rx="10.92" fill="#2368eb"/><rect x="338.63" y="287.56" width="75.82" height="21.85" rx="10.92" fill="#2368eb"/><rect x="338.63" y="291.43" width="75.82" height="21.85" rx="10.92" fill="url(#linear-gradient-7)"/><rect x="315.71" y="169.96" width="75.44" height="11.09" rx="5.54" fill="#2368eb"/><rect x="311.46" y="138.86" width="129.88" height="21.85" rx="10.92" fill="url(#linear-gradient-8)"/><rect x="315.71" y="169.96" width="75.44" height="11.09" rx="5.54" fill="url(#linear-gradient-9)"/><rect x="307.52" y="215.18" width="143.03" height="19.97" fill="url(#linear-gradient-10)"/><rect x="307.52" y="241.01" width="143.03" height="19.97" fill="url(#linear-gradient-11)"/><ellipse cx="425.77" cy="190" rx="2.86" ry="3.32" fill="#2368eb"/><ellipse cx="425.78" cy="190" rx="2.86" ry="3.32" fill="url(#linear-gradient-12)"/><ellipse cx="426.61" cy="189.99" rx="1.59" ry="2.49" fill="url(#linear-gradient-13)"/><path d="M432.46,233.73s-1.36,2.92-.09,4a12.43,12.43,0,0,0,1.83,1.39l-.56.82-4.37-1.65s-.35-.65.09-1c0,0,.71.15,1-.3a15.38,15.38,0,0,0,.59-3.09Z" transform="translate(-3.24 -48.24)" fill="#2368eb"/><path d="M432.46,233.73s-1.36,2.92-.09,4a12.43,12.43,0,0,0,1.83,1.39l-.56.82-4.37-1.65s-.35-.65.09-1c0,0,.71.15,1-.3a15.38,15.38,0,0,0,.59-3.09Z" transform="translate(-3.24 -48.24)" fill="url(#linear-gradient-14)"/><g id="kbwNYr"><path d="M452.58,208.2c6.39-.94,14.62-2.53,20.63-3.42,1.82-.26,6.14-.48,8-.62,1.38-.1,5.3-10.19,5.86-11.44,3.36-7.47,6.79-14.9,10.19-22.34a6.14,6.14,0,0,0,.32-.69c1-2.71.44-3.16-2.38-3-6.51.26-11.28,3.69-15.29,8.28-6.43,7.37-12.62,14.93-18.91,22.42C460.85,197.49,452.86,207.72,452.58,208.2Z" transform="translate(-3.24 -48.24)" fill="#2368eb"/><path d="M452.58,208.2c6.39-.94,14.62-2.53,20.63-3.42,1.82-.26,6.14-.48,8-.62,1.38-.1,5.3-10.19,5.86-11.44,3.36-7.47,6.79-14.9,10.19-22.34a6.14,6.14,0,0,0,.32-.69c1-2.71.44-3.16-2.38-3-6.51.26-11.28,3.69-15.29,8.28-6.43,7.37-12.62,14.93-18.91,22.42C460.85,197.49,452.86,207.72,452.58,208.2Z" transform="translate(-3.24 -48.24)" fill="url(#linear-gradient-15)"/><path d="M477.63,227.88c5.1-.81,9.85-1.51,14.58-2.34,12.52-2.2,25-4.78,36.62-10.07a53.5,53.5,0,0,0,9.87-6c3.1-2.31,4.23-5.52,3.47-9.6-1.59-8.6-2.81-17.28-4.17-25.92-.49-3.13-2.18-4.27-5.23-3.43a7.41,7.41,0,0,0-5.48,4.84c-1.48,4.32-2.89,8.67-4.4,13a33.3,33.3,0,0,1-2.06,4.7,5.89,5.89,0,0,1-4.55,3.06q-49.39,8-98.79,16c-8.35,1.34-16,4.17-22.06,10.29-3,3-5.39,6.42-6.23,10.69-.59,3,0,4,3,4.14a91,91,0,0,0,13.31,0c11.74-1.15,23.45-2.6,35.17-4a6.48,6.48,0,0,1,4.6,1c16.63,10.5,33.31,20.9,49.95,31.38,5.4,3.4,11.12,3.51,17.07,2.08,1.06-.26,1.38-1,.84-1.85a17.44,17.44,0,0,0-2.17-2.87q-15.92-16.71-31.87-33.37C478.7,229.11,478.29,228.62,477.63,227.88Z" transform="translate(-3.24 -48.24)" fill="#2368eb"/><path d="M538.69,209.43a51.93,51.93,0,0,1-9.86,6c-11.67,5.29-24.11,7.88-36.61,10.06-4.73.83-9.49,1.54-14.59,2.34.67.74,1.08,1.24,1.51,1.68q15.94,16.69,31.85,33.39a16.31,16.31,0,0,1,2.18,2.85c.54.88.2,1.61-.84,1.85-5.93,1.44-11.66,1.34-17.06-2.08-16.63-10.46-33.33-20.86-50-31.38a6.58,6.58,0,0,0-4.59-1c-11.74,1.41-23.44,2.85-35.17,4a87.09,87.09,0,0,1-13.32,0c-3.05-.16-3.62-1.17-3.05-4.12a21.11,21.11,0,0,1,6.24-10.7c6.1-6.13,13.71-9,22.06-10.29q49.44-8,98.81-16a5.73,5.73,0,0,0,4.53-3.05,30.59,30.59,0,0,0,2.08-4.69c1.51-4.33,2.91-8.65,4.39-13a7.5,7.5,0,0,1,5.46-4.83c3.09-.84,4.76.3,5.23,3.42,1.21,7.68,2.32,15.39,3.69,23.07.14,1,.34,1.91.51,2.88C542.91,203.9,541.81,207.12,538.69,209.43Z" transform="translate(-3.24 -48.24)" fill="url(#linear-gradient-16)"/></g><path d="M512.33,267.64c-5.93,1.44-11.66,1.34-17.06-2.08-16.63-10.46-33.33-20.86-50-31.38a6.58,6.58,0,0,0-4.59-1c-11.74,1.41-23.44,2.85-35.17,4a87.09,87.09,0,0,1-13.32,0c-3.05-.16-3.62-1.17-3.05-4.12l41.08-4.8a33.35,33.35,0,0,1,18.45,3.13l2.27,1.1s47.21,31.79,53.81,32.39,8.38.9,8.38.9C513.71,266.67,513.37,267.4,512.33,267.64Z" transform="translate(-3.24 -48.24)" fill="url(#linear-gradient-17)"/><path d="M538.69,209.43a51.93,51.93,0,0,1-9.86,6c-11.67,5.29-24.11,7.88-36.61,10.06-4.73.83-9.49,1.54-14.59,2.34L474,223.75s47.68-8.72,55.49-15.56C536.61,202,541,197.66,541.67,197c.14,1,.34,1.91.51,2.88C542.91,203.9,541.81,207.12,538.69,209.43Z" transform="translate(-3.24 -48.24)" fill="url(#linear-gradient-18)"/><ellipse cx="430.67" cy="191.8" rx="2.86" ry="3.32" fill="#2368eb"/><ellipse cx="430.68" cy="191.8" rx="2.86" ry="3.32" fill="url(#linear-gradient-19)"/><ellipse cx="431.51" cy="191.79" rx="1.59" ry="2.49" fill="url(#linear-gradient-20)"/><circle cx="119.55" cy="339.13" r="4.32" fill="url(#linear-gradient-21)"/><circle cx="135.33" cy="339.13" r="4.32" fill="url(#linear-gradient-22)"/><circle cx="151.11" cy="339.13" r="4.32" fill="url(#linear-gradient-23)"/><circle cx="362.77" cy="339.13" r="4.32" fill="url(#linear-gradient-24)"/><circle cx="378.55" cy="339.13" r="4.32" fill="url(#linear-gradient-25)"/><circle cx="394.33" cy="339.13" r="4.32" fill="url(#linear-gradient-26)"/><circle cx="142.99" cy="254.24" r="39.6" fill="url(#linear-gradient-27)"/></svg>