<svg xmlns="http://www.w3.org/2000/svg" viewBox="0 0 500 500"><g id="freepik--background-complete--inject-64"><rect y="382.4" width="500" height="0.25" style="fill:#ebebeb"></rect><rect x="416.78" y="398.49" width="33.12" height="0.25" style="fill:#ebebeb"></rect><rect x="322.53" y="401.21" width="8.69" height="0.25" style="fill:#ebebeb"></rect><rect x="396.59" y="389.21" width="19.19" height="0.25" style="fill:#ebebeb"></rect><rect x="52.46" y="390.89" width="43.19" height="0.25" style="fill:#ebebeb"></rect><rect x="104.56" y="390.89" width="6.33" height="0.25" style="fill:#ebebeb"></rect><rect x="131.47" y="395.11" width="93.68" height="0.25" style="fill:#ebebeb"></rect><path d="M237,337.8H43.91a5.71,5.71,0,0,1-5.7-5.71V60.66A5.71,5.71,0,0,1,43.91,55H237a5.71,5.71,0,0,1,5.71,5.71V332.09A5.71,5.71,0,0,1,237,337.8ZM43.91,55.2a5.46,5.46,0,0,0-5.45,5.46V332.09a5.46,5.46,0,0,0,5.45,5.46H237a5.47,5.47,0,0,0,5.46-5.46V60.66A5.47,5.47,0,0,0,237,55.2Z" style="fill:#ebebeb"></path><path d="M453.31,337.8H260.21a5.72,5.72,0,0,1-5.71-5.71V60.66A5.72,5.72,0,0,1,260.21,55h193.1A5.71,5.71,0,0,1,459,60.66V332.09A5.71,5.71,0,0,1,453.31,337.8ZM260.21,55.2a5.47,5.47,0,0,0-5.46,5.46V332.09a5.47,5.47,0,0,0,5.46,5.46h193.1a5.47,5.47,0,0,0,5.46-5.46V60.66a5.47,5.47,0,0,0-5.46-5.46Z" style="fill:#ebebeb"></path><path d="M443.18,78.37V74.08L441,73.87a11.53,11.53,0,0,0-1.65-4l1.42-1.71-3-3L436,66.57a11.53,11.53,0,0,0-4-1.65l-.2-2.21h-4.3l-.21,2.21a11.48,11.48,0,0,0-4,1.65l-1.72-1.42-3,3L420,69.9a11.34,11.34,0,0,0-1.65,4l-2.21.21v4.29l2.21.21a11.34,11.34,0,0,0,1.65,4l-1.42,1.71,3,3,1.72-1.42a11.48,11.48,0,0,0,4,1.65l.21,2.21h4.3l.2-2.21a11.53,11.53,0,0,0,4-1.65l1.72,1.42,3-3-1.42-1.71a11.53,11.53,0,0,0,1.65-4ZM429.67,82a5.82,5.82,0,1,1,5.81-5.82A5.82,5.82,0,0,1,429.67,82Z" style="fill:#e0e0e0"></path><path d="M460.59,90.49V87.13L458.85,87a9,9,0,0,0-1.29-3.1l1.12-1.35-2.38-2.38L455,81.25a8.93,8.93,0,0,0-3.11-1.3l-.16-1.73h-3.36L448.15,80a9,9,0,0,0-3.11,1.3l-1.34-1.12-2.38,2.38,1.11,1.35a9.14,9.14,0,0,0-1.29,3.1l-1.73.17v3.36l1.73.17a9,9,0,0,0,1.29,3.1l-1.11,1.35,2.38,2.38L445,96.37a9,9,0,0,0,3.11,1.3l.17,1.73h3.36l.16-1.73a8.93,8.93,0,0,0,3.11-1.3l1.35,1.12,2.38-2.38-1.12-1.35a9,9,0,0,0,1.29-3.1ZM450,93.37a4.56,4.56,0,1,1,4.55-4.56A4.56,4.56,0,0,1,450,93.37Z" style="fill:#e0e0e0"></path><path d="M443.18,100.05V97.22l-1.45-.14a7.46,7.46,0,0,0-1.09-2.61l.94-1.13-2-2-1.13.94a7.65,7.65,0,0,0-2.61-1.09l-.14-1.45h-2.82l-.14,1.45a7.65,7.65,0,0,0-2.61,1.09L429,91.34l-2,2,.93,1.13a7.63,7.63,0,0,0-1.08,2.61l-1.46.14v2.83l1.46.13a7.63,7.63,0,0,0,1.08,2.61l-.93,1.13,2,2,1.13-.93a7.44,7.44,0,0,0,2.61,1.08l.14,1.46h2.82l.14-1.46a7.44,7.44,0,0,0,2.61-1.08l1.13.93,2-2-.94-1.13a7.46,7.46,0,0,0,1.09-2.61Zm-8.89,2.41a3.83,3.83,0,1,1,3.82-3.83A3.83,3.83,0,0,1,434.29,102.46Z" style="fill:#e0e0e0"></path><polygon points="50.47 381.47 72.81 232.98 72.81 381.47 78.81 381.47 78.81 232.05 101.19 381.47 107.61 381.47 79.61 194.44 78.81 194.56 78.81 188.47 72.81 188.47 72.81 194.53 71.99 194.44 43.92 381.47 50.47 381.47" style="fill:#e0e0e0"></polygon><polygon points="106.56 215.18 44.74 215.18 49.75 163.53 101.56 163.53 106.56 215.18" style="fill:#ebebeb"></polygon><text transform="translate(64.11 78.4)" style="font-size:12px;fill:#e0e0e0;font-family:Bebas"><tspan style="letter-spacing:0.025553385416666668em">1</tspan><tspan x="4.4" y="0" style="letter-spacing:0.016316731770833332em">0</tspan><tspan x="10.81" y="0" style="letter-spacing:0.017740885416666668em">11</tspan><tspan x="19.41" y="0" style="letter-spacing:0.025553385416666668em">1</tspan><tspan x="23.81" y="0" style="letter-spacing:0.023478190104166668em">00</tspan><tspan x="36.8" y="0" style="letter-spacing:0.016316731770833332em">0</tspan><tspan x="43.21" y="0" style="letter-spacing:0.025553385416666668em">1</tspan><tspan x="47.61" y="0" style="letter-spacing:0.016316731770833332em">0</tspan><tspan x="54.01" y="0" style="letter-spacing:0.025553385416666668em">1</tspan><tspan x="58.41" y="0" style="letter-spacing:0.016357421875em">0</tspan><tspan x="64.82" y="0" style="letter-spacing:0.025553385416666668em">1</tspan><tspan x="69.22" y="0" style="letter-spacing:0.0234375em">00</tspan><tspan x="82.21" y="0" style="letter-spacing:0.016316731770833332em">0</tspan><tspan x="88.62" y="0" style="letter-spacing:0.025553385416666668em">1</tspan><tspan x="93.01" y="0" style="letter-spacing:0.016357421875em">0</tspan><tspan x="99.42" y="0" style="letter-spacing:0.025553385416666668em">1</tspan><tspan x="103.82" y="0" style="letter-spacing:0.016316731770833332em">0</tspan><tspan x="110.23" y="0" style="letter-spacing:0.025553385416666668em">1</tspan><tspan x="114.63" y="0" style="letter-spacing:0.016357421875em">0</tspan><tspan x="121.04" y="0" style="letter-spacing:0.025553385416666668em">1</tspan><tspan x="125.43" y="0" style="letter-spacing:0.016316731770833332em">0</tspan><tspan x="131.84" y="0" style="letter-spacing:0.025553385416666668em">1</tspan><tspan x="136.24" y="0" style="letter-spacing:0.016316731770833332em">0</tspan><tspan x="142.65" y="0" style="letter-spacing:0.025553385416666668em">1</tspan><tspan x="147.04" y="0" style="letter-spacing:0.016357421875em">0</tspan><tspan x="153.45" y="0" style="letter-spacing:0.025553385416666668em">1</tspan><tspan x="157.85" y="0" style="letter-spacing:0.016316731770833332em">0</tspan><tspan x="164.26" y="0" style="letter-spacing:0.025553385416666668em">1</tspan><tspan x="168.66" y="0" style="letter-spacing:0.016316731770833332em">0</tspan><tspan x="175.07" y="0" style="letter-spacing:0.025553385416666668em">1</tspan><tspan x="179.46" y="0" style="letter-spacing:0.0234375em">000000</tspan><tspan x="218.43" y="0" style="letter-spacing:0.016316731770833332em">0</tspan><tspan x="224.84" y="0" style="letter-spacing:0.017740885416666668em">11111</tspan><tspan x="246.36" y="0" style="letter-spacing:0.025553385416666668em">1</tspan><tspan x="250.75" y="0" style="letter-spacing:0.023478190104166668em">0</tspan><tspan x="257.25" y="0" style="letter-spacing:0.016316731770833332em">0</tspan><tspan x="263.66" y="0" style="letter-spacing:0.025553385416666668em">1</tspan><tspan x="268.05" y="0" style="letter-spacing:0.016316731770833332em">0</tspan><tspan x="274.46" y="0" style="letter-spacing:0.017740885416666668em">111</tspan><tspan x="287.37" y="0" style="letter-spacing:0.025553385416666668em">1</tspan><tspan x="291.77" y="0" style="letter-spacing:0.016357421875em">0</tspan><tspan x="298.18" y="0" style="letter-spacing:0.025553385416666668em">1</tspan><tspan x="302.58" y="0" style="letter-spacing:0.016316731770833332em">0</tspan><tspan x="308.99" y="0">1</tspan></text><text transform="translate(142.56 319.29)" style="font-size:12px;fill:#e0e0e0;font-family:Bebas"><tspan style="letter-spacing:0.025553385416666668em">1</tspan><tspan x="4.4" y="0" style="letter-spacing:0.016316731770833332em">0</tspan><tspan x="10.81" y="0" style="letter-spacing:0.017740885416666668em">11</tspan><tspan x="19.41" y="0" style="letter-spacing:0.025553385416666668em">1</tspan><tspan x="23.81" y="0" style="letter-spacing:0.023478190104166668em">00</tspan><tspan x="36.8" y="0" style="letter-spacing:0.016316731770833332em">0</tspan><tspan x="43.21" y="0" style="letter-spacing:0.025553385416666668em">1</tspan><tspan x="47.61" y="0" style="letter-spacing:0.016316731770833332em">0</tspan><tspan x="54.01" y="0" style="letter-spacing:0.025553385416666668em">1</tspan><tspan x="58.41" y="0" style="letter-spacing:0.016357421875em">0</tspan><tspan x="64.82" y="0" style="letter-spacing:0.025553385416666668em">1</tspan><tspan x="69.22" y="0" style="letter-spacing:0.0234375em">00</tspan><tspan x="82.21" y="0" style="letter-spacing:0.016316731770833332em">0</tspan><tspan x="88.62" y="0" style="letter-spacing:0.025553385416666668em">1</tspan><tspan x="93.01" y="0" style="letter-spacing:0.016357421875em">0</tspan><tspan x="99.42" y="0" style="letter-spacing:0.025553385416666668em">1</tspan><tspan x="103.82" y="0" style="letter-spacing:0.016316731770833332em">0</tspan><tspan x="110.23" y="0" style="letter-spacing:0.025553385416666668em">1</tspan><tspan x="114.63" y="0" style="letter-spacing:0.016357421875em">0</tspan><tspan x="121.04" y="0" style="letter-spacing:0.025553385416666668em">1</tspan><tspan x="125.43" y="0" style="letter-spacing:0.016316731770833332em">0</tspan><tspan x="131.84" y="0" style="letter-spacing:0.025553385416666668em">1</tspan><tspan x="136.24" y="0" style="letter-spacing:0.0234375em">00</tspan><tspan x="149.23" y="0" style="letter-spacing:0.016316731770833332em">0</tspan><tspan x="155.64" y="0" style="letter-spacing:0.017740885416666668em">1111</tspan><tspan x="172.85" y="0" style="letter-spacing:0.025553385416666668em">1</tspan><tspan x="177.25" y="0" style="letter-spacing:0.016357421875em">0</tspan><tspan x="183.66" y="0" style="letter-spacing:0.025553385416666668em">1</tspan><tspan x="188.05" y="0" style="letter-spacing:0.016316731770833332em">0</tspan><tspan x="194.46" y="0" style="letter-spacing:0.025553385416666668em">1</tspan><tspan x="198.86" y="0" style="letter-spacing:0.016357421875em">0</tspan><tspan x="205.27" y="0" style="letter-spacing:0.025553385416666668em">1</tspan><tspan x="209.67" y="0" style="letter-spacing:0.0234375em">000</tspan><tspan x="229.15" y="0" style="letter-spacing:0.016316731770833332em">0</tspan><tspan x="235.56" y="0" style="letter-spacing:0.017740885416666668em">11</tspan><tspan x="244.17" y="0" style="letter-spacing:0.025553385416666668em">1</tspan><tspan x="248.56" y="0" style="letter-spacing:0.016357421875em">0</tspan><tspan x="254.97" y="0" style="letter-spacing:0.025553385416666668em">1</tspan><tspan x="259.37" y="0" style="letter-spacing:0.016316731770833332em">0</tspan><tspan x="265.78" y="0" style="letter-spacing:0.025553385416666668em">1</tspan><tspan x="270.18" y="0" style="letter-spacing:0.0234375em">0000</tspan><tspan x="296.15" y="0">0</tspan></text><text transform="translate(85.45 115.43)" style="font-size:12px;fill:#e0e0e0;font-family:Bebas"><tspan style="letter-spacing:0.016316731770833332em">0</tspan><tspan x="6.41" y="0" style="letter-spacing:0.025553385416666668em">1</tspan><tspan x="10.81" y="0" style="letter-spacing:0.016357421875em">0</tspan><tspan x="17.22" y="0" style="letter-spacing:0.025553385416666668em">1</tspan><tspan x="21.61" y="0" style="letter-spacing:0.016316731770833332em">0</tspan><tspan x="28.02" y="0" style="letter-spacing:0.025553385416666668em">1</tspan><tspan x="32.42" y="0" style="letter-spacing:0.0234375em">00</tspan><tspan x="45.41" y="0" style="letter-spacing:0.016357421875em">0</tspan><tspan x="51.82" y="0" style="letter-spacing:0.025553385416666668em">1</tspan><tspan x="56.21" y="0" style="letter-spacing:0.016316731770833332em">0</tspan><tspan x="62.62" y="0" style="letter-spacing:0.025553385416666668em">1</tspan><tspan x="67.02" y="0" style="letter-spacing:0.016316731770833332em">0</tspan><tspan x="73.43" y="0" style="letter-spacing:0.025553385416666668em">1</tspan><tspan x="77.83" y="0" style="letter-spacing:0.016357421875em">0</tspan><tspan x="84.24" y="0" style="letter-spacing:0.025553385416666668em">1</tspan><tspan x="88.63" y="0" style="letter-spacing:0.0234375em">000000</tspan><tspan x="127.6" y="0" style="letter-spacing:0.016316731770833332em">0</tspan><tspan x="134.01" y="0" style="letter-spacing:0.017740885416666668em">11111</tspan><tspan x="155.53" y="0" style="letter-spacing:0.025553385416666668em">1</tspan><tspan x="159.92" y="0" style="letter-spacing:0.0234375em">0</tspan><tspan x="166.42" y="0" style="letter-spacing:0.016357421875em">0</tspan><tspan x="172.83" y="0" style="letter-spacing:0.025553385416666668em">1</tspan><tspan x="177.22" y="0" style="letter-spacing:0.016316731770833332em">0</tspan><tspan x="183.63" y="0" style="letter-spacing:0.017740885416666668em">111</tspan><tspan x="196.54" y="0" style="letter-spacing:0.025553385416666668em">1</tspan><tspan x="200.94" y="0" style="letter-spacing:0.016316731770833332em">0</tspan><tspan x="207.35" y="0" style="letter-spacing:0.025553385416666668em">1</tspan><tspan x="211.75" y="0" style="letter-spacing:0.016357421875em">0</tspan><tspan x="218.16" y="0">1</tspan></text><text transform="translate(163.24 361.49)" style="font-size:12px;fill:#e0e0e0;font-family:Bebas"><tspan style="letter-spacing:0.016316731770833332em">0</tspan><tspan x="6.41" y="0" style="letter-spacing:0.025553385416666668em">1</tspan><tspan x="10.81" y="0" style="letter-spacing:0.016357421875em">0</tspan><tspan x="17.22" y="0" style="letter-spacing:0.025553385416666668em">1</tspan><tspan x="21.61" y="0" style="letter-spacing:0.016316731770833332em">0</tspan><tspan x="28.02" y="0" style="letter-spacing:0.025553385416666668em">1</tspan><tspan x="32.42" y="0" style="letter-spacing:0.0234375em">00</tspan><tspan x="45.41" y="0" style="letter-spacing:0.016357421875em">0</tspan><tspan x="51.82" y="0" style="letter-spacing:0.025553385416666668em">1</tspan><tspan x="56.21" y="0" style="letter-spacing:0.016316731770833332em">0</tspan><tspan x="62.62" y="0" style="letter-spacing:0.025553385416666668em">1</tspan><tspan x="67.02" y="0" style="letter-spacing:0.016316731770833332em">0</tspan><tspan x="73.43" y="0" style="letter-spacing:0.025553385416666668em">1</tspan><tspan x="77.83" y="0" style="letter-spacing:0.016357421875em">0</tspan><tspan x="84.24" y="0" style="letter-spacing:0.025553385416666668em">1</tspan><tspan x="88.63" y="0" style="letter-spacing:0.0234375em">000000</tspan><tspan x="127.6" y="0" style="letter-spacing:0.016316731770833332em">0</tspan><tspan x="134.01" y="0" style="letter-spacing:0.017740885416666668em">11111</tspan><tspan x="155.53" y="0" style="letter-spacing:0.025553385416666668em">1</tspan><tspan x="159.92" y="0" style="letter-spacing:0.0234375em">0</tspan><tspan x="166.42" y="0" style="letter-spacing:0.016357421875em">0</tspan><tspan x="172.83" y="0" style="letter-spacing:0.025553385416666668em">1</tspan><tspan x="177.22" y="0" style="letter-spacing:0.016316731770833332em">0</tspan><tspan x="183.63" y="0" style="letter-spacing:0.017740885416666668em">111</tspan><tspan x="196.54" y="0" style="letter-spacing:0.025553385416666668em">1</tspan><tspan x="200.94" y="0" style="letter-spacing:0.016316731770833332em">0</tspan><tspan x="207.35" y="0" style="letter-spacing:0.025553385416666668em">1</tspan><tspan x="211.75" y="0" style="letter-spacing:0.016357421875em">0</tspan><tspan x="218.16" y="0">1</tspan></text><text transform="translate(227.31 339.16)" style="font-size:12px;fill:#e0e0e0;font-family:Bebas"><tspan style="letter-spacing:0.016316731770833332em">0</tspan><tspan x="6.41" y="0" style="letter-spacing:0.025553385416666668em">1</tspan><tspan x="10.81" y="0" style="letter-spacing:0.016357421875em">0</tspan><tspan x="17.22" y="0" style="letter-spacing:0.025553385416666668em">1</tspan><tspan x="21.61" y="0" style="letter-spacing:0.016316731770833332em">0</tspan><tspan x="28.02" y="0" style="letter-spacing:0.025553385416666668em">1</tspan><tspan x="32.42" y="0" style="letter-spacing:0.0234375em">00</tspan><tspan x="45.41" y="0" style="letter-spacing:0.016357421875em">0</tspan><tspan x="51.82" y="0" style="letter-spacing:0.025553385416666668em">1</tspan><tspan x="56.21" y="0" style="letter-spacing:0.016316731770833332em">0</tspan><tspan x="62.62" y="0" style="letter-spacing:0.025553385416666668em">1</tspan><tspan x="67.02" y="0" style="letter-spacing:0.016316731770833332em">0</tspan><tspan x="73.43" y="0" style="letter-spacing:0.025553385416666668em">1</tspan><tspan x="77.83" y="0" style="letter-spacing:0.016357421875em">0</tspan><tspan x="84.24" y="0" style="letter-spacing:0.025553385416666668em">1</tspan><tspan x="88.63" y="0" style="letter-spacing:0.0234375em">000000</tspan><tspan x="127.6" y="0" style="letter-spacing:0.016316731770833332em">0</tspan><tspan x="134.01" y="0" style="letter-spacing:0.017740885416666668em">11111</tspan><tspan x="155.53" y="0" style="letter-spacing:0.025553385416666668em">1</tspan><tspan x="159.92" y="0" style="letter-spacing:0.0234375em">0</tspan><tspan x="166.42" y="0" style="letter-spacing:0.016357421875em">0</tspan><tspan x="172.83" y="0" style="letter-spacing:0.025553385416666668em">1</tspan><tspan x="177.22" y="0" style="letter-spacing:0.016316731770833332em">0</tspan><tspan x="183.63" y="0" style="letter-spacing:0.017740885416666668em">111</tspan><tspan x="196.54" y="0" style="letter-spacing:0.025553385416666668em">1</tspan><tspan x="200.94" y="0" style="letter-spacing:0.016316731770833332em">0</tspan><tspan x="207.35" y="0" style="letter-spacing:0.025553385416666668em">1</tspan><tspan x="211.75" y="0" style="letter-spacing:0.016357421875em">0</tspan><tspan x="218.16" y="0">1</tspan></text><text transform="translate(85.45 134)" style="font-size:12px;fill:#e0e0e0;font-family:Bebas"><tspan style="letter-spacing:0.016316731770833332em">0</tspan><tspan x="6.41" y="0" style="letter-spacing:0.025553385416666668em">1</tspan><tspan x="10.81" y="0" style="letter-spacing:0.016357421875em">0</tspan><tspan x="17.22" y="0" style="letter-spacing:0.025553385416666668em">1</tspan><tspan x="21.61" y="0" style="letter-spacing:0.016316731770833332em">0</tspan><tspan x="28.02" y="0" style="letter-spacing:0.025553385416666668em">1</tspan><tspan x="32.42" y="0" style="letter-spacing:0.0234375em">00</tspan><tspan x="45.41" y="0" style="letter-spacing:0.016357421875em">0</tspan><tspan x="51.82" y="0" style="letter-spacing:0.025553385416666668em">1</tspan><tspan x="56.21" y="0" style="letter-spacing:0.016316731770833332em">0</tspan><tspan x="62.62" y="0" style="letter-spacing:0.025553385416666668em">1</tspan><tspan x="67.02" y="0" style="letter-spacing:0.016316731770833332em">0</tspan><tspan x="73.43" y="0" style="letter-spacing:0.025553385416666668em">1</tspan><tspan x="77.83" y="0" style="letter-spacing:0.016357421875em">0</tspan><tspan x="84.24" y="0" style="letter-spacing:0.025553385416666668em">1</tspan><tspan x="88.63" y="0" style="letter-spacing:0.016316731770833332em">0</tspan><tspan x="95.04" y="0" style="letter-spacing:0.025553385416666668em">1</tspan><tspan x="99.44" y="0" style="letter-spacing:0.016357421875em">0</tspan><tspan x="105.85" y="0" style="letter-spacing:0.025553385416666668em">1</tspan><tspan x="110.25" y="0" style="letter-spacing:0.016316731770833332em">0</tspan><tspan x="116.65" y="0" style="letter-spacing:0.025553385416666668em">1</tspan><tspan x="121.05" y="0" style="letter-spacing:0.016316731770833332em">0</tspan><tspan x="127.46" y="0" style="letter-spacing:0.025553385416666668em">1</tspan><tspan x="131.86" y="0" style="letter-spacing:0.016357421875em">0</tspan><tspan x="138.27" y="0" style="letter-spacing:0.025553385416666668em">1</tspan><tspan x="142.66" y="0" style="letter-spacing:0.0234375em">000000</tspan><tspan x="181.63" y="0" style="letter-spacing:0.016316731770833332em">0</tspan><tspan x="188.04" y="0" style="letter-spacing:0.017740885416666668em">11111</tspan><tspan x="209.56" y="0" style="letter-spacing:0.025553385416666668em">1</tspan><tspan x="213.95" y="0" style="letter-spacing:0.0234375em">0</tspan><tspan x="220.45" y="0" style="letter-spacing:0.016316731770833332em">0</tspan><tspan x="226.86" y="0" style="letter-spacing:0.025553385416666668em">1</tspan><tspan x="231.25" y="0" style="letter-spacing:0.016357421875em">0</tspan><tspan x="237.66" y="0" style="letter-spacing:0.017740885416666668em">111</tspan><tspan x="250.58" y="0" style="letter-spacing:0.025553385416666668em">1</tspan><tspan x="254.97" y="0" style="letter-spacing:0.016316731770833332em">0</tspan><tspan x="261.38" y="0" style="letter-spacing:0.025553385416666668em">1</tspan><tspan x="265.78" y="0" style="letter-spacing:0.016316731770833332em">0</tspan><tspan x="272.19" y="0">1</tspan></text></g><g id="freepik--Shadow--inject-64"><ellipse id="freepik--path--inject-64" cx="250" cy="416.24" rx="193.89" ry="11.32" style="fill:#f5f5f5"></ellipse></g><g id="freepik--Window--inject-64"><path d="M444,92.61V293.86a9.36,9.36,0,0,1-9,9.14H145.39c-4.81,0-8.39-4.32-8.39-9.14V92.61A8.36,8.36,0,0,1,145.39,84H435A8.91,8.91,0,0,1,444,92.61Z" style="fill:#407BFF"></path><path d="M444,117.69V293.86a9.36,9.36,0,0,1-9,9.14H145.39c-4.81,0-8.39-4.32-8.39-9.14V225.29c25.48-49,86.22-56.94,157.33-28.29C395,237.56,437.93,182.51,444,117.69Z" style="fill:#fff;opacity:0.1;isolation:isolate"></path></g><g id="freepik--Bar--inject-64"><path d="M364.92,280H218a5,5,0,0,1-5-5h0a5,5,0,0,1,5-5H364.92a5,5,0,0,1,5,5h0A5,5,0,0,1,364.92,280Z" style="opacity:0.2;isolation:isolate"></path><path d="M218,279a4,4,0,1,1,0-8h86.84a4,4,0,1,1,0,8Z" style="fill:#407BFF"></path><path d="M218,279a4,4,0,1,1,0-8h86.84a4,4,0,1,1,0,8Z" style="fill:#fff;opacity:0.7000000000000001;isolation:isolate"></path></g><g id="freepik--Tabs--inject-64"><rect x="166.12" y="93.7" width="84.73" height="84.73" rx="8.74" style="opacity:0.2;isolation:isolate"></rect><rect x="189.88" y="84.4" width="71" height="71" rx="7.33" style="fill:#407BFF;isolation:isolate"></rect><rect x="189.88" y="84.4" width="71" height="71" rx="7.33" style="fill:#fff;opacity:0.30000000000000004;isolation:isolate"></rect><path d="M230.85,111.7v-4.29l-2.21-.21a11.4,11.4,0,0,0-1.65-4l1.42-1.72-3-3-1.71,1.42a11.53,11.53,0,0,0-4-1.65L219.48,96h-4.29L215,98.25a11.53,11.53,0,0,0-4,1.65l-1.71-1.42-3,3,1.42,1.72a11.4,11.4,0,0,0-1.65,4l-2.21.21v4.29l2.21.21a11.53,11.53,0,0,0,1.65,4l-1.42,1.72,3,3,1.71-1.42a11.53,11.53,0,0,0,4,1.65l.21,2.21h4.29l.21-2.21a11.53,11.53,0,0,0,4-1.65l1.71,1.42,3-3L227,115.88a11.53,11.53,0,0,0,1.65-4Zm-13.51,3.67a5.82,5.82,0,1,1,5.81-5.81A5.82,5.82,0,0,1,217.34,115.37Z" style="fill:#fff"></path><path d="M248.25,123.83v-3.37l-1.73-.16a8.92,8.92,0,0,0-1.29-3.11l1.11-1.34L244,113.47l-1.34,1.11a8.92,8.92,0,0,0-3.11-1.29l-.16-1.74H236l-.16,1.74a8.92,8.92,0,0,0-3.11,1.29l-1.34-1.11L229,115.85l1.11,1.34a8.92,8.92,0,0,0-1.29,3.11l-1.73.16v3.37l1.73.16a8.92,8.92,0,0,0,1.29,3.11L229,128.44l2.38,2.38,1.34-1.11a8.92,8.92,0,0,0,3.11,1.29l.16,1.73h3.37l.16-1.73a8.92,8.92,0,0,0,3.11-1.29l1.34,1.11,2.38-2.38-1.11-1.34a8.92,8.92,0,0,0,1.29-3.11Zm-10.59,2.87a4.56,4.56,0,1,1,4.56-4.56A4.56,4.56,0,0,1,237.66,126.7Z" style="fill:#fff"></path><path d="M230.85,133.38v-2.83l-1.46-.13a7.44,7.44,0,0,0-1.08-2.61l.93-1.13-2-2-1.13.93a7.6,7.6,0,0,0-2.61-1.08l-.14-1.46h-2.83l-.14,1.46a7.6,7.6,0,0,0-2.61,1.08l-1.13-.93-2,2,.93,1.13a7.44,7.44,0,0,0-1.08,2.61l-1.46.13v2.83l1.46.14a7.6,7.6,0,0,0,1.08,2.61l-.93,1.13,2,2,1.13-.93a7.82,7.82,0,0,0,2.61,1.09l.14,1.45h2.83l.14-1.45a7.82,7.82,0,0,0,2.61-1.09l1.13.93,2-2-.93-1.13a7.6,7.6,0,0,0,1.08-2.61ZM222,135.79a3.83,3.83,0,1,1,3.82-3.82A3.82,3.82,0,0,1,222,135.79Z" style="fill:#fff"></path><rect x="192.88" y="84.4" width="71" height="71" rx="7.33" style="fill:#fff;opacity:0.2;isolation:isolate"></rect><rect x="294" y="175.94" width="78.33" height="78.33" rx="8.08" style="opacity:0.2;isolation:isolate"></rect><rect x="313.68" y="171.75" width="65.63" height="65.63" rx="6.77" style="fill:#407BFF;isolation:isolate"></rect><rect x="313.68" y="171.75" width="65.63" height="65.63" rx="6.77" style="fill:#fff;opacity:0.2;isolation:isolate"></rect><path d="M349,215.11a2.37,2.37,0,1,1-2.36-2.37A2.37,2.37,0,0,1,349,215.11Z" style="fill:#fff"></path><path d="M346.43,191.47A23.52,23.52,0,0,0,322.9,215h18.79a4.43,4.43,0,0,1,4.74-4.64,5.11,5.11,0,0,1,1.41.27l8.81-10.23-6.22,12.1a4.46,4.46,0,0,1,.73,2.5H370A23.53,23.53,0,0,0,346.43,191.47Z" style="fill:#fff"></path><rect x="316.45" y="171.75" width="65.63" height="65.63" rx="6.77" style="fill:#fff;opacity:0.2;isolation:isolate"></rect><rect x="321.7" y="113.34" width="68.73" height="68.73" rx="7.09" style="opacity:0.2;isolation:isolate"></rect><rect x="340.13" y="107.28" width="57.59" height="57.59" rx="5.94" style="fill:#407BFF;isolation:isolate"></rect><rect x="340.13" y="107.28" width="57.59" height="57.59" rx="5.94" style="fill:#fff;opacity:0.1;isolation:isolate"></rect><path d="M385,121.89a1.89,1.89,0,0,0-1.89-1.89H354.89a1.89,1.89,0,0,0-1.89,1.89v6.22a1.89,1.89,0,0,0,1.89,1.89h28.22a1.89,1.89,0,0,0,1.89-1.89Zm-9.32,3.37h-1.62v-1.62h1.62Zm4.33.81a1.63,1.63,0,1,1,1.62-1.62A1.62,1.62,0,0,1,380,126.07Z" style="fill:#fff"></path><path d="M385,132.89a1.89,1.89,0,0,0-1.89-1.89H354.89a1.89,1.89,0,0,0-1.89,1.89v6.22a1.89,1.89,0,0,0,1.89,1.89h28.22a1.89,1.89,0,0,0,1.89-1.89Zm-9.32,4h-1.62v-1.62h1.62Zm4.33.81a1.62,1.62,0,1,1,1.62-1.62A1.61,1.61,0,0,1,380,137.69Z" style="fill:#fff"></path><path d="M385,143.89a1.89,1.89,0,0,0-1.89-1.89H354.89a1.89,1.89,0,0,0-1.89,1.89v6.22a1.89,1.89,0,0,0,1.89,1.89h28.22a1.89,1.89,0,0,0,1.89-1.89Zm-9.32,4.62h-1.62v-1.62h1.62Zm4.33.81a1.62,1.62,0,1,1,1.62-1.62A1.62,1.62,0,0,1,380,149.32Z" style="fill:#fff"></path><rect x="342.57" y="107.28" width="57.59" height="57.59" rx="5.94" style="fill:#fff;opacity:0.2;isolation:isolate"></rect><rect x="209.61" y="166.56" width="84.73" height="84.73" rx="8.74" style="opacity:0.2;isolation:isolate"></rect><rect x="229.49" y="160.57" width="71" height="71" rx="7.33" style="fill:#407BFF;isolation:isolate"></rect><rect x="229.49" y="160.57" width="71" height="71" rx="7.33" style="fill:#fff;opacity:0.5;isolation:isolate"></rect><path d="M245.35,215.56h0a5.55,5.55,0,0,1,0-7.85l13-12.94a3.11,3.11,0,0,1,4.42,0l3.42,3.41a3.12,3.12,0,0,1,0,4.43l-12.95,12.95A5.53,5.53,0,0,1,245.35,215.56Z" style="fill:#fff"></path><polygon points="269.21 194.25 266.66 191.7 281.29 177.07 284.48 176.43 283.84 179.62 269.21 194.25" style="fill:#fff"></polygon><path d="M267.77,197.64l-4.5-4.51a1,1,0,0,1,0-1.45h0a1,1,0,0,1,1.46,0l4.5,4.5a1,1,0,0,1,0,1.46h0A1,1,0,0,1,267.77,197.64Z" style="fill:#fff"></path><path d="M261.71,189l-6.17-6.19c1.15-3.09-1.18-6.89-3.71-7.89l-.05,4.76a2,2,0,0,1-2,2,2,2,0,0,1-2-2V175a6.58,6.58,0,0,0-4.1,5.76,6.11,6.11,0,0,0,5.34,6,5.27,5.27,0,0,0,3-.42l6.22,6.24Z" style="fill:#fff"></path><path d="M282.25,212.48v4.73a6.58,6.58,0,0,0,4.1-5.76,6.12,6.12,0,0,0-5.2-6.09,4.81,4.81,0,0,0-2.85.28l-6.46-6.48-3.54,3.54,6.42,6.43c-1.86,3.8,1,7,3.57,8v-4.7a2,2,0,0,1,2-2A2,2,0,0,1,282.25,212.48Z" style="fill:#fff"></path><rect x="232.49" y="160.57" width="71" height="71" rx="7.33" style="fill:#fff;opacity:0.2;isolation:isolate"></rect><rect x="269.41" y="62.13" width="85.58" height="85.58" rx="8.83" transform="translate(624.41 209.85) rotate(180)" style="fill:#407BFF;isolation:isolate"></rect><rect x="249.67" y="75.73" width="102.14" height="102.14" rx="10.54" style="opacity:0.2;isolation:isolate"></rect><rect x="269.41" y="62.13" width="85.58" height="85.58" rx="8.83" transform="translate(624.41 209.85) rotate(180)" style="fill:#fff;opacity:0.5;isolation:isolate"></rect><path d="M312.18,78.41,286,88.69s3.31,36,26.21,42.75c22.91-6.75,26.22-42.75,26.22-42.75Zm-.66,34.86a1.85,1.85,0,0,1-1.45.73h0a1.82,1.82,0,0,1-1.45-.76l-9.19-12.67a1.81,1.81,0,1,1,2.93-2.13l7.76,10.68L322.8,92.38a1.81,1.81,0,0,1,2.53-.35,2,2,0,0,1,.35,2.65Z" style="fill:#fff"></path><rect x="273.03" y="62.13" width="85.58" height="85.58" rx="8.83" transform="translate(631.64 209.85) rotate(180)" style="fill:#fff;opacity:0.2;isolation:isolate"></rect></g><g id="freepik--Promt-2--inject-64"><rect x="347.81" y="284.93" width="85.25" height="57.53" style="fill:#407BFF"></rect><rect x="347.81" y="284.93" width="85.25" height="57.53" style="fill:#fff;opacity:0.7000000000000001;isolation:isolate"></rect><rect x="349.39" y="289.36" width="81.87" height="51.18" style="fill:#263238"></rect><rect x="353.14" y="297.29" width="67.31" height="1.5" style="fill:#e0e0e0"></rect><rect x="353.14" y="301.54" width="57.3" height="1.5" style="fill:#e0e0e0"></rect><rect x="353.14" y="305.79" width="67.31" height="1.5" style="fill:#e0e0e0"></rect><rect x="353.14" y="310.04" width="57.3" height="1.5" style="fill:#e0e0e0"></rect><rect x="353.14" y="314.29" width="7.27" height="1.5" style="fill:#e0e0e0"></rect><rect x="353.14" y="318.54" width="37.29" height="1.5" style="fill:#e0e0e0"></rect><rect x="353.14" y="322.79" width="57.3" height="1.5" style="fill:#e0e0e0"></rect><rect x="353.14" y="327.04" width="7.27" height="1.5" style="fill:#e0e0e0"></rect><rect x="353.14" y="331.29" width="7.27" height="1.5" style="fill:#e0e0e0"></rect></g><g id="freepik--Promt-1--inject-64"><rect x="101.98" y="165.24" width="85.25" height="57.53" style="fill:#407BFF"></rect><rect x="101.98" y="165.24" width="85.25" height="57.53" style="fill:#fff;opacity:0.7000000000000001;isolation:isolate"></rect><rect x="103.57" y="169.67" width="81.87" height="51.18" style="fill:#263238"></rect><rect x="107.32" y="177.6" width="67.31" height="1.5" style="fill:#e0e0e0"></rect><rect x="107.32" y="181.85" width="57.3" height="1.5" style="fill:#e0e0e0"></rect><rect x="107.32" y="186.1" width="67.31" height="1.5" style="fill:#e0e0e0"></rect><rect x="107.32" y="190.35" width="57.3" height="1.5" style="fill:#e0e0e0"></rect><rect x="107.32" y="194.6" width="7.27" height="1.5" style="fill:#e0e0e0"></rect><rect x="107.32" y="198.85" width="37.29" height="1.5" style="fill:#e0e0e0"></rect><rect x="107.32" y="203.1" width="57.3" height="1.5" style="fill:#e0e0e0"></rect><rect x="107.32" y="207.35" width="7.27" height="1.5" style="fill:#e0e0e0"></rect><rect x="107.32" y="211.6" width="7.27" height="1.5" style="fill:#e0e0e0"></rect></g></svg>