<svg class="animated" id="freepik_stories-setup-wizard" xmlns="http://www.w3.org/2000/svg" viewBox="0 0 500 500" version="1.1" xmlns:xlink="http://www.w3.org/1999/xlink" xmlns:svgjs="http://svgjs.com/svgjs">
	<style>
		svg#freepik_stories-setup-wizard:not(.animated) .animable {opacity: 0;}svg#freepik_stories-setup-wizard.animated #freepik--Floor--inject-194 {animation: 1s 1 forwards cubic-bezier(.36,-0.01,.5,1.38) slideUp;animation-delay: 0s;}svg#freepik_stories-setup-wizard.animated #freepik--Shadows--inject-194 {animation: 1s 1 forwards cubic-bezier(.36,-0.01,.5,1.38) zoomOut;animation-delay: 0s;}svg#freepik_stories-setup-wizard.animated #freepik--Clouds--inject-194 {animation: 1s 1 forwards cubic-bezier(.36,-0.01,.5,1.38) slideLeft,1.5s Infinite  linear floating;animation-delay: 0s,1s;}svg#freepik_stories-setup-wizard.animated #freepik--Plants--inject-194 {animation: 1s 1 forwards cubic-bezier(.36,-0.01,.5,1.38) lightSpeedLeft;animation-delay: 0s;}svg#freepik_stories-setup-wizard.animated #freepik--Window--inject-194 {animation: 1s 1 forwards cubic-bezier(.36,-0.01,.5,1.38) slideUp;animation-delay: 0s;}svg#freepik_stories-setup-wizard.animated #freepik--Tabs--inject-194 {animation: 1s 1 forwards cubic-bezier(.36,-0.01,.5,1.38) fadeIn;animation-delay: 0s;}svg#freepik_stories-setup-wizard.animated #freepik--magic-wand--inject-194 {animation: 1s 1 forwards cubic-bezier(.36,-0.01,.5,1.38) slideDown,1.5s Infinite  linear heartbeat;animation-delay: 0s,1s;}svg#freepik_stories-setup-wizard.animated #freepik--Character--inject-194 {animation: 1s 1 forwards cubic-bezier(.36,-0.01,.5,1.38) slideUp;animation-delay: 0s;}            @keyframes slideUp {                0% {                    opacity: 0;                    transform: translateY(30px);                }                100% {                    opacity: 1;                    transform: inherit;                }            }                    @keyframes zoomOut {                0% {                    opacity: 0;                    transform: scale(1.5);                }                100% {                    opacity: 1;                    transform: scale(1);                }            }                    @keyframes slideLeft {                0% {                    opacity: 0;                    transform: translateX(-30px);                }                100% {                    opacity: 1;                    transform: translateX(0);                }            }                    @keyframes floating {                0% {                    opacity: 1;                    transform: translateY(0px);                }                50% {                    transform: translateY(-10px);                }                100% {                    opacity: 1;                    transform: translateY(0px);                }            }                    @keyframes lightSpeedLeft {              from {                transform: translate3d(-50%, 0, 0) skewX(20deg);                opacity: 0;              }              60% {                transform: skewX(-10deg);                opacity: 1;              }              80% {                transform: skewX(2deg);              }              to {                opacity: 1;                transform: translate3d(0, 0, 0);              }            }                    @keyframes fadeIn {                0% {                    opacity: 0;                }                100% {                    opacity: 1;                }            }                    @keyframes slideDown {                0% {                    opacity: 0;                    transform: translateY(-30px);                }                100% {                    opacity: 1;                    transform: translateY(0);                }            }                    @keyframes heartbeat {                0% {                    transform: scale(1);                }                10% {                    transform: scale(1.1);                }                30% {                    transform: scale(1);                }                40% {                    transform: scale(1);                }                50% {                    transform: scale(1.1);                }                60% {                    transform: scale(1);                }                100% {                    transform: scale(1);                }            }
	</style>
	<g id="freepik--Floor--inject-194" class="animable" style="transform-origin: 250px 352.38px;">
		<ellipse id="freepik--floor--inject-194" cx="250" cy="352.38" rx="239.65" ry="134.69" style="fill: rgb(245, 245, 245); transform-origin: 250px 352.38px;" class="animable">
		</ellipse>
	</g>
	<g id="freepik--Shadows--inject-194" class="animable" style="transform-origin: 237.715px 323.729px;">
		<path id="freepik--Shadow--inject-194" d="M70.48,403.52,27.19,378.66c-2.39-1.38-2.39-3.62,0-5L288,222.25a8.85,8.85,0,0,1,8.5.25l40.92,27.1c2.31,1.52,2.23,3.88-.16,5.25L79.15,403.51A9.63,9.63,0,0,1,70.48,403.52Z" style="fill: rgb(224, 224, 224); transform-origin: 182.251px 312.915px;" class="animable">
		</path>
		<path id="freepik--shadow--inject-194" d="M435.88,418c-18.87,10.9-49.47,10.9-68.34,0s-18.87-28.56,0-39.45,49.47-10.9,68.34,0S454.75,407.09,435.88,418Z" style="fill: rgb(224, 224, 224); transform-origin: 401.71px 398.277px;" class="animable">
		</path>
	</g>
	<g id="freepik--Clouds--inject-194" class="animable animator-active" style="transform-origin: 103.75px 85.2256px;">
		<g id="freepik--clouds--inject-194" class="animable" style="transform-origin: 103.75px 85.2256px;">
			<path d="M98.29,64.84l-6.81,3.94c0-.31,0-.61,0-.91v-2c0-3.52-2.46-4.94-5.51-3.18a10.76,10.76,0,0,0-3.28,3.15c-.5-4.42-4-6.06-8.18-3.63-4.55,2.63-8.25,9-8.25,14.28v3A7.85,7.85,0,0,0,67,82.9l-5.66,3.27a6.75,6.75,0,0,0-3.06,5.29c0,2,1.37,2.74,3.06,1.77L98.29,71.9a6.77,6.77,0,0,0,3.06-5.3C101.35,64.65,100,63.86,98.29,64.84Z" style="fill: rgb(235, 235, 235); transform-origin: 79.815px 77.3692px;" id="el6dy9emsbyir" class="animable">
			</path>
			<path d="M144.34,73.69l-3.76,1.45V66.85c0-6.57-5.24-8.14-10.92-4.86h0c-5.69,3.29-10.3,11.27-10.3,17.84V81a5.55,5.55,0,0,0-4.78.74h0a16.36,16.36,0,0,0-7.41,12.84v.54l-5.25,3A10.81,10.81,0,0,0,97,106.63c0,3.12,2.19,4.38,4.88,2.82L144.34,85a10.78,10.78,0,0,0,4.88-8.45C149.22,73.39,147,72.13,144.34,73.69Z" style="fill: rgb(235, 235, 235); transform-origin: 123.11px 85.2256px;" id="elwhv3z2it1k" class="animable">
			</path>
		</g>
	</g>
	<g id="freepik--Plants--inject-194" class="animable" style="transform-origin: 243.936px 363.352px;">
		<g id="freepik--plants--inject-194" class="animable" style="transform-origin: 443.699px 362.573px;">
			<path d="M422.27,367.2s1.35-11.84,7.24-21,14-14.92,21.53-15.52,13.66,6.35,5.58,11.12-22.44,9.64-29.05,27.49Z" style="fill: rgb(49, 66, 255); transform-origin: 441.354px 349.967px;" id="el26hyhy90cpv" class="animable">
			</path>
			<g id="elpovosp99w9g">
				<path d="M422.27,367.2s1.35-11.84,7.24-21,14-14.92,21.53-15.52,13.66,6.35,5.58,11.12-22.44,9.64-29.05,27.49Z" style="opacity: 0.3; transform-origin: 441.354px 349.967px;" class="animable">
				</path>
			</g>
			<path d="M424.48,364.12l-.08,0a.41.41,0,0,1-.22-.53c8-19.62,23.14-27.82,30.05-29.41a.4.4,0,0,1,.49.3.41.41,0,0,1-.3.49c-6.77,1.55-21.65,9.61-29.49,28.93A.39.39,0,0,1,424.48,364.12Z" style="fill: rgb(255, 255, 255); transform-origin: 439.441px 349.149px;" id="eln7dbwmuby3" class="animable">
			</path>
			<path d="M464.83,364.36c-.69,1.54-2.37,2.34-3.94,3s-3.26,1.31-4.11,2.77c-1.7,2.94,1.1,7.08-.73,9.95a5.33,5.33,0,0,1-3.6,2.09c-1.17.21-2.36.21-3.54.31a13.28,13.28,0,0,1-1.68-.13,7.64,7.64,0,0,0-4.88.52c-2.34,1.31-3.05,4.27-4.48,6.55a11.07,11.07,0,0,1-7.88,4.94c-1.05.14-3,.33-4.08-.27a1.64,1.64,0,0,1-.22-.14s0,0,0,0a4.82,4.82,0,0,1-.41-.49.16.16,0,0,1,0-.07c-.42-1.52.26-3.11.29-4.69v-.29c-.07-1.83-.12-3.65-.16-5.48-.09-3.37-.13-6.74-.1-10.11,0-2.18-.24-4.58.68-6.64,1-2.27,3.57-2.31,4.54-4.54.38-.88.59-1.83,1-2.73a7.85,7.85,0,0,1,6.67-4.66c4.45-.22,8.44,3.38,12.89,3.05a32.86,32.86,0,0,0,3.4-.65c3.61-.67,7.77.35,9.8,3.4A4.67,4.67,0,0,1,464.83,364.36Z" style="fill: rgb(49, 66, 255); transform-origin: 445.136px 374.372px;" id="eldeduz4wpftl" class="animable">
			</path>
			<g id="el9jwdfkbb309">
				<g style="opacity: 0.15; transform-origin: 445.136px 374.372px;" class="animable">
					<path d="M464.83,364.36c-.69,1.54-2.37,2.34-3.94,3s-3.26,1.31-4.11,2.77c-1.7,2.94,1.1,7.08-.73,9.95a5.33,5.33,0,0,1-3.6,2.09c-1.17.21-2.36.21-3.54.31a13.28,13.28,0,0,1-1.68-.13,7.64,7.64,0,0,0-4.88.52c-2.34,1.31-3.05,4.27-4.48,6.55a11.07,11.07,0,0,1-7.88,4.94c-1.05.14-3,.33-4.08-.27a1.64,1.64,0,0,1-.22-.14s0,0,0,0a4.82,4.82,0,0,1-.41-.49.16.16,0,0,1,0-.07c-.42-1.52.26-3.11.29-4.69v-.29c-.07-1.83-.12-3.65-.16-5.48-.09-3.37-.13-6.74-.1-10.11,0-2.18-.24-4.58.68-6.64,1-2.27,3.57-2.31,4.54-4.54.38-.88.59-1.83,1-2.73a7.85,7.85,0,0,1,6.67-4.66c4.45-.22,8.44,3.38,12.89,3.05a32.86,32.86,0,0,0,3.4-.65c3.61-.67,7.77.35,9.8,3.4A4.67,4.67,0,0,1,464.83,364.36Z" id="el9z75bke5sz8" class="animable" style="transform-origin: 445.136px 374.372px;">
					</path>
				</g>
			</g>
			<path d="M424.85,386.33h0a.38.38,0,0,1-.26-.47c6.14-23.06,30.44-26.39,36.13-26a.38.38,0,1,1-.06.75c-5.56-.4-29.33,2.86-35.34,25.43A.38.38,0,0,1,424.85,386.33Z" style="fill: rgb(255, 255, 255); transform-origin: 442.849px 373.087px;" id="elxezhf4hpxeo" class="animable">
			</path>
			<path d="M451.85,374.65a.44.44,0,0,1-.2-.11,20.21,20.21,0,0,0-16.53-4.66.38.38,0,1,1-.12-.75A20.94,20.94,0,0,1,452.19,374a.37.37,0,0,1,0,.53A.4.4,0,0,1,451.85,374.65Z" style="fill: rgb(255, 255, 255); transform-origin: 443.484px 371.75px;" id="elo83q6misg8d" class="animable">
			</path>
		</g>
		<g id="freepik--plants--inject-194" class="animable" style="transform-origin: 48.3334px 363.352px;">
			<path d="M73.16,375.5c-1.33-7.62-2.24-21.94-11-34-6.32-8.74-16.29-16.57-23.91-14.3-7.1,2.11-5.83,13.36,2.42,19.79s18.89,15.45,23.73,32l7.15,11.65Z" style="fill: rgb(49, 66, 255); transform-origin: 53.3904px 358.722px;" id="el2cbgppk20nn" class="animable">
			</path>
			<g id="elq8vrysxc2dt">
				<g style="opacity: 0.3; transform-origin: 53.3904px 358.722px;" class="animable">
					<path d="M73.16,375.5c-1.33-7.62-2.24-21.94-11-34-6.32-8.74-16.29-16.57-23.91-14.3-7.1,2.11-5.83,13.36,2.42,19.79s18.89,15.45,23.73,32l7.15,11.65Z" id="el7eubkp2zdm7" class="animable" style="transform-origin: 53.3904px 358.722px;">
					</path>
				</g>
			</g>
			<path d="M71.48,381.3a.55.55,0,0,1-.53-.47c-2.87-21.82-13-38.6-29.39-48.5a.54.54,0,0,1,.56-.92c16.65,10.08,27,27.12,29.9,49.28a.54.54,0,0,1-.46.61Z" style="fill: rgb(255, 255, 255); transform-origin: 56.6797px 356.325px;" id="elde61yn79gec" class="animable">
			</path>
			<path d="M70.82,391.88a27.39,27.39,0,0,1-12.16,7.2c-7.94,2.34-12-1.07-12-1.07s2.2-8,6.53-10.76a45.73,45.73,0,0,0-13.33,7.61s-4.94.72-7.89-6.58c0,0,2.34-4.93,11.86-8.67,0,0-6.19-.73-14.53,2.6-.61.34-4.65-9.07-6.07-13.47s.4-4.59,3.79-6,15.28-3.54,17.73-1.9S49.17,369,49.17,369s1.61-4,.67-7.29a12.72,12.72,0,0,1,7.5-.79c4.13.86,5,3.54,5.9,6.28a20.91,20.91,0,0,1,1,8.8s2.11-5.18.69-9.78a16.53,16.53,0,0,1,6.83,5.19C74.4,375,75.2,385.36,70.82,391.88Z" style="fill: rgb(49, 66, 255); transform-origin: 48.3334px 380.073px;" id="el9zvuadj7rwe" class="animable">
			</path>
			<g id="elv3m54kn9zyf">
				<path d="M70.82,391.88a27.39,27.39,0,0,1-12.16,7.2c-7.94,2.34-12-1.07-12-1.07s2.2-8,6.53-10.76a45.73,45.73,0,0,0-13.33,7.61s-4.94.72-7.89-6.58c0,0,2.34-4.93,11.86-8.67,0,0-6.19-.73-14.53,2.6-.61.34-4.65-9.07-6.07-13.47s.4-4.59,3.79-6,15.28-3.54,17.73-1.9S49.17,369,49.17,369s1.61-4,.67-7.29a12.72,12.72,0,0,1,7.5-.79c4.13.86,5,3.54,5.9,6.28a20.91,20.91,0,0,1,1,8.8s2.11-5.18.69-9.78a16.53,16.53,0,0,1,6.83,5.19C74.4,375,75.2,385.36,70.82,391.88Z" style="opacity: 0.15; transform-origin: 48.3334px 380.073px;" class="animable">
				</path>
			</g>
			<path d="M70.82,392.42a.52.52,0,0,1-.45-.24c-8.31-12.73-34.66-25.33-43.59-25.89a.54.54,0,0,1-.5-.57.51.51,0,0,1,.57-.5c9.1.56,36,13.41,44.42,26.37a.55.55,0,0,1-.16.75A.6.6,0,0,1,70.82,392.42Z" style="fill: rgb(255, 255, 255); transform-origin: 48.8167px 378.818px;" id="ele9hb630u0ml" class="animable">
			</path>
		</g>
	</g>
	<g id="freepik--Window--inject-194" class="animable" style="transform-origin: 202.531px 213.903px;">
		<g id="freepik--window--inject-194" class="animable" style="transform-origin: 202.531px 213.903px;">
			<g id="freepik--window--inject-194" class="animable" style="transform-origin: 202.531px 213.903px;">
				<path d="M335.87,49l-5.13-3L69.19,197V390.25a3.86,3.86,0,0,0,1.59,3.54h0l5.12,3h0a3.83,3.83,0,0,0,3.87-.38L330.4,251.7a12.11,12.11,0,0,0,5.47-9.47Z" style="fill: rgb(49, 66, 255); transform-origin: 202.519px 221.573px;" id="elki9rl1lyjlk" class="animable">
				</path>
				<g id="elh2txfdo9le5">
					<path d="M335.87,49l-5.13-3L69.19,197V390.25a3.86,3.86,0,0,0,1.59,3.54h0l5.12,3h0a3.83,3.83,0,0,0,3.87-.38L330.4,251.7a12.11,12.11,0,0,0,5.47-9.47Z" style="opacity: 0.15; transform-origin: 202.519px 221.573px;" class="animable">
					</path>
				</g>
				<path d="M75.84,396.73l-5-2.94a3.85,3.85,0,0,1-1.6-3.54V218.45l5.13,3V393.23A3.93,3.93,0,0,0,75.84,396.73Z" style="fill: rgb(49, 66, 255); transform-origin: 72.5295px 307.59px;" id="el1z670iqanh7" class="animable">
				</path>
				<g id="elxfpwfjm55md">
					<g style="opacity: 0.65; transform-origin: 72.5295px 307.59px;" class="animable">
						<path d="M75.84,396.73l-5-2.94a3.85,3.85,0,0,1-1.6-3.54V218.45l5.13,3V393.23A3.93,3.93,0,0,0,75.84,396.73Z" style="fill: rgb(255, 255, 255); transform-origin: 72.5295px 307.59px;" id="elx9m3sqs9vq" class="animable">
						</path>
					</g>
				</g>
				<g id="elehcs5s09ujs">
					<path d="M75.84,396.73l-5-2.94a3.85,3.85,0,0,1-1.6-3.54V218.45l5.13,3V393.23A3.93,3.93,0,0,0,75.84,396.73Z" style="opacity: 0.1; transform-origin: 72.5295px 307.59px;" class="animable">
					</path>
				</g>
				<path d="M74.31,393.24c0,3.48,2.45,4.9,5.47,3.15L330.4,251.7a12.11,12.11,0,0,0,5.47-9.47V49L74.31,200Z" style="fill: rgb(49, 66, 255); transform-origin: 205.09px 223.07px;" id="elmi5yob43s9q" class="animable">
				</path>
				<g id="el0y7oylu7hph">
					<g style="opacity: 0.75; transform-origin: 205.09px 223.07px;" class="animable">
						<path d="M74.31,393.24c0,3.48,2.45,4.9,5.47,3.15L330.4,251.7a12.11,12.11,0,0,0,5.47-9.47V49L74.31,200Z" style="fill: rgb(255, 255, 255); transform-origin: 205.09px 223.07px;" id="elu8ztaxgxvc" class="animable">
						</path>
					</g>
				</g>
				<polygon points="74.31 200 74.31 221.41 335.86 70.41 335.87 49 74.31 200" style="fill: rgb(49, 66, 255); transform-origin: 205.09px 135.205px;" id="elsjq5oevxs" class="animable">
				</polygon>
				<path d="M285.41,86.59v5.09c0,1,.73,1.47,1.64.95l33.42-19.35V64.4L287.05,83.75A3.64,3.64,0,0,0,285.41,86.59Z" style="fill: rgb(250, 250, 250); transform-origin: 302.94px 78.622px;" id="eldsbslepm8al" class="animable">
				</path>
				<path d="M329.1,59.42c.9-.52,1.64-.1,1.64.95v5.1a3.66,3.66,0,0,1-1.64,2.84l-8.62,5V64.4Z" style="fill: rgb(69, 90, 100); transform-origin: 325.61px 66.2536px;" id="el88vg9i71blj" class="animable">
				</path>
				<path d="M328.46,66.41l-1-.3a5.26,5.26,0,0,0,.15-1.24,2.27,2.27,0,0,0-.87-2.05,1.34,1.34,0,0,0-1.4.07,4.89,4.89,0,0,0-1.92,4,2.28,2.28,0,0,0,.87,2.06,1.21,1.21,0,0,0,.61.16,1.59,1.59,0,0,0,.79-.23,4,4,0,0,0,1.56-2.08l1,.3.11,0a.36.36,0,0,0,.34-.25A.37.37,0,0,0,328.46,66.41Zm-3.08,1.84a.66.66,0,0,1-.69.07,1.67,1.67,0,0,1-.52-1.44,4.31,4.31,0,0,1,1.56-3.38.88.88,0,0,1,.44-.13.45.45,0,0,1,.25.07,1.65,1.65,0,0,1,.52,1.43A4.31,4.31,0,0,1,325.38,68.25Z" style="fill: rgb(250, 250, 250); transform-origin: 326.058px 65.8829px;" id="el101i5ound3l" class="animable">
				</path>
				<path d="M95,193.11l-6.49,3.74a4,4,0,0,0-1.79,3.1v7.5c0,1.14.81,1.6,1.79,1L95,204.73a3.94,3.94,0,0,0,1.79-3.09v-7.5C96.76,193,96,192.54,95,193.11ZM91.73,205.2c-2.11,1.21-3.82.23-3.82-2.2a8.41,8.41,0,0,1,3.82-6.61c2.1-1.22,3.81-.23,3.81,2.21A8.46,8.46,0,0,1,91.73,205.2Z" style="fill: rgb(250, 250, 250); transform-origin: 91.755px 200.79px;" id="elr6l585mwzf" class="animable">
				</path>
				<path d="M89.26,202.22c0,1.57,1.1,2.21,2.47,1.42a5.46,5.46,0,0,0,2.46-4.27c0-1.57-1.1-2.21-2.46-1.42A5.43,5.43,0,0,0,89.26,202.22Z" style="fill: rgb(250, 250, 250); transform-origin: 91.725px 200.795px;" id="elg5kqnb5ir3" class="animable">
				</path>
				<path d="M101.88,192.43v.63c0,.69.49,1,1.08.63l18.15-10.48a2.37,2.37,0,0,0,1.08-1.87v-.63c0-.69-.48-1-1.08-.63L103,190.56A2.39,2.39,0,0,0,101.88,192.43Z" style="fill: rgb(69, 90, 100); transform-origin: 112.035px 186.885px;" id="elt20qamsvsw" class="animable">
				</path>
				<path d="M183.12,147.93v.63c0,.69.49,1,1.08.63l14.09-8.13a2.39,2.39,0,0,0,1.08-1.87v-.63c0-.69-.48-1-1.08-.63l-14.09,8.13A2.39,2.39,0,0,0,183.12,147.93Z" style="fill: rgb(69, 90, 100); transform-origin: 191.245px 143.56px;" id="el142obobnoa2k" class="animable">
				</path>
				<path d="M207.49,133.86v.63c0,.69.49,1,1.09.63L222.66,127a2.37,2.37,0,0,0,1.08-1.87v-.63c0-.69-.48-1-1.08-.63L208.58,132A2.38,2.38,0,0,0,207.49,133.86Z" style="fill: rgb(69, 90, 100); transform-origin: 215.615px 129.495px;" id="elngytedxstz" class="animable">
				</path>
				<path d="M231.87,119.79v.63c0,.69.48,1,1.08.62L247,112.92a2.37,2.37,0,0,0,1.08-1.87v-.63c0-.69-.48-1-1.08-.63L233,117.92A2.37,2.37,0,0,0,231.87,119.79Z" style="fill: rgb(250, 250, 250); transform-origin: 239.975px 115.418px;" id="elug20mpzyw2p" class="animable">
				</path>
				<path d="M256.24,105.72v.63c0,.69.48,1,1.08.62l14.08-8.12A2.38,2.38,0,0,0,272.49,97v-.63c0-.69-.49-1-1.09-.63l-14.08,8.12A2.4,2.4,0,0,0,256.24,105.72Z" style="fill: rgb(69, 90, 100); transform-origin: 264.365px 101.358px;" id="el8hc05zk7wau" class="animable">
				</path>
				<g id="elyn6k20mdmwn">
					<path d="M101.88,198.53V199c0,.46.32.64.72.41l12.09-7a1.59,1.59,0,0,0,.72-1.25v-.42c0-.46-.32-.65-.72-.42l-12.09,7A1.59,1.59,0,0,0,101.88,198.53Z" style="fill: rgb(255, 255, 255); opacity: 0.7; transform-origin: 108.645px 194.866px;" class="animable">
					</path>
				</g>
				<path d="M329.19,31.06c-1-.61-2.38-.54-3.92.34L74.66,176.1a12.08,12.08,0,0,0-5.47,9.47V197l5.12,3L335.87,49V37.54A3.83,3.83,0,0,0,334.28,34C333.36,33.48,330.08,31.6,329.19,31.06Z" style="fill: rgb(38, 50, 56); transform-origin: 202.541px 115.33px;" id="elrlae4np9t9" class="animable">
				</path>
				<path d="M74.31,188.55a12.08,12.08,0,0,1,5.47-9.47L330.4,34.39c3-1.75,5.47-.33,5.47,3.15V49L74.31,200Z" style="fill: rgb(55, 71, 79); transform-origin: 205.09px 116.82px;" id="elwhwg1lwisc" class="animable">
				</path>
				<path d="M334.34,34.05c-1-.62-2.39-.55-3.94.34L79.78,179.08a11.18,11.18,0,0,0-3.86,4.08l-5.14-3a11.18,11.18,0,0,1,3.88-4.09L325.27,31.4c1.54-.88,2.93-.95,3.92-.34s4.17,2.42,5.1,2.95A.1.1,0,0,0,334.34,34.05Z" style="fill: rgb(69, 90, 100); transform-origin: 202.56px 106.91px;" id="eladw7ez26usk" class="animable">
				</path>
				<path d="M305.1,54.9a5.67,5.67,0,0,0-2.57,4.44c0,1.64,1.15,2.3,2.57,1.48a5.66,5.66,0,0,0,2.56-4.44C307.66,54.75,306.51,54.08,305.1,54.9Z" style="fill: rgb(49, 66, 255); transform-origin: 305.095px 57.8609px;" id="elw5sk8k15d5o" class="animable">
				</path>
				<path d="M314.07,49.73a5.67,5.67,0,0,0-2.56,4.45c0,1.63,1.14,2.29,2.56,1.48a5.67,5.67,0,0,0,2.56-4.45C316.63,49.58,315.49,48.92,314.07,49.73Z" style="fill: rgb(49, 66, 255); transform-origin: 314.07px 52.695px;" id="elji34ow788u" class="animable">
				</path>
				<path d="M323,44.57A5.66,5.66,0,0,0,320.48,49c0,1.63,1.15,2.3,2.56,1.48a5.67,5.67,0,0,0,2.57-4.44C325.61,44.41,324.46,43.75,323,44.57Z" style="fill: rgb(49, 66, 255); transform-origin: 323.045px 47.524px;" id="ele712lfhbia" class="animable">
				</path>
			</g>
			<polygon points="86.69 222.11 323.46 85.28 323.46 243.62 86.69 380.46 86.69 222.11" style="fill: rgb(250, 250, 250); transform-origin: 205.075px 232.87px;" id="el5vimc4cd2ts" class="animable">
			</polygon>
			<path d="M240.18,152.61a3.33,3.33,0,0,1-1.71-.44c-1.22-.7-1.89-2.15-1.89-4.06a13,13,0,0,1,5.89-10.2c1.66-1,3.24-1.1,4.46-.39s1.89,2.14,1.89,4.06a13,13,0,0,1-5.89,10.19A5.54,5.54,0,0,1,240.18,152.61Zm5-14.6a4.71,4.71,0,0,0-2.29.71h0a12,12,0,0,0-5.42,9.39,3,3,0,0,0,5,2.86,12,12,0,0,0,5.42-9.39,3.56,3.56,0,0,0-1.42-3.26A2.49,2.49,0,0,0,245.22,138Z" style="fill: rgb(224, 224, 224); transform-origin: 242.7px 144.836px;" id="elipcoex279t" class="animable">
			</path>
			<path d="M252.21,139v.59c0,.64.45.9,1,.58l13.14-7.61a2.24,2.24,0,0,0,1-1.75v-.59c0-.64-.46-.9-1-.58l-13.14,7.61A2.22,2.22,0,0,0,252.21,139Z" style="fill: rgb(224, 224, 224); transform-origin: 259.78px 134.905px;" id="el8rosys4h0bm" class="animable">
			</path>
			<path d="M243,148a.09.09,0,0,1-.12,0,.21.21,0,0,1,0-.15v-1.13L241,147.83a.1.1,0,0,1-.12,0,.21.21,0,0,1-.05-.15V147a1,1,0,0,1,0-.25l.1-.27,1.85-4.63a.75.75,0,0,1,.25-.38l.46-.26a.08.08,0,0,1,.11,0,.2.2,0,0,1,.05.15v3.74l.52-.31a.1.1,0,0,1,.12,0,.21.21,0,0,1,.05.15v.67a.53.53,0,0,1-.05.2.24.24,0,0,1-.12.14l-.52.3v1.13a.41.41,0,0,1-.05.21.33.33,0,0,1-.11.14Zm-.16-2.45v-2l-1,2.6Z" style="fill: rgb(224, 224, 224); transform-origin: 242.581px 144.605px;" id="elphhwjjwr41n" class="animable">
			</path>
			<path d="M193.43,179.61a3.32,3.32,0,0,1-1.7-.44c-1.22-.7-1.89-2.14-1.89-4.06a13,13,0,0,1,5.89-10.2c1.66-1,3.24-1.1,4.46-.39s1.89,2.14,1.89,4.06a13,13,0,0,1-5.89,10.2A5.63,5.63,0,0,1,193.43,179.61Zm5-14.6a4.71,4.71,0,0,0-2.29.71,12,12,0,0,0-5.42,9.39,3,3,0,0,0,5,2.86,12,12,0,0,0,5.42-9.39,3.54,3.54,0,0,0-1.43-3.26A2.43,2.43,0,0,0,198.48,165Z" style="fill: rgb(49, 66, 255); transform-origin: 195.96px 171.835px;" id="elu7vcuf5a1q" class="animable">
			</path>
			<path d="M205.46,166v.59c0,.64.46.9,1,.58l13.14-7.61a2.22,2.22,0,0,0,1-1.75v-.58c0-.65-.45-.91-1-.59l-13.14,7.61A2.26,2.26,0,0,0,205.46,166Z" style="fill: rgb(49, 66, 255); transform-origin: 213.03px 161.905px;" id="el88gt82bwfzr" class="animable">
			</path>
			<path d="M197.29,168a.09.09,0,0,1,.11,0,.21.21,0,0,1,0,.15v.66a.63.63,0,0,1,0,.22l-.08.2-.89,1.95a1.14,1.14,0,0,1,.49-.08.64.64,0,0,1,.38.17,1,1,0,0,1,.25.42,2.7,2.7,0,0,1,.08.68,3.61,3.61,0,0,1-.12.94,3.91,3.91,0,0,1-.35.84,3.64,3.64,0,0,1-.52.7,2.81,2.81,0,0,1-.65.51,1.64,1.64,0,0,1-.74.27.86.86,0,0,1-.52-.09.78.78,0,0,1-.32-.37,1.52,1.52,0,0,1-.12-.53.39.39,0,0,1,0-.21.58.58,0,0,1,.12-.14l.48-.27s.07,0,.1,0a1.05,1.05,0,0,1,.08.13.4.4,0,0,0,.1.15.27.27,0,0,0,.16.08.45.45,0,0,0,.25,0,1.52,1.52,0,0,0,.37-.16,1.92,1.92,0,0,0,.6-.57,1.46,1.46,0,0,0,.22-.78c0-.28-.07-.44-.22-.48a.92.92,0,0,0-.6.17l-.5.29a.1.1,0,0,1-.12,0,.21.21,0,0,1-.05-.15V172a.63.63,0,0,1,.05-.22,2,2,0,0,1,.09-.2l.84-1.87-1.67,1a.08.08,0,0,1-.11,0,.17.17,0,0,1-.05-.15v-.66a.46.46,0,0,1,.16-.35Z" style="fill: rgb(49, 66, 255); transform-origin: 195.953px 171.81px;" id="eldbetpjn4qlj" class="animable">
			</path>
			<path d="M286.88,125.58a3.35,3.35,0,0,1-1.71-.44,4.42,4.42,0,0,1-1.88-4.06,13,13,0,0,1,5.88-10.2c1.66-1,3.25-1.1,4.47-.39s1.88,2.14,1.88,4.06a13.05,13.05,0,0,1-5.88,10.2A5.66,5.66,0,0,1,286.88,125.58Zm5.05-14.6a4.71,4.71,0,0,0-2.29.71h0a12,12,0,0,0-5.42,9.39,3,3,0,0,0,4.95,2.86,12,12,0,0,0,5.42-9.39,3.54,3.54,0,0,0-1.42-3.26A2.46,2.46,0,0,0,291.93,111Z" style="fill: rgb(224, 224, 224); transform-origin: 289.395px 117.805px;" id="elkprjhz1k6rp" class="animable">
			</path>
			<path d="M288.1,115.59a.51.51,0,0,1,0-.2.35.35,0,0,1,.12-.14l2.28-1.32a.09.09,0,0,1,.11,0,.21.21,0,0,1,.05.15v.66a.54.54,0,0,1-.05.21.33.33,0,0,1-.11.14l-1.7,1-.07,1.23a1.73,1.73,0,0,1,.32-.3,1.59,1.59,0,0,1,.27-.17,1.43,1.43,0,0,1,.63-.23.67.67,0,0,1,.5.13,1,1,0,0,1,.33.48,2.55,2.55,0,0,1,.12.85,4.69,4.69,0,0,1-.12,1.1,3.74,3.74,0,0,1-.34.89,2.8,2.8,0,0,1-.51.7,3.07,3.07,0,0,1-.61.48,1.71,1.71,0,0,1-.72.26.73.73,0,0,1-.5-.11.86.86,0,0,1-.29-.42,2,2,0,0,1-.12-.63.41.41,0,0,1,0-.21.28.28,0,0,1,.12-.14l.49-.28a.11.11,0,0,1,.11,0,.17.17,0,0,1,.06.12.61.61,0,0,0,.12.28.29.29,0,0,0,.18.11.38.38,0,0,0,.23,0,1.62,1.62,0,0,0,.27-.13,1.37,1.37,0,0,0,.55-.61,2,2,0,0,0,.22-.91.68.68,0,0,0-.22-.58c-.14-.11-.32-.1-.55,0a1.45,1.45,0,0,0-.29.21,1,1,0,0,0-.17.2l-.13.17a.42.42,0,0,1-.14.12l-.55.32a.09.09,0,0,1-.12,0,.21.21,0,0,1,0-.15Z" style="fill: rgb(224, 224, 224); transform-origin: 289.289px 117.714px;" id="el6nw38e3dgbu" class="animable">
			</path>
			<path d="M298.91,112v.59c0,.64.45.9,1,.58l13.14-7.61a2.22,2.22,0,0,0,1-1.75v-.58c0-.65-.45-.91-1-.59l-13.14,7.61A2.23,2.23,0,0,0,298.91,112Z" style="fill: rgb(224, 224, 224); transform-origin: 306.48px 107.905px;" id="elhhurmk4pu9l" class="animable">
			</path>
			<path d="M146.69,206.61a3.29,3.29,0,0,1-1.7-.44c-1.22-.7-1.89-2.14-1.89-4.06a13.05,13.05,0,0,1,5.88-10.2c1.66-1,3.25-1.1,4.47-.39s1.89,2.14,1.89,4.06a13,13,0,0,1-5.89,10.2A5.63,5.63,0,0,1,146.69,206.61Z" style="fill: rgb(49, 66, 255); transform-origin: 149.22px 198.836px;" id="elnpaww6kgxc" class="animable">
			</path>
			<path d="M158.72,193v.59c0,.64.46.9,1,.58l13.14-7.61a2.22,2.22,0,0,0,1-1.75v-.58c0-.65-.45-.91-1-.59l-13.14,7.61A2.26,2.26,0,0,0,158.72,193Z" style="fill: rgb(49, 66, 255); transform-origin: 166.29px 188.905px;" id="el8gj5bov5xwq" class="animable">
			</path>
			<path id="freepik--Check--inject-194" d="M151.87,194.27a.75.75,0,0,0-1,.4l-2.84,6.75-.67-.66a.75.75,0,0,0-1.06,0,.75.75,0,0,0,0,1.06l1.47,1.42a.73.73,0,0,0,.52.22l.15,0A.78.78,0,0,0,149,203l3.26-7.76A.76.76,0,0,0,151.87,194.27Z" style="fill: rgb(250, 250, 250); transform-origin: 149.197px 198.832px;" class="animable">
			</path>
			<path d="M100,233.62a3.36,3.36,0,0,1-1.71-.45c-1.21-.7-1.88-2.14-1.88-4.06a13.05,13.05,0,0,1,5.88-10.2h0c1.66-1,3.25-1.1,4.47-.39a4.43,4.43,0,0,1,1.89,4.06,13.06,13.06,0,0,1-5.89,10.2A5.65,5.65,0,0,1,100,233.62Z" style="fill: rgb(49, 66, 255); transform-origin: 102.54px 225.84px;" id="elalgpddsk7qb" class="animable">
			</path>
			<path d="M112,220v.59c0,.64.45.9,1,.58l13.14-7.61a2.21,2.21,0,0,0,1-1.74v-.59c0-.65-.45-.91-1-.59L113,218.29A2.23,2.23,0,0,0,112,220Z" style="fill: rgb(49, 66, 255); transform-origin: 119.57px 215.905px;" id="elmyk0rl8z4qr" class="animable">
			</path>
			<path id="freepik--check--inject-194" d="M105.12,221.26a.75.75,0,0,0-1,.4l-2.84,6.75-.67-.66a.75.75,0,0,0-1,1.08l1.47,1.42a.73.73,0,0,0,.52.22l.15,0a.76.76,0,0,0,.54-.44l3.26-7.76A.76.76,0,0,0,105.12,221.26Z" style="fill: rgb(250, 250, 250); transform-origin: 102.539px 225.832px;" class="animable">
			</path>
			<polygon points="86.69 247.36 323.45 110.52 323.45 111.85 86.69 248.68 86.69 247.36" style="fill: rgb(224, 224, 224); transform-origin: 205.07px 179.6px;" id="eloqs2jh95s3d" class="animable">
			</polygon>
			<polygon points="86.69 248.13 86.69 248.68 227.77 167.26 227.77 165.93 86.69 247.36 86.69 248.13" style="fill: rgb(49, 66, 255); transform-origin: 157.23px 207.305px;" id="el97we5fekze9" class="animable">
			</polygon>
		</g>
	</g>
	<g id="freepik--Tabs--inject-194" class="animable" style="transform-origin: 233.696px 265.948px;">
		<path d="M285.11,148a1.35,1.35,0,0,0-1.43.11L124,240.34a4.32,4.32,0,0,0-2,3.38V347.56a1.36,1.36,0,0,0,.56,1.25c.35.22,3.32,1.92,3.67,2.12a1.36,1.36,0,0,0,1.38-.13l159.73-92.2a4.29,4.29,0,0,0,2-3.38V151.39a1.36,1.36,0,0,0-.56-1.26C288.37,149.92,285.43,148.26,285.11,148Z" style="fill: rgb(49, 66, 255); transform-origin: 205.671px 249.453px;" id="elk78ahmljvik" class="animable">
		</path>
		<g id="elijkm2jmti3j">
			<g style="opacity: 0.9; transform-origin: 207.501px 250.47px;" class="animable">
				<path d="M288.73,150.13c-.36-.21-.72-.41-.11-.06a1.47,1.47,0,0,0-1.28.19l-159.73,92.2a4.05,4.05,0,0,0-1.38,1.46,3.9,3.9,0,0,0-.57,1.92V349.67a1.51,1.51,0,0,0,.47,1.21l.1.05a1.36,1.36,0,0,0,1.38-.13l159.73-92.2a4.29,4.29,0,0,0,2-3.38V151.39A1.36,1.36,0,0,0,288.73,150.13Z" style="fill: rgb(255, 255, 255); transform-origin: 207.501px 250.47px;" id="elfstg5k4yfit" class="animable">
				</path>
			</g>
		</g>
		<g id="elq7vp5kjb7d">
			<g style="opacity: 0.8; transform-origin: 124.111px 296.34px;" class="animable">
				<path d="M125.66,245.84a3.9,3.9,0,0,1,.57-1.92l-3.66-2.12a4,4,0,0,0-.57,1.92V347.56a1.36,1.36,0,0,0,.56,1.25l3.57,2.07a1.51,1.51,0,0,1-.47-1.21Z" style="fill: rgb(255, 255, 255); transform-origin: 124.111px 296.34px;" id="elhfwskshpdcf" class="animable">
				</path>
			</g>
		</g>
		<g id="elnggi1lfzm0f">
			<g style="opacity: 0.95; transform-origin: 205.595px 195.843px;" class="animable">
				<path d="M285.11,148c.3.21,2.9,1.68,3.51,2a1.47,1.47,0,0,0-1.28.19l-159.73,92.2a4,4,0,0,0-1.37,1.46l-3.67-2.12a4,4,0,0,1,1.38-1.46l159.73-92.19A1.37,1.37,0,0,1,285.11,148Z" style="fill: rgb(255, 255, 255); transform-origin: 205.595px 195.843px;" id="elirvhmb44x0d" class="animable">
				</path>
			</g>
		</g>
		<path d="M312.11,165a1.35,1.35,0,0,0-1.43.11L151,257.34a4.32,4.32,0,0,0-1.95,3.38V364.56a1.36,1.36,0,0,0,.56,1.25c.35.22,3.32,1.92,3.67,2.12a1.36,1.36,0,0,0,1.38-.13l159.73-92.2a4.29,4.29,0,0,0,2-3.38V168.39a1.36,1.36,0,0,0-.56-1.26C315.37,166.92,312.43,165.26,312.11,165Z" style="fill: rgb(49, 66, 255); transform-origin: 232.721px 266.453px;" id="elumuh22x9r5q" class="animable">
		</path>
		<g id="elwwpsocinqkl">
			<g style="opacity: 0.7; transform-origin: 234.501px 267.47px;" class="animable">
				<path d="M315.73,167.13c-.36-.21-.72-.41-.11-.06a1.47,1.47,0,0,0-1.28.19l-159.73,92.2a4.05,4.05,0,0,0-1.38,1.46,3.9,3.9,0,0,0-.57,1.92V366.67a1.51,1.51,0,0,0,.47,1.21l.1.05a1.36,1.36,0,0,0,1.38-.13l159.73-92.2a4.29,4.29,0,0,0,2-3.38V168.39A1.36,1.36,0,0,0,315.73,167.13Z" style="fill: rgb(255, 255, 255); transform-origin: 234.501px 267.47px;" id="el7wxyiobejvo" class="animable">
				</path>
			</g>
		</g>
		<g id="elz76hi5tw22">
			<g style="opacity: 0.6; transform-origin: 151.111px 313.34px;" class="animable">
				<path d="M152.66,262.84a3.9,3.9,0,0,1,.57-1.92l-3.66-2.12a4,4,0,0,0-.57,1.92V364.56a1.36,1.36,0,0,0,.56,1.25l3.57,2.07a1.51,1.51,0,0,1-.47-1.21Z" style="fill: rgb(255, 255, 255); transform-origin: 151.111px 313.34px;" id="elrf68do6337s" class="animable">
				</path>
			</g>
		</g>
		<g id="elt3moxyolysf">
			<g style="opacity: 0.8; transform-origin: 232.595px 212.843px;" class="animable">
				<path d="M312.11,165c.3.21,2.9,1.68,3.51,2a1.47,1.47,0,0,0-1.28.19l-159.73,92.2a4,4,0,0,0-1.37,1.46l-3.67-2.12a4,4,0,0,1,1.38-1.46l159.73-92.19A1.37,1.37,0,0,1,312.11,165Z" style="fill: rgb(255, 255, 255); transform-origin: 232.595px 212.843px;" id="elw0aoj5g2mlq" class="animable">
				</path>
			</g>
		</g>
		<path d="M341.11,181a1.35,1.35,0,0,0-1.43.11L180,273.34a4.32,4.32,0,0,0-1.95,3.38V380.56a1.36,1.36,0,0,0,.56,1.25c.35.22,3.32,1.92,3.67,2.12a1.36,1.36,0,0,0,1.38-.13l159.73-92.2a4.29,4.29,0,0,0,2-3.38V184.39a1.36,1.36,0,0,0-.56-1.26C344.37,182.92,341.43,181.26,341.11,181Z" style="fill: rgb(49, 66, 255); transform-origin: 261.721px 282.453px;" id="elq732gahevrk" class="animable">
		</path>
		<path d="M341.11,181c.3.21,2.9,1.68,3.51,2a1.47,1.47,0,0,0-1.28.19l-159.73,92.2a4,4,0,0,0-1.37,1.46l-3.67-2.12a4,4,0,0,1,1.38-1.46l159.73-92.19A1.37,1.37,0,0,1,341.11,181Z" style="fill: rgb(49, 66, 255); transform-origin: 261.595px 228.843px;" id="ela8st3kf9eg8" class="animable">
		</path>
		<g id="ellg4xjcirz9r">
			<path d="M341.11,181c.3.21,2.9,1.68,3.51,2a1.47,1.47,0,0,0-1.28.19l-159.73,92.2a4,4,0,0,0-1.37,1.46l-3.67-2.12a4,4,0,0,1,1.38-1.46l159.73-92.19A1.37,1.37,0,0,1,341.11,181Z" style="opacity: 0.2; transform-origin: 261.595px 228.843px;" class="animable">
			</path>
		</g>
		<g id="eloklz5qiugk">
			<path d="M181.66,382.67a1.47,1.47,0,0,0,.48,1.21l-3.58-2.06a1.38,1.38,0,0,1-.56-1.26V276.72a3.93,3.93,0,0,1,.57-1.92l3.67,2.12a3.82,3.82,0,0,0-.58,1.92Z" style="opacity: 0.35; transform-origin: 180.116px 329.34px;" class="animable">
			</path>
		</g>
		<path d="M203.39,272.4c1.32-.76,2.4-.14,2.4,1.39a5.28,5.28,0,0,1-2.4,4.14c-1.32.76-2.39.14-2.39-1.39A5.29,5.29,0,0,1,203.39,272.4Z" style="fill: rgb(250, 250, 250); transform-origin: 203.395px 275.165px;" id="ele59nh56fcqn" class="animable">
		</path>
		<path d="M203.39,273.91c.6-.34,1.09-.06,1.09.63a2.41,2.41,0,0,1-1.09,1.88c-.6.34-1.08.06-1.08-.63A2.4,2.4,0,0,1,203.39,273.91Z" style="fill: rgb(69, 90, 100); transform-origin: 203.395px 275.165px;" id="el4mgji2kh3v3" class="animable">
		</path>
		<path d="M208.14,272.18v.53c0,.59.41.83.92.53l12-6.9a2.06,2.06,0,0,0,.92-1.6v-.53c0-.59-.41-.83-.92-.53l-12,6.9A2,2,0,0,0,208.14,272.18Z" style="fill: rgb(250, 250, 250); transform-origin: 215.06px 268.46px;" id="elwn2zl4lxsab" class="animable">
		</path>
		<path d="M300.84,216.08c1.32-.76,2.39-.14,2.39,1.39a5.27,5.27,0,0,1-2.39,4.14c-1.32.76-2.4.14-2.4-1.38A5.32,5.32,0,0,1,300.84,216.08Z" style="fill: rgb(250, 250, 250); transform-origin: 300.835px 218.845px;" id="elgk9j4hyachr" class="animable">
		</path>
		<g id="elrjm4y0wud7">
			<path d="M305.58,215.86v.53c0,.59.41.83.92.54l12-6.91a2,2,0,0,0,.92-1.59v-.54c0-.58-.41-.82-.92-.53l-12,6.91A2,2,0,0,0,305.58,215.86Z" style="fill: rgb(255, 255, 255); opacity: 0.7; transform-origin: 312.5px 212.145px;" class="animable">
			</path>
		</g>
		<g id="elcj7ojdmuzd">
			<polygon points="181.66 295.71 262.9 248.81 262.9 250.37 181.66 297.27 181.66 295.71" style="opacity: 0.3; transform-origin: 222.28px 273.04px;" class="animable">
			</polygon>
		</g>
		<g id="elu2ya1kpl2mo">
			<polygon points="262.9 248.81 345.29 201.24 345.29 202.79 262.9 250.37 262.9 248.81" style="fill: rgb(255, 255, 255); opacity: 0.7; transform-origin: 304.095px 225.805px;" class="animable">
			</polygon>
		</g>
		<g id="el748rwo3bbkd">
			<g style="opacity: 0.3; transform-origin: 253.575px 283.74px;" class="animable">
				<path d="M197.91,296.83v.53c0,.59.41.83.92.54l12-6.91a2.05,2.05,0,0,0,.92-1.59v-.54c0-.59-.41-.82-.92-.53l-12,6.91A2,2,0,0,0,197.91,296.83Z" id="elc8tqpevpe7l" class="animable" style="transform-origin: 204.83px 293.114px;">
				</path>
				<path d="M246.65,268.69v.53c0,.59.41.83.92.53l12-6.9a2,2,0,0,0,.92-1.6v-.53c0-.59-.41-.83-.92-.53l-12,6.9A2,2,0,0,0,246.65,268.69Z" id="el21c1a1tzmihi" class="animable" style="transform-origin: 253.57px 264.97px;">
				</path>
				<path d="M295.4,240.54v.54c0,.59.41.82.92.53l12-6.9a2.07,2.07,0,0,0,.92-1.6v-.53c0-.59-.42-.83-.92-.53l-12,6.9A2,2,0,0,0,295.4,240.54Z" id="elwp671m5wtaq" class="animable" style="transform-origin: 302.32px 236.828px;">
				</path>
				<path d="M197.91,315.62v.53c0,.59.41.83.92.54l12-6.91a2.05,2.05,0,0,0,.92-1.59v-.54c0-.58-.41-.82-.92-.53l-12,6.91A2,2,0,0,0,197.91,315.62Z" id="el54kwk485zxd" class="animable" style="transform-origin: 204.83px 311.905px;">
				</path>
				<path d="M197.91,334.37v.53c0,.59.41.83.92.53l12-6.9a2.06,2.06,0,0,0,.92-1.6v-.53c0-.59-.41-.83-.92-.53l-12,6.9A2,2,0,0,0,197.91,334.37Z" id="ele6owtoaa8s7" class="animable" style="transform-origin: 204.83px 330.65px;">
				</path>
				<path d="M246.65,287.48V288c0,.59.41.83.92.53l12-6.9a2,2,0,0,0,.92-1.59v-.54c0-.59-.41-.83-.92-.53l-12,6.9A2,2,0,0,0,246.65,287.48Z" id="elgyxc92kbj5h" class="animable" style="transform-origin: 253.57px 283.75px;">
				</path>
				<path d="M295.4,259.33v.54c0,.59.41.82.92.53l12-6.9a2.07,2.07,0,0,0,.92-1.6v-.53c0-.59-.42-.83-.92-.53l-12,6.9A2,2,0,0,0,295.4,259.33Z" id="el46wpzltwdxq" class="animable" style="transform-origin: 302.32px 255.618px;">
				</path>
			</g>
		</g>
		<g id="el7fxybnolz7a">
			<path d="M198.81,300.71l32.69-18.87c.5-.29.92,0,.92.53v3.86a2,2,0,0,1-.92,1.59l-32.69,18.87c-.51.3-.92.06-.92-.53v-3.85A2,2,0,0,1,198.81,300.71Z" style="fill: rgb(255, 255, 255); opacity: 0.7; transform-origin: 215.155px 294.272px;" class="animable">
			</path>
		</g>
		<g id="el4rgz1v39j53">
			<path d="M247.55,272.57l32.69-18.87c.51-.29.92-.06.92.53v3.86a2,2,0,0,1-.92,1.59l-32.69,18.87c-.5.3-.92.06-.92-.53v-3.85A2.06,2.06,0,0,1,247.55,272.57Z" style="fill: rgb(255, 255, 255); opacity: 0.7; transform-origin: 263.895px 266.127px;" class="animable">
			</path>
		</g>
		<g id="el181wezh3cii">
			<path d="M296.3,244.43,329,225.56c.5-.3.92-.06.92.53v3.85a2.07,2.07,0,0,1-.92,1.6L296.3,250.41c-.51.29-.92.05-.92-.53V246A2,2,0,0,1,296.3,244.43Z" style="fill: rgb(255, 255, 255); opacity: 0.7; transform-origin: 312.65px 237.982px;" class="animable">
			</path>
		</g>
		<g id="el6w423bw0wl7">
			<path d="M198.81,319.5l32.69-18.87c.5-.29.92-.05.92.53V305a2,2,0,0,1-.92,1.59l-32.69,18.87c-.51.3-.92.06-.92-.53V321.1A2,2,0,0,1,198.81,319.5Z" style="fill: rgb(255, 255, 255); opacity: 0.7; transform-origin: 215.155px 313.048px;" class="animable">
			</path>
		</g>
		<g id="elb05i5ti25l4">
			<path d="M198.81,338.75,329,263.57c.5-.29.92-.05.92.53v24.76a2.06,2.06,0,0,1-.92,1.6L198.81,365.64c-.51.29-.92.05-.92-.53V340.34A2,2,0,0,1,198.81,338.75Z" style="fill: rgb(255, 255, 255); opacity: 0.7; transform-origin: 263.905px 314.605px;" class="animable">
			</path>
		</g>
		<g id="elvf2zv0nd13a">
			<path d="M247.55,291.36l32.69-18.87c.51-.29.92-.06.92.53v3.86a2,2,0,0,1-.92,1.59l-32.69,18.87c-.5.3-.92.06-.92-.53V293A2.07,2.07,0,0,1,247.55,291.36Z" style="fill: rgb(255, 255, 255); opacity: 0.7; transform-origin: 263.895px 284.917px;" class="animable">
			</path>
		</g>
		<g id="elrr42p4r69nr">
			<path d="M296.3,263.22,329,244.35c.5-.3.92-.06.92.53v3.85a2.07,2.07,0,0,1-.92,1.6L296.3,269.2c-.51.29-.92.06-.92-.53v-3.86A2,2,0,0,1,296.3,263.22Z" style="fill: rgb(255, 255, 255); opacity: 0.7; transform-origin: 312.65px 256.773px;" class="animable">
			</path>
		</g>
		<g id="freepik--speach-bubble--inject-194" class="animable" style="transform-origin: 326.75px 320.754px;">
			<path d="M340.1,302.72l-30.31,17.53a1.84,1.84,0,0,0-.83,1.44v14.57a1.79,1.79,0,0,0,.83,1.42l1.95,1.11a1.83,1.83,0,0,0,1.66,0l30.31-17.53a1.81,1.81,0,0,0,.83-1.43V305.25a1.81,1.81,0,0,0-.83-1.43l-1.95-1.11A1.86,1.86,0,0,0,340.1,302.72Z" style="fill: rgb(38, 50, 56); transform-origin: 326.75px 320.754px;" id="el2bkgk93mm8x" class="animable">
			</path>
			<path d="M312.57,338.31V323.74a1.84,1.84,0,0,1,.83-1.44l30.31-17.53c.46-.26.83,0,.83.48v14.57a1.81,1.81,0,0,1-.83,1.43L313.4,338.78C312.94,339.05,312.57,338.83,312.57,338.31Z" style="fill: rgb(69, 90, 100); transform-origin: 328.555px 321.782px;" id="elunvgkqr3tzs" class="animable">
			</path>
			<g id="el06ydbpejz3po">
				<path d="M313.4,338.79a1.93,1.93,0,0,1-1.66,0l-1.95-1.11a1.84,1.84,0,0,1-.83-1.43V321.69a1.68,1.68,0,0,1,.26-.84l3.6,2.08a1.66,1.66,0,0,0-.25.81v14.57C312.57,338.79,312.92,339.07,313.4,338.79Z" style="opacity: 0.2; transform-origin: 311.18px 329.914px;" class="animable">
				</path>
			</g>
			<path d="M344.53,305.1c-.06-.42-.4-.57-.82-.33L313.4,322.3a1.74,1.74,0,0,0-.58.62l-3.6-2.08a1.7,1.7,0,0,1,.57-.59l30.31-17.53a1.86,1.86,0,0,1,1.66,0l1.95,1.11A1.84,1.84,0,0,1,344.53,305.1Z" style="fill: rgb(55, 71, 79); transform-origin: 326.875px 312.722px;" id="eldemzsfoatu" class="animable">
			</path>
		</g>
		<path d="M322.53,329.8c-.11.06-.19.07-.24,0a.46.46,0,0,1-.12-.13l-2.59-4.42v5.86a.7.7,0,0,1-.07.31.46.46,0,0,1-.18.22l-.75.43a.14.14,0,0,1-.17,0,.32.32,0,0,1-.07-.23v-9.19a.73.73,0,0,1,.07-.31.54.54,0,0,1,.17-.21l.65-.38c.1-.06.19-.06.24,0l.12.13,2.59,4.42v-5.85a.74.74,0,0,1,.07-.32.48.48,0,0,1,.18-.21l.74-.43a.14.14,0,0,1,.18,0,.3.3,0,0,1,.07.23v9.18a.74.74,0,0,1-.07.32.48.48,0,0,1-.18.21Z" style="fill: rgb(49, 66, 255); transform-origin: 320.88px 325.778px;" id="elm69bzoffryo" class="animable">
		</path>
		<path d="M324.54,324.94a7.8,7.8,0,0,1,.16-1.59,6.89,6.89,0,0,1,.45-1.48,5.66,5.66,0,0,1,.71-1.23,3.49,3.49,0,0,1,.94-.84,1.57,1.57,0,0,1,.94-.25,1.06,1.06,0,0,1,.71.37,2.13,2.13,0,0,1,.46.89,4.65,4.65,0,0,1,.16,1.29v.64a.7.7,0,0,1-.07.31.46.46,0,0,1-.18.22l-3.08,1.78a1.25,1.25,0,0,0,.09.52.69.69,0,0,0,.23.29.56.56,0,0,0,.34.05.92.92,0,0,0,.4-.14,1.9,1.9,0,0,0,.48-.37,1.92,1.92,0,0,0,.31-.41,1.85,1.85,0,0,1,.16-.25,1,1,0,0,1,.18-.15l.74-.42a.14.14,0,0,1,.18,0,.29.29,0,0,1,.07.23,2.64,2.64,0,0,1-.15.59,4.88,4.88,0,0,1-.4.85,5.84,5.84,0,0,1-.66.89,3.65,3.65,0,0,1-.91.74,1.62,1.62,0,0,1-.94.26,1,1,0,0,1-.71-.38,2.16,2.16,0,0,1-.45-.95A5.75,5.75,0,0,1,324.54,324.94Zm2.26-3.43a1.52,1.52,0,0,0-.45.38,2,2,0,0,0-.32.5,2.37,2.37,0,0,0-.2.54,2.53,2.53,0,0,0-.09.5l2.09-1.21c0-.13,0-.27-.07-.41a.86.86,0,0,0-.17-.33.42.42,0,0,0-.3-.13A.87.87,0,0,0,326.8,321.51Z" style="fill: rgb(49, 66, 255); transform-origin: 326.805px 323.639px;" id="elixglkbitrv" class="animable">
		</path>
		<path d="M332,322l-1.09,2.71a1,1,0,0,1-.19.33.68.68,0,0,1-.21.17l-.71.41a.14.14,0,0,1-.18,0,.4.4,0,0,1-.06-.25.83.83,0,0,1,0-.22l1.66-4.13-1.58-2.11a.3.3,0,0,1,0-.18.71.71,0,0,1,.07-.32.41.41,0,0,1,.17-.21l.71-.41a.42.42,0,0,1,.22-.08.26.26,0,0,1,.19.11l1,1.39,1-2.59a1.52,1.52,0,0,1,.19-.33.87.87,0,0,1,.22-.17l.71-.41c.07,0,.13,0,.17,0a.34.34,0,0,1,.07.25.57.57,0,0,1,0,.22l-1.6,4,1.64,2.17a.29.29,0,0,1,0,.17.75.75,0,0,1-.07.33.46.46,0,0,1-.17.21l-.71.41a.4.4,0,0,1-.22.07.22.22,0,0,1-.19-.11Z" style="fill: rgb(49, 66, 255); transform-origin: 331.983px 320.681px;" id="elvy4f5snxq2i" class="animable">
		</path>
		<path d="M337,318.8a.94.94,0,0,0,.15.61q.15.18.57-.06l.56-.33a.15.15,0,0,1,.18,0,.32.32,0,0,1,.07.23v.94a.74.74,0,0,1-.07.32.48.48,0,0,1-.18.21l-.68.39c-.58.34-1,.38-1.33.13s-.47-.83-.47-1.72v-3l-.61.35a.13.13,0,0,1-.17,0,.32.32,0,0,1-.08-.23v-.94a.71.71,0,0,1,.08-.31.4.4,0,0,1,.17-.22l.61-.35v-2.32a.7.7,0,0,1,.07-.31.43.43,0,0,1,.18-.21l.7-.41a.14.14,0,0,1,.18,0,.37.37,0,0,1,.07.23v2.32l1.19-.69a.14.14,0,0,1,.18,0,.3.3,0,0,1,.07.23v.94a.7.7,0,0,1-.07.31.51.51,0,0,1-.18.22l-1.19.68Z" style="fill: rgb(49, 66, 255); transform-origin: 336.735px 316.469px;" id="el662buxznxfr" class="animable">
		</path>
	</g>
	<g id="freepik--magic-wand--inject-194" class="animable" style="transform-origin: 398.595px 95.5188px;">
		<g id="freepik--magic-wand--inject-194" class="animable" style="transform-origin: 398.595px 95.5188px;">
			<g id="el1imtetbvolx">
				<ellipse cx="396.83" cy="96.57" rx="16.15" ry="9.33" style="fill: rgb(49, 66, 255); transform-origin: 396.83px 96.57px; transform: rotate(-59.85deg);" class="animable">
				</ellipse>
			</g>
			<g id="eldvpmp20f0mg">
				<ellipse cx="396.83" cy="96.57" rx="16.15" ry="9.33" style="fill: rgb(255, 255, 255); opacity: 0.8; transform-origin: 396.83px 96.57px; transform: rotate(-59.85deg);" class="animable">
				</ellipse>
			</g>
			<path d="M420.13,86.92a5.52,5.52,0,0,1,1.49-3l3.21-3.42a3.74,3.74,0,0,0,1-3l-1.15-6.67a1.11,1.11,0,0,0-1.82-.8l-3.21,1.82a1.78,1.78,0,0,1-2.45-.55A10.21,10.21,0,0,0,416,69.81a3,3,0,0,1-.71-2.91l1.44-4.65a1.55,1.55,0,0,0-1.14-2.1l-4.61-1a2.49,2.49,0,0,0-2.61,1.21l-2.65,4.47a4.52,4.52,0,0,1-2.62,2,21.43,21.43,0,0,0-2.84.94,1.59,1.59,0,0,1-2.18-1l-1-2.08a1.16,1.16,0,0,0-1.95-.61l-6.9,5.43A3.86,3.86,0,0,0,387,72.38l-.14,3.47A5.13,5.13,0,0,1,385.74,79c-1.12,1.36-2.2,2.77-3.2,4.25a3.51,3.51,0,0,1-2.81,1.42l-2-.23A2.82,2.82,0,0,0,375.21,86l-4.52,10.1a1.79,1.79,0,0,0,.93,2.37l1.47.79a2.25,2.25,0,0,1,1.23,2.48,39.83,39.83,0,0,0-.77,4.47,5.63,5.63,0,0,1-1.5,3l-3.19,3.46a3.68,3.68,0,0,0-1,3L369,122.4a1.1,1.1,0,0,0,1.82.79l3.2-1.87a1.78,1.78,0,0,1,2.45.55,13.19,13.19,0,0,0,1.18,1.46,3,3,0,0,1,.72,2.91L376.83,131a1.54,1.54,0,0,0,1.14,2.1l4.6,1a2.51,2.51,0,0,0,2.61-1.21l2.74-4.59a4.52,4.52,0,0,1,2.62-2,21.43,21.43,0,0,0,2.84-.94,1.56,1.56,0,0,1,2.17,1l.94,2.67a1.15,1.15,0,0,0,1.95.6l7.32-5.73c.78-.61,1.75-1.84,1.31-2.92l-.64-.72-5.16-6.19a29.18,29.18,0,0,1-4.43,3.18c-10,5.75-18,1.12-18-10.34s8.07-25.41,18-31.16,18-1.12,18,10.34A35,35,0,0,1,411.13,101l4.89,5.87.87,0a2.83,2.83,0,0,0,2.54-1.56l3.69-8.2a1.78,1.78,0,0,0-.93-2.37l-1.6-.9a2.22,2.22,0,0,1-1.23-2.47A42.07,42.07,0,0,0,420.13,86.92Z" style="fill: rgb(49, 66, 255); transform-origin: 396.844px 96.6239px;" id="elln9xoff1eo" class="animable">
			</path>
			<path d="M402.42,110l-7.26-8.78a1.91,1.91,0,0,1-.17-2l4.23-5.27a.81.81,0,0,1,1.42-.12l7.27,8.77Z" style="fill: rgb(250, 250, 250); transform-origin: 401.347px 101.732px;" id="el1wr0vye79kih" class="animable">
			</path>
			<path d="M437.57,140l-4.22,5.27a.82.82,0,0,1-1.43.12l-28.16-33.83,5.48-7.44L437.4,138A1.93,1.93,0,0,1,437.57,140Z" style="fill: rgb(69, 90, 100); transform-origin: 420.766px 124.937px;" id="el9h81jl1907e" class="animable">
			</path>
			<g id="freepik--Shine--inject-194" class="animable" style="transform-origin: 428.697px 49.3718px;">
				<path d="M426.18,53.36a.61.61,0,0,1-.22-.8l.28-.53a3.1,3.1,0,0,0-.9-4l-.48-.36a.61.61,0,0,1-.16-.82.62.62,0,0,1,.81-.21l.53.27h0a3.1,3.1,0,0,0,4-.9l.36-.48a.61.61,0,0,1,.82-.15h0a.62.62,0,0,1,.21.81l-.28.52a3.11,3.11,0,0,0,.91,4l.48.36a.61.61,0,0,1,.15.82.62.62,0,0,1-.81.22l-.52-.28a3.11,3.11,0,0,0-4,.9l-.35.48a.6.6,0,0,1-.82.15Zm1.16-4.82a4.38,4.38,0,0,1,.5,2.19,4.38,4.38,0,0,1,2.19-.5,4.28,4.28,0,0,1-.5-2.19A4.28,4.28,0,0,1,427.34,48.54Z" style="fill: rgb(49, 66, 255); transform-origin: 428.697px 49.3718px;" id="elw6fw9cqvr8g" class="animable">
				</path>
			</g>
			<g id="freepik--shine--inject-194" class="animable" style="transform-origin: 362.052px 137.849px;">
				<path d="M361.18,133.23a.62.62,0,0,1,.71.45l.16.57a3.11,3.11,0,0,0,3.37,2.28l.59-.06a.61.61,0,0,1,.68.49.62.62,0,0,1-.44.71l-.58.16h0a3.1,3.1,0,0,0-2.28,3.37l.06.59a.62.62,0,0,1-.49.68h0a.63.63,0,0,1-.71-.45l-.15-.57a3.11,3.11,0,0,0-3.38-2.28l-.59.06a.61.61,0,0,1-.23-1.2l.57-.16a3.12,3.12,0,0,0,2.29-3.37l-.07-.59a.63.63,0,0,1,.49-.68Zm2.45,4.32a4.41,4.41,0,0,1-1.86-1.26,4.32,4.32,0,0,1-1.26,1.86,4.32,4.32,0,0,1,1.86,1.26A4.41,4.41,0,0,1,363.63,137.55Z" style="fill: rgb(49, 66, 255); transform-origin: 362.052px 137.849px;" id="elp5loymd0bvm" class="animable">
				</path>
			</g>
			<g id="freepik--shine--inject-194" class="animable" style="transform-origin: 435.197px 107.811px;">
				<path d="M436.24,112.39a.61.61,0,0,1-.72-.42l-.18-.57a3.09,3.09,0,0,0-3.45-2.15l-.59.09a.62.62,0,0,1-.28-1.2l.57-.18h0a3.1,3.1,0,0,0,2.16-3.45l-.09-.59a.61.61,0,0,1,.47-.69.63.63,0,0,1,.73.42l.17.56a3.11,3.11,0,0,0,3.46,2.16l.59-.09a.63.63,0,0,1,.69.47.62.62,0,0,1-.42.73l-.57.17a3.13,3.13,0,0,0-2.16,3.46l.09.59A.6.6,0,0,1,436.24,112.39Zm-2.6-4.22a4.3,4.3,0,0,1,1.91,1.19,4.3,4.3,0,0,1,1.19-1.91,4.3,4.3,0,0,1-1.91-1.19A4.3,4.3,0,0,1,433.64,108.17Z" style="fill: rgb(49, 66, 255); transform-origin: 435.197px 107.811px;" id="el9yv166u5rai" class="animable">
				</path>
			</g>
			<g id="freepik--shine--inject-194" class="animable" style="transform-origin: 366.378px 72.3688px;">
				<path d="M369.49,75.89v0a.63.63,0,0,1-.84,0l-.43-.42h0a3.11,3.11,0,0,0-4.06-.26l-.48.36a.61.61,0,0,1-.83-.08.63.63,0,0,1,0-.84l.42-.42a3.12,3.12,0,0,0,.25-4.07l-.36-.47a.64.64,0,0,1,.09-.84.61.61,0,0,1,.83,0l.43.42a3.12,3.12,0,0,0,4.07.26l.47-.36a.61.61,0,0,1,.81.92l-.41.42a3.11,3.11,0,0,0-.26,4.07l.36.48A.6.6,0,0,1,369.49,75.89Zm-4.32-2.46a4.4,4.4,0,0,1,2.25.14,4.37,4.37,0,0,1,.14-2.24,4.41,4.41,0,0,1-2.25-.14A4.17,4.17,0,0,1,365.17,73.43Z" style="fill: rgb(49, 66, 255); transform-origin: 366.378px 72.3688px;" id="elfi7ko7kc7cv" class="animable">
				</path>
			</g>
			<circle cx="368.3" cy="141.34" r="0.96" style="fill: rgb(49, 66, 255); transform-origin: 368.3px 141.34px;" id="ell924uwvvpu" class="animable">
			</circle>
			<path d="M431,58.31a1,1,0,1,1-1-1A1,1,0,0,1,431,58.31Z" style="fill: rgb(49, 66, 255); transform-origin: 430px 58.31px;" id="el0udsesz1l0w9" class="animable">
			</path>
			<path d="M429.68,102.59a1,1,0,1,1-1-1A1,1,0,0,1,429.68,102.59Z" style="fill: rgb(49, 66, 255); transform-origin: 428.68px 102.59px;" id="ellvap811an1" class="animable">
			</path>
			<path d="M366.13,82a1,1,0,1,1-1.91,0,1,1,0,0,1,1.91,0Z" style="fill: rgb(49, 66, 255); transform-origin: 365.175px 82.2966px;" id="elll40j1q3mej" class="animable">
			</path>
		</g>
	</g>
	<g id="freepik--Character--inject-194" class="animable" style="transform-origin: 390.289px 301.479px;">
		<g id="freepik--character--inject-194" class="animable" style="transform-origin: 390.289px 301.479px;">
			<path d="M371.39,407.77c-.26.09-.3,1.56-.07,2.05s1.87,2.31,5.15,3,7.79,0,9.73-.12a93.39,93.39,0,0,1,10,.89c3,.41,5.39-.26,6.52-1.36a2,2,0,0,0,.46-1.61c-.05-1.28-.17-1.54-.32-1.53Z" style="fill: rgb(38, 50, 56); transform-origin: 387.186px 410.741px;" id="el60ue76db4sl" class="animable">
			</path>
			<path d="M402.33,405.23c.06.25.12.5.17.76a12.84,12.84,0,0,1,.28,3.95,3.54,3.54,0,0,1-2.34,1.77,12.11,12.11,0,0,1-6.58.13,45.63,45.63,0,0,0-7.72-.47,47.69,47.69,0,0,1-6.75.33,15.83,15.83,0,0,1-5-1c-1.34-.57-2.7-1.3-3-2.68a4.53,4.53,0,0,1,2.51-4.51,10.2,10.2,0,0,1,5-1.09c1.89,0,3.32.25,5,.12a23.28,23.28,0,0,0,4.32-.6c1.26-.4,3.14-1.63,3.68-1.69,0,0,7.92-.19,8.72-.13s1.1,2.06,1.21,2.69.11,1,.24,1.48S402.26,404.91,402.33,405.23Z" style="fill: rgb(55, 71, 79); transform-origin: 387.097px 406.171px;" id="elrq86kxp14" class="animable">
			</path>
			<path d="M386.82,402.23a5.72,5.72,0,0,0-2.07,3.56c.05,1-1.65,1-1.7.09a8.21,8.21,0,0,1,1.5-3.41A4.2,4.2,0,0,1,386.82,402.23Z" style="fill: rgb(250, 250, 250); transform-origin: 384.935px 404.361px;" id="el7t4tuk9pc8j" class="animable">
			</path>
			<path d="M383,402.57a6,6,0,0,0-1.82,3.27c0,.72-1.51.65-1.49-.06a4.61,4.61,0,0,1,1.83-3.26C382,402.19,382.87,402.29,383,402.57Z" style="fill: rgb(250, 250, 250); transform-origin: 381.345px 404.33px;" id="elujwdl6mclog" class="animable">
			</path>
			<path d="M408.16,382.21c-.25,2.71-.32,3.44.35,5.22a10.89,10.89,0,0,0,3.8,4.72,19.12,19.12,0,0,1,3.36,3.92,16.77,16.77,0,0,0,3.52,4.21c1.09.91,4.1.93,5.54.29s1.92-1.2,1.78-3.52-7.18-3-7.18-3Z" style="fill: rgb(38, 50, 56); transform-origin: 417.257px 391.611px;" id="elrvf2yhkfk1a" class="animable">
			</path>
			<path d="M425.46,390.15c.61.22.78,1.36.92,3.63.1,1.72.88,4.22-1.47,5.35a5.8,5.8,0,0,1-6.29-1.2c-1.65-2-2.77-3.75-5.12-6.17-2-2.11-4.13-2.79-5.1-7.05-.63-2.74-.2-3.89,1.63-4.72,2.53-1.13,6.6,2.33,8.61,2.85C420.36,383.29,424.86,389.94,425.46,390.15Z" style="fill: rgb(55, 71, 79); transform-origin: 417.356px 389.672px;" id="elwmmjs0c1c" class="animable">
			</path>
			<path d="M418.64,382.84l-.35-.11a6.59,6.59,0,0,0-5.44,3.73c-.32.75.74,1.32,1.35.72a7,7,0,0,1,5.44-3.7A3,3,0,0,0,418.64,382.84Z" style="fill: rgb(250, 250, 250); transform-origin: 416.216px 385.081px;" id="elrl28rqar3v" class="animable">
			</path>
			<path d="M420.31,384.11a6.5,6.5,0,0,0-5.05,3.68c-.33.76.73,1.32,1.34.73a6.73,6.73,0,0,1,4.53-3.53C420.85,384.68,420.57,384.37,420.31,384.11Z" style="fill: rgb(250, 250, 250); transform-origin: 418.164px 386.438px;" id="el12fh7hybdzyo" class="animable">
			</path>
			<path d="M428.72,346.49l-14.26,1.85s.38,8.78,1.25,18.37c.73,8,1.63,19.37,2.08,23a7.32,7.32,0,0,0,.14,1.15c.24,2.13,7.53,2.78,7.53.31l.15-2.9C426.21,379.63,429.44,359.4,428.72,346.49Z" style="fill: rgb(177, 102, 104); transform-origin: 421.642px 369.624px;" id="elzzyes66k1xe" class="animable">
			</path>
			<path d="M402.75,349.19l-11.85,1.65,1,48.46,0,.86c.08,2.15,1.25,2.86,4.23,3,3.61.13,5-1.43,5-2.61,0-.11,0-.24,0-.36,1.27-11.26,3.18-29.89,3.44-36C404.72,359.21,404,352.65,402.75,349.19Z" style="fill: rgb(177, 102, 104); transform-origin: 397.745px 376.179px;" id="el7l2hwwei02o" class="animable">
			</path>
			<path d="M442.28,267.38c-4.86-28.09-10.08-33.23-18.55-36.86l2,15.66s7.22,18.4,8.13,24.83c.8,5.64,1.66,12.73,1.24,17.51a3.42,3.42,0,0,1-1.09,2.21c-1.66,1.57-2.18,2.94-3.3,4.72-.89,1.39-1.78,1.87-1.56,2.21a1.88,1.88,0,0,0,2.53.36,13,13,0,0,0,2.39-2,17.64,17.64,0,0,1-1.8,5.28c-2,3.79-1.72,5.81,3.65,4.78,3.37-.64,5.63-3.25,6.67-11.16a61.8,61.8,0,0,0,.7-8.79C443.11,278.56,443.06,271.9,442.28,267.38Z" style="fill: rgb(177, 102, 104); transform-origin: 433.51px 268.434px;" id="elr73es28g4r9" class="animable">
			</path>
			<path d="M443.65,277.44s0,6.4-.35,8.7c0,0-5,1.31-8.26-.19l-1-7.47Z" style="fill: rgb(38, 50, 56); transform-origin: 438.845px 282.055px;" id="el89hrm69b526" class="animable">
			</path>
			<path d="M419.31,229.94c3.3-.11,10.6-.14,14.45,7.47a96.72,96.72,0,0,1,9.91,40.48s-5.18,1.5-9.6.59c0,0-1.29-9.38-3.75-15.49-2.06-5.14-6.64-18-7-19.88S419.31,229.94,419.31,229.94Z" style="fill: rgb(55, 71, 79); transform-origin: 431.49px 254.345px;" id="elnr5uhaex5m" class="animable">
			</path>
			<path d="M429.23,347.85c-.34-8.28-1.22-8.46-2.55-14.94.67-7.89,1.3-14.52,1.58-23.07.3-9.24-.09-20.35-.09-30.17-10.11-.67-35.39-9-38.55,6.85-.92,12.83.36,38.23.5,55.71s-.09,31.89.94,50.66c2.9,1.06,8.24,1.51,11.08-.39,2.29-11.74,3.58-23.57,4.4-30.85,1-8.89,0-12.46,0-16.51.49-7,1.1-14.59,1.64-21.42s2-21.07,2-21.07,1,16.57,1.6,24.89,1.23,14.56,2.11,24.08c.81,8.78,1.7,19,2.56,29.13,2.39,1.13,6.75,1.69,10-.17C428.67,371,429.57,356.13,429.23,347.85Z" style="fill: rgb(49, 66, 255); transform-origin: 409.295px 335.346px;" id="el3b7c5btnblr" class="animable">
			</path>
			<g id="elhiipsvad5ld">
				<path d="M429.23,347.85c-.34-8.28-1.22-8.46-2.55-14.94.67-7.89,1.3-14.52,1.58-23.07.3-9.24-.09-20.35-.09-30.17-10.11-.67-35.39-9-38.55,6.85-.92,12.83.36,38.23.5,55.71s-.09,31.89.94,50.66c2.9,1.06,8.24,1.51,11.08-.39,2.29-11.74,3.58-23.57,4.4-30.85,1-8.89,0-12.46,0-16.51.49-7,1.1-14.59,1.64-21.42s2-21.07,2-21.07c.51,8.12,1,16.57,1.6,24.89s1.23,14.56,2.11,24.08c.81,8.78,1.7,19,2.56,29.13,2.39,1.13,6.75,1.69,10-.17C428.67,371,429.57,356.13,429.23,347.85Z" style="fill: rgb(255, 255, 255); opacity: 0.5; transform-origin: 409.295px 335.346px;" class="animable">
				</path>
			</g>
			<g id="elq06z0yaq57d">
				<g style="opacity: 0.2; transform-origin: 415.01px 310.33px;" class="animable">
					<path d="M410.27,302.65c4.18-.37,6.53-1.77,9.48-5.07-.63,2.14-2.11,5.2-6.94,6.5-.18,1.1-1.25,19-1.25,19Z" id="el05f82x2a16to" class="animable" style="transform-origin: 415.01px 310.33px;">
					</path>
				</g>
			</g>
			<path d="M427,236.32c-1.13-3.44-5.5-7.18-9.86-6.37A129.19,129.19,0,0,0,398,234.72c-4,1.43-7.64,4.89-8,18,0,0-2.67,32.67-.62,37A45.15,45.15,0,0,0,415,291.94c12-2.63,13.46-7.61,13.46-7.61s.16-22.05-.2-31.57C427.9,244.67,427.8,238.68,427,236.32Z" style="fill: rgb(69, 90, 100); transform-origin: 408.551px 261.35px;" id="elky9h5vglrk" class="animable">
			</path>
			<polygon points="401.8 225.44 403.1 237.72 414.11 237.73 412.83 223.83 401.8 225.44" style="fill: rgb(177, 102, 104); transform-origin: 407.955px 230.78px;" id="elx4tcvcvtdnh" class="animable">
			</polygon>
			<path d="M399.2,234.32c.8-1.67,1.42-3.9,3-4.18,0,0,5.4.8,8.07-.31s3.38-2.37,3.38-2.37a3.72,3.72,0,0,1,4,.72c1.6,1.71,6.4,4.54,7.66,9.55s2.29,14.28-3.5,16.07c-8.49,2.62-14.53-1.36-16.55-8.39C403,237.72,403.59,235.71,399.2,234.32Z" style="fill: rgb(55, 71, 79); transform-origin: 412.745px 240.888px;" id="el54b12rruqmh" class="animable">
			</path>
			<path d="M405.83,235c1.39,1.9,2.86,10.17,6.16,13.4s10.44,2.45,11.74-.84c0,0-.24,4.21-5.29,4.7s-9.47-3.09-10.73-8S406.62,237.19,405.83,235Z" style="fill: rgb(38, 50, 56); transform-origin: 414.78px 243.652px;" id="el1s1lkgd25n3" class="animable">
			</path>
			<path d="M393.05,211s-3.12,5-2.74,5.45,2.77.85,2.77.85Z" style="fill: rgb(154, 74, 77); transform-origin: 391.679px 214.15px;" id="elaota664perd" class="animable">
			</path>
			<path d="M400.68,198.86c-5.8,1.36-7.42,4-7.77,13.24-.35,9.69.71,12.71,2,14,.87.86,5.65.91,8,.19,3-.9,9.74-3.46,12.82-8.4,3.62-5.82,4.43-13.6.35-16.7C410.38,196.83,403.05,198.31,400.68,198.86Z" style="fill: rgb(177, 102, 104); transform-origin: 405.826px 212.48px;" id="elisob9pbw5z8" class="animable">
			</path>
			<path d="M392.45,202.81a5,5,0,0,0,3.59,1.11c-.26,0-.17,1.08-.14,1.23a2.19,2.19,0,0,0,.7,1.15,2.23,2.23,0,0,0,2.62.45c-.79.65-.19,2.62.09,3.42.32,1,.45,2,1.53,2.41,0,0,.84-3.6,3.86-3.22s3.55,4.25,1.69,6.64-3.67,1.53-3.67,1.53.21,5.12,2.54,8a16.57,16.57,0,0,0,7.7-.27,108,108,0,0,0,7.2-8.46c5.32-7.2,4.58-15.53-.68-17.61a23.64,23.64,0,0,0-.17-3.29,4.79,4.79,0,0,0-1.69-2.63A11.21,11.21,0,0,0,411.2,191c-2.65-.16-5.31.22-8,.21a26.44,26.44,0,0,1-8.54-1.48c-1.17-.4-2.61-.85-3.53,0a2.68,2.68,0,0,0-.59,2.41,7,7,0,0,0,2.64,4.51,2.58,2.58,0,0,1-1.73-.45,1.6,1.6,0,0,0-1.72-.06,1.62,1.62,0,0,0-.3,1.55A8.57,8.57,0,0,0,392.45,202.81Z" style="fill: rgb(38, 50, 56); transform-origin: 406.577px 207.553px;" id="elk3vxs5otqa" class="animable">
			</path>
			<path d="M419.6,200.41l3.44-2.14a2,2,0,1,0-3.44,2.14Z" style="fill: rgb(38, 50, 56); transform-origin: 421.166px 198.861px;" id="elauk6qyfrgjh" class="animable">
			</path>
			<path d="M349.71,257.5c1.88.83,24,17.2,27.47,15.29s21.16-22.6,21.16-22.6a14.28,14.28,0,0,0,0-15.52,12,12,0,0,0-10.1,5.29c-3.16,4.36-14.52,19.24-14.52,19.24-3.17-1.59-14.5-5.91-17-7.35a9.51,9.51,0,0,1-2-1.23c-1.25-1.24-1-4.24-1-5.87a21.75,21.75,0,0,1,.11-2.28c.11-.93.28-3.21-1.39-2.49a2.1,2.1,0,0,0-.8.68,3.56,3.56,0,0,0-.6,1.14c-.32,1-.22,2.06-.51,3.06a.81.81,0,0,1-.2.39.72.72,0,0,1-.53.16c-2.44-.07-4.75-3.49-5.87-5.3A5,5,0,0,0,342,238c-1.34-.63-2.94.26-3.8,1.46a7.69,7.69,0,0,0-1.21,5.38,10.67,10.67,0,0,0,3.18,6.74A32.72,32.72,0,0,0,349.71,257.5Z" style="fill: rgb(177, 102, 104); transform-origin: 368.771px 253.807px;" id="ele8q5zwul0c9" class="animable">
			</path>
			<path d="M365.81,255.82l-5.54-2.31a9.2,9.2,0,0,0-4.38,8.06l5.36,3.57Z" style="fill: rgb(38, 50, 56); transform-origin: 360.849px 259.325px;" id="elw92ixgpil2" class="animable">
			</path>
			<path d="M399.2,234.32s-5.38-.44-8.56,2.33-17.08,21.79-17.08,21.79l-7.75-2.62s-5.18,3.52-4.56,9.32c0,0,5.45,4,8.42,5.78s5.92,2.83,7.24,2.76,20.9-21.42,20.9-21.42,3.89-5,3.53-10A19.16,19.16,0,0,0,399.2,234.32Z" style="fill: rgb(55, 71, 79); transform-origin: 381.281px 253.989px;" id="elq23c2xkbe5i" class="animable">
			</path>
		</g>
	</g>
	<defs>
		<filter id="active" height="200%">
			<feMorphology in="SourceAlpha" result="DILATED" operator="dilate" radius="2">
			</feMorphology>
			<feFlood flood-color="#32DFEC" flood-opacity="1" result="PINK">
			</feFlood>
			<feComposite in="PINK" in2="DILATED" operator="in" result="OUTLINE">
			</feComposite>
			<feMerge>
				<feMergeNode in="OUTLINE">
				</feMergeNode>
				<feMergeNode in="SourceGraphic">
				</feMergeNode>
			</feMerge>
		</filter>
		<filter id="hover" height="200%">
			<feMorphology in="SourceAlpha" result="DILATED" operator="dilate" radius="2">
			</feMorphology>
			<feFlood flood-color="#ff0000" flood-opacity="0.5" result="PINK">
			</feFlood>
			<feComposite in="PINK" in2="DILATED" operator="in" result="OUTLINE">
			</feComposite>
			<feMerge>
				<feMergeNode in="OUTLINE">
				</feMergeNode>
				<feMergeNode in="SourceGraphic">
				</feMergeNode>
			</feMerge>
			<feColorMatrix type="matrix" values="0   0   0   0   0                0   1   0   0   0                0   0   0   0   0                0   0   0   1   0 ">
			</feColorMatrix>
		</filter>
	</defs>
</svg>

